M48
; DRILL file {KiCad 7.0.11+dfsg-1build4} date Tue 12 May 2026 04:08:52 PM BST
; FORMAT={-:-/ absolute / inch / decimal}
; #@! TF.CreationDate,2026-05-12T16:08:52+01:00
; #@! TF.GenerationSoftware,Kicad,Pcbnew,7.0.11+dfsg-1build4
; #@! TF.FileFunction,Plated,1,2,PTH
FMAT,2
INCH
; #@! TA.AperFunction,Plated,PTH,ViaDrill
T1C0.0118
; #@! TA.AperFunction,Plated,PTH,ComponentDrill
T2C0.0197
; #@! TA.AperFunction,Plated,PTH,ComponentDrill
T3C0.0315
; #@! TA.AperFunction,Plated,PTH,ComponentDrill
T4C0.0400
; #@! TA.AperFunction,Plated,PTH,ComponentDrill
T5C0.0512
; #@! TA.AperFunction,Plated,PTH,ComponentDrill
T6C0.0520
%
G90
G05
T1
X4.504Y-4.33
X4.538Y-4.332
X4.574Y-4.332
X4.62Y-4.334
X4.66Y-4.334
X4.8426Y-1.256
X4.8524Y-1.758
X4.8524Y-3.8219
X4.8585Y-2.2567
X4.8623Y-3.2786
X4.8711Y-2.7708
X4.8858Y-3.7264
X4.8878Y-1.6654
X4.8898Y-2.1673
X4.8967Y-3.185
X4.9085Y-2.6742
X4.926Y-1.268
X4.9358Y-1.77
X4.9358Y-3.8339
X4.9419Y-2.2687
X4.9457Y-3.2906
X4.9545Y-2.7828
X4.96Y-1.16
X4.96Y-1.24
X4.9698Y-1.742
X4.9698Y-3.8059
X4.9759Y-2.2407
X4.9797Y-3.2626
X4.9885Y-2.7548
X5.0433Y-5.8913
X5.0449Y-5.9902
X5.0457Y-5.939
X5.072Y-1.336
X5.08Y-1.494
X5.0818Y-1.838
X5.0818Y-3.9019
X5.0879Y-2.3367
X5.0898Y-1.996
X5.0898Y-4.0599
X5.0915Y-5.5886
X5.0917Y-3.3586
X5.0945Y-5.6398
X5.0959Y-2.4947
X5.0997Y-3.5166
X5.1005Y-2.8508
X5.1031Y-5.8902
X5.1063Y-5.7815
X5.1085Y-3.0088
X5.1132Y-5.8396
X5.1535Y-5.9382
X5.1559Y-5.9866
X5.1949Y-1.5197
X5.2047Y-2.0217
X5.2047Y-4.0856
X5.2108Y-2.5204
X5.2146Y-3.5423
X5.2176Y-4.3633
X5.2224Y-1.5335
X5.2234Y-3.0344
X5.2235Y-4.878
X5.2284Y-5.4292
X5.2323Y-2.0354
X5.2323Y-4.0994
X5.2384Y-2.5342
X5.2421Y-3.5561
X5.249Y-4.7874
X5.251Y-3.0482
X5.251Y-4.2657
X5.2608Y-5.3366
X5.276Y-1.412
X5.278Y-1.366
X5.28Y-1.3
X5.2858Y-1.914
X5.2858Y-3.9779
X5.2878Y-1.868
X5.2878Y-3.9319
X5.2898Y-1.802
X5.2898Y-3.8659
X5.2919Y-2.4127
X5.2939Y-2.3667
X5.2957Y-3.4346
X5.2959Y-2.3007
X5.2977Y-3.3886
X5.2997Y-3.3226
X5.301Y-4.3753
X5.3045Y-2.9268
X5.3065Y-2.8808
X5.3069Y-4.89
X5.3085Y-2.8148
X5.3118Y-5.4412
X5.335Y-4.3473
X5.3409Y-4.862
X5.3458Y-5.4132
X5.39Y-1.418
X5.398Y-1.39
X5.3998Y-1.92
X5.3998Y-3.9839
X5.4059Y-2.4187
X5.4078Y-1.892
X5.4078Y-3.9559
X5.408Y-1.522
X5.4097Y-3.4406
X5.41Y-1.314
X5.4139Y-2.3907
X5.4177Y-3.4126
X5.4178Y-2.024
X5.4178Y-4.0879
X5.4185Y-2.9328
X5.4198Y-1.816
X5.4198Y-3.8799
X5.4239Y-2.5227
X5.4259Y-2.3147
X5.4265Y-2.9048
X5.4277Y-3.5446
X5.4297Y-3.3366
X5.4365Y-3.0368
X5.4385Y-2.8288
X5.447Y-4.4433
X5.4529Y-4.958
X5.455Y-4.6013
X5.4578Y-5.5092
X5.4609Y-5.116
X5.4658Y-5.6672
X5.506Y-1.492
X5.514Y-1.364
X5.5158Y-1.994
X5.5158Y-4.0579
X5.5219Y-2.4927
X5.5238Y-1.866
X5.5238Y-3.9299
X5.5257Y-3.5146
X5.5299Y-2.3647
X5.5337Y-3.3866
X5.5345Y-3.0068
X5.5425Y-2.8788
X5.5699Y-4.627
X5.5758Y-5.1417
X5.5807Y-5.6929
X5.5974Y-4.6407
X5.6033Y-5.1555
X5.6083Y-5.7067
X5.622Y-1.512
X5.6318Y-2.014
X5.6318Y-4.0779
X5.6379Y-2.5127
X5.6417Y-3.5346
X5.6505Y-3.0268
X5.651Y-4.5193
X5.653Y-4.4733
X5.655Y-4.4073
X5.656Y-1.412
X5.6569Y-5.034
X5.658Y-1.494
X5.6589Y-4.988
X5.6609Y-4.922
X5.6618Y-5.5852
X5.6638Y-5.5392
X5.6658Y-5.4732
X5.6658Y-1.914
X5.6658Y-3.9779
X5.6678Y-1.996
X5.6678Y-4.0599
X5.6719Y-2.4127
X5.6739Y-2.4947
X5.6757Y-3.4346
X5.6777Y-3.5166
X5.6845Y-2.9268
X5.6865Y-3.0088
X5.744Y-1.224
X5.7538Y-1.726
X5.7538Y-3.7899
X5.7599Y-2.2247
X5.7637Y-3.2466
X5.765Y-4.5253
X5.7709Y-5.04
X5.7725Y-2.7388
X5.773Y-4.4973
X5.7758Y-5.5912
X5.776Y-1.416
X5.7789Y-5.012
X5.783Y-4.6293
X5.7838Y-5.5632
X5.785Y-4.4213
X5.7858Y-1.918
X5.7858Y-3.9819
X5.7889Y-5.144
X5.7909Y-4.936
X5.7919Y-2.4167
X5.7938Y-5.6952
X5.7957Y-3.4386
X5.7958Y-5.4872
X5.8045Y-2.9308
X5.812Y-1.518
X5.814Y-1.314
X5.82Y-1.442
X5.8218Y-2.02
X5.8218Y-4.0839
X5.8238Y-1.816
X5.8238Y-3.8799
X5.8279Y-2.5187
X5.8298Y-1.944
X5.8298Y-4.0079
X5.8299Y-2.3147
X5.8317Y-3.5406
X5.8337Y-3.3366
X5.8359Y-2.4427
X5.8397Y-3.4646
X5.8405Y-3.0328
X5.8425Y-2.8288
X5.8485Y-2.9568
X5.881Y-4.5993
X5.8869Y-5.114
X5.889Y-4.4713
X5.8918Y-5.6652
X5.8949Y-4.986
X5.8998Y-5.5372
X5.9213Y-1.5217
X5.9311Y-2.0236
X5.9311Y-4.0876
X5.9372Y-2.5224
X5.9409Y-3.5443
X5.9498Y-3.0364
X5.9508Y-1.5561
X5.9537Y-1.4311
X5.9537Y-1.4587
X5.9606Y-2.0581
X5.9606Y-4.122
X5.9636Y-1.9331
X5.9636Y-1.9606
X5.9636Y-3.997
X5.9636Y-4.0246
X5.9667Y-2.5569
X5.9697Y-2.4319
X5.9697Y-2.4594
X5.9705Y-3.5787
X5.9734Y-3.4537
X5.9734Y-3.4813
X5.9793Y-3.0709
X5.9803Y-1.5079
X5.9823Y-2.9459
X5.9823Y-2.9734
X5.9902Y-2.0098
X5.9902Y-4.0738
X5.9962Y-2.5086
X5.997Y-4.6193
X6.0Y-3.5305
X6.0029Y-5.134
X6.0078Y-5.6852
X6.0089Y-3.0226
X6.031Y-4.5193
X6.033Y-4.6013
X6.0354Y-2.6949
X6.0369Y-5.034
X6.0389Y-5.116
X6.0404Y-3.7018
X6.0418Y-5.5852
X6.0433Y-2.624
X6.0438Y-5.6672
X6.0482Y-3.2106
X6.0492Y-1.6201
X6.0492Y-1.686
X6.0502Y-2.2126
X6.0502Y-4.2313
X6.063Y-4.1368
X6.065Y-2.1191
X6.0699Y-3.1378
X6.0699Y-3.6368
X6.0906Y-1.3455
X6.0915Y-3.3691
X6.0945Y-1.8474
X6.0994Y-2.3455
X6.0994Y-3.9134
X6.1122Y-2.8602
X6.119Y-4.3313
X6.1191Y-1.7126
X6.1249Y-4.846
X6.1298Y-5.3972
X6.1319Y-4.251
X6.1329Y-3.7156
X6.151Y-4.5233
X6.1526Y-4.2894
X6.1565Y-1.7559
X6.1569Y-5.038
X6.1618Y-5.5892
X6.1683Y-3.7717
X6.1703Y-2.7185
X6.1713Y-1.3287
X6.1811Y-1.8307
X6.1811Y-3.8947
X6.1846Y-1.4067
X6.187Y-4.6253
X6.1872Y-2.3295
X6.189Y-4.4213
X6.1909Y-3.3514
X6.1917Y-1.9102
X6.1919Y-2.2274
X6.1929Y-5.14
X6.1937Y-2.4067
X6.1949Y-4.936
X6.195Y-4.5493
X6.1959Y-3.2136
X6.1969Y-3.9709
X6.1978Y-5.6912
X6.1998Y-2.8435
X6.1998Y-5.4872
X6.2009Y-5.064
X6.2058Y-5.6152
X6.2067Y-3.4299
X6.211Y-2.9213
X6.2116Y-2.2756
X6.2136Y-2.7598
X6.2157Y-2.5142
X6.2173Y-2.0134
X6.2272Y-4.0752
X6.2299Y-1.5063
X6.2303Y-3.2579
X6.2343Y-1.7591
X6.235Y-3.5335
X6.2358Y-1.7098
X6.2386Y-2.3811
X6.2386Y-2.7209
X6.2394Y-1.885
X6.2394Y-3.124
X6.2409Y-1.5815
X6.2409Y-2.2024
X6.2445Y-2.5669
X6.2465Y-3.4024
X6.2488Y-2.065
X6.2539Y-2.8941
X6.2547Y-2.2598
X6.2547Y-2.7614
X6.2555Y-3.2157
X6.2563Y-1.837
X6.2563Y-3.0272
X6.2575Y-3.6366
X6.2579Y-2.3075
X6.2634Y-3.2594
X6.2638Y-2.8138
X6.2638Y-3.3079
X6.2638Y-4.2512
X6.2654Y-3.9409
X6.2661Y-1.7098
X6.2661Y-1.7598
X6.2661Y-2.4579
X6.2673Y-3.811
X6.2673Y-4.0256
X6.2681Y-2.7217
X6.2681Y-3.7594
X6.2685Y-2.4024
X6.2685Y-3.9795
X6.2685Y-4.1039
X6.2713Y-1.9539
X6.272Y-1.9094
X6.272Y-3.7201
X6.2728Y-3.4811
X6.274Y-3.4331
X6.2764Y-4.2886
X6.278Y-2.2008
X6.2846Y-2.7606
X6.285Y-2.9142
X6.2858Y-2.9654
X6.2862Y-2.2445
X6.2866Y-3.2157
X6.2937Y-4.2512
X6.2941Y-1.7157
X6.2945Y-1.7614
X6.2945Y-3.2594
X6.2957Y-3.761
X6.2963Y-4.6289
X6.298Y-3.7201
X6.2984Y-2.7181
X6.3022Y-5.1437
X6.3024Y-4.289
X6.3071Y-5.6949
X6.3118Y-2.2039
X6.3118Y-2.7618
X6.3146Y-2.2445
X6.315Y-1.5232
X6.3193Y-3.215
X6.322Y-4.252
X6.3236Y-3.2598
X6.324Y-3.0161
X6.3244Y-3.7587
X6.3258Y-4.6634
X6.3264Y-3.7193
X6.3287Y-4.289
X6.3287Y-4.5384
X6.3287Y-4.5659
X6.3291Y-2.8146
X6.3317Y-5.1781
X6.3346Y-5.0531
X6.3346Y-5.0807
X6.3366Y-5.7293
X6.3396Y-5.6043
X6.3396Y-5.6319
X6.3553Y-4.6152
X6.3612Y-5.1299
X6.3661Y-5.6811
X6.4568Y-2.3731
X6.4596Y-5.5167
X6.4627Y-1.3603
X6.4627Y-1.8741
X6.4675Y-4.9675
X6.4725Y-2.8721
X6.4725Y-3.88
X6.4744Y-4.4518
X6.4784Y-3.3761
X6.4793Y-4.815
X6.4852Y-4.751
X6.4882Y-2.2864
X6.4953Y-1.2787
X6.4961Y-1.7825
X6.503Y-5.3583
X6.5079Y-5.3002
X6.5089Y-3.2874
X6.5098Y-2.7825
X6.5098Y-3.7854
X6.5118Y-4.812
X6.5402Y-2.3851
X6.5461Y-1.3723
X6.5461Y-1.8861
X6.5463Y-4.436
X6.5492Y-4.8396
X6.5522Y-4.9508
X6.5559Y-2.8841
X6.5559Y-3.892
X6.5571Y-5.502
X6.5602Y-4.5122
X6.5602Y-5.5803
X6.561Y-5.375
X6.5618Y-3.3881
X6.5709Y-5.4242
X6.5732Y-5.0311
X6.5742Y-2.3571
X6.5801Y-1.3443
X6.5801Y-1.8581
X6.5899Y-2.8561
X6.5899Y-3.864
X6.5958Y-3.3601
X6.5976Y-4.489
X6.5976Y-4.6213
X6.6016Y-5.1358
X6.6024Y-5.5555
X6.6035Y-4.3626
X6.6035Y-5.7594
X6.6138Y-5.7181
X6.6252Y-4.5165
X6.6283Y-4.5598
X6.6362Y-5.0276
X6.6362Y-5.0819
X6.6382Y-5.5807
X6.6382Y-5.626
X6.65Y-4.9756
X6.6575Y-5.9937
X6.6606Y-5.7177
X6.6626Y-4.8169
X6.6677Y-4.874
X6.6689Y-4.3626
X6.6689Y-4.6244
X6.6846Y-5.3563
X6.6862Y-2.4531
X6.6906Y-5.4217
X6.6921Y-1.4403
X6.6921Y-1.9541
X6.6942Y-2.6111
X6.6965Y-4.7681
X6.6988Y-5.9583
X6.6992Y-4.8142
X6.7001Y-1.5983
X6.7001Y-2.1121
X6.7004Y-4.6193
X6.7019Y-2.9521
X6.7019Y-3.96
X6.7051Y-5.0299
X6.7078Y-3.4561
X6.7099Y-3.1101
X6.7099Y-4.118
X6.7158Y-3.6141
X6.7169Y-5.1969
X6.7173Y-4.6752
X6.7177Y-5.3106
X6.7177Y-5.352
X6.7248Y-5.6417
X6.7319Y-4.7669
X6.735Y-4.8102
X6.75Y-5.3102
X6.7524Y-5.352
X6.8091Y-2.6368
X6.815Y-1.624
X6.815Y-2.1378
X6.8248Y-3.1358
X6.8248Y-4.1437
X6.8307Y-3.6398
X6.8366Y-2.6506
X6.8425Y-1.6378
X6.8425Y-2.1516
X6.8524Y-3.1496
X6.8524Y-4.1575
X6.8583Y-3.6535
X6.8879Y-4.3997
X6.8902Y-2.5291
X6.8922Y-2.4831
X6.8942Y-2.4171
X6.8961Y-1.5163
X6.8961Y-2.0301
X6.8977Y-4.9302
X6.8981Y-1.4703
X6.8981Y-1.9841
X6.9001Y-1.4043
X6.9001Y-1.9181
X6.9059Y-3.0281
X6.9059Y-4.036
X6.9079Y-2.9821
X6.9079Y-3.99
X6.9085Y-5.4814
X6.9099Y-2.9161
X6.9099Y-3.924
X6.9118Y-3.5321
X6.9138Y-3.4861
X6.9158Y-3.4201
X6.9203Y-4.3091
X6.9321Y-4.8356
X6.9409Y-5.3907
X6.9713Y-4.4117
X6.9811Y-4.9422
X6.9919Y-5.4934
X7.0042Y-2.5351
X7.0053Y-4.3837
X7.0101Y-1.5223
X7.0101Y-2.0361
X7.0122Y-2.5071
X7.0151Y-4.9142
X7.0181Y-1.4943
X7.0181Y-2.0081
X7.0199Y-3.0341
X7.0199Y-4.042
X7.0222Y-2.6391
X7.0242Y-2.4311
X7.0258Y-3.5381
X7.0259Y-5.4654
X7.0279Y-3.0061
X7.0279Y-4.014
X7.0281Y-1.6263
X7.0281Y-2.1401
X7.0301Y-1.4183
X7.0301Y-1.9321
X7.0338Y-3.5101
X7.0379Y-3.1381
X7.0379Y-4.146
X7.0399Y-2.9301
X7.0399Y-3.938
X7.0438Y-3.6421
X7.0458Y-3.4341
X7.1173Y-4.4797
X7.1202Y-2.6091
X7.1253Y-4.6377
X7.1261Y-1.5963
X7.1261Y-2.1101
X7.1271Y-5.0102
X7.1282Y-2.4811
X7.1341Y-1.4683
X7.1341Y-1.9821
X7.1351Y-5.1682
X7.1359Y-3.1081
X7.1359Y-4.116
X7.1379Y-5.5614
X7.1418Y-3.6121
X7.1439Y-2.9801
X7.1439Y-3.988
X7.1459Y-5.7194
X7.1498Y-3.4841
X7.2362Y-2.6291
X7.2402Y-4.6634
X7.2421Y-1.6163
X7.2421Y-2.1301
X7.25Y-5.1939
X7.2519Y-3.1281
X7.2519Y-4.136
X7.2578Y-3.6321
X7.2608Y-5.7451
X7.2677Y-4.6772
X7.2702Y-2.5291
X7.2722Y-2.6111
X7.2761Y-1.5163
X7.2761Y-2.0301
X7.2776Y-5.2077
X7.2781Y-1.5983
X7.2781Y-2.1121
X7.2859Y-3.0281
X7.2859Y-4.036
X7.2879Y-3.1101
X7.2879Y-4.118
X7.2884Y-5.7589
X7.2918Y-3.5321
X7.2938Y-3.6141
X7.3051Y-1.2594
X7.3213Y-4.5557
X7.3233Y-4.5097
X7.3253Y-4.4437
X7.3311Y-5.0862
X7.3331Y-5.0402
X7.3351Y-4.9742
X7.3419Y-5.6374
X7.3439Y-5.5914
X7.3459Y-5.5254
X7.3582Y-2.3411
X7.3641Y-1.3283
X7.3641Y-1.8421
X7.3739Y-2.8401
X7.3739Y-3.848
X7.3798Y-3.3441
X7.3902Y-2.5331
X7.3961Y-1.5203
X7.3961Y-2.0341
X7.4059Y-3.0321
X7.4059Y-4.04
X7.4118Y-3.5361
X7.4262Y-2.6351
X7.4282Y-2.4311
X7.4321Y-1.6223
X7.4321Y-2.1361
X7.4341Y-1.4183
X7.4341Y-1.9321
X7.4342Y-2.5591
X7.4353Y-4.5617
X7.4401Y-1.5463
X7.4401Y-2.0601
X7.4419Y-3.1341
X7.4419Y-4.142
X7.4433Y-4.5337
X7.4439Y-2.9301
X7.4439Y-3.938
X7.4451Y-5.0922
X7.4478Y-3.6381
X7.4498Y-3.4341
X7.4499Y-3.0581
X7.4499Y-4.066
X7.4531Y-5.0642
X7.4533Y-4.6657
X7.4553Y-4.4577
X7.4558Y-3.5621
X7.4559Y-5.6434
X7.4631Y-5.1962
X7.4639Y-5.6154
X7.4651Y-4.9882
X7.4739Y-5.7474
X7.4759Y-5.5394
X7.5354Y-2.6388
X7.5413Y-1.626
X7.5413Y-2.1398
X7.5512Y-3.1378
X7.5512Y-4.1457
X7.5513Y-4.6357
X7.5571Y-3.6417
X7.5593Y-4.5077
X7.5611Y-5.1662
X7.565Y-2.6732
X7.5679Y-2.5482
X7.5679Y-2.5758
X7.5691Y-5.0382
X7.5709Y-1.6604
X7.5709Y-2.1742
X7.5719Y-5.7174
X7.5738Y-1.5354
X7.5738Y-1.563
X7.5738Y-2.0492
X7.5738Y-2.0768
X7.5799Y-5.5894
X7.5807Y-3.1722
X7.5807Y-4.1801
X7.5837Y-3.0472
X7.5837Y-3.0748
X7.5837Y-4.0551
X7.5837Y-4.0827
X7.5866Y-3.6762
X7.5896Y-3.5512
X7.5896Y-3.5787
X7.5945Y-2.625
X7.6004Y-1.6122
X7.6004Y-2.126
X7.6102Y-3.124
X7.6102Y-4.1319
X7.6161Y-3.628
X7.6673Y-4.6557
X7.6771Y-5.1862
X7.6879Y-5.7374
X7.6978Y-2.2352
X7.6988Y-1.4528
X7.7008Y-2.4636
X7.7008Y-3.8455
X7.7013Y-4.5557
X7.7028Y-3.8957
X7.7033Y-4.6377
X7.7037Y-2.3002
X7.7067Y-1.9626
X7.7096Y-2.7854
X7.7111Y-5.0862
X7.7131Y-5.1682
X7.7175Y-2.9626
X7.7185Y-3.9715
X7.7215Y-3.3327
X7.7219Y-5.6374
X7.7239Y-5.7194
X7.7283Y-2.6959
X7.7303Y-3.4675
X7.751Y-1.7126
X7.751Y-1.7785
X7.7598Y-3.8209
X7.7638Y-2.7776
X7.7687Y-3.3445
X7.7726Y-3.3878
X7.7854Y-2.4459
X7.7874Y-2.8317
X7.7893Y-4.3677
X7.7894Y-2.2756
X7.7894Y-2.3238
X7.7902Y-2.5213
X7.7913Y-1.4331
X7.7913Y-1.9469
X7.7969Y-2.0256
X7.7991Y-4.8982
X7.8002Y-3.7756
X7.8012Y-2.9449
X7.8012Y-3.9528
X7.8055Y-3.0209
X7.8071Y-3.4488
X7.8091Y-3.2815
X7.8091Y-4.0323
X7.8099Y-5.4494
X7.8146Y-3.5264
X7.8213Y-4.5597
X7.8272Y-1.5094
X7.8311Y-5.0902
X7.8419Y-5.6414
X7.8484Y-1.7992
X7.8496Y-4.3413
X7.8571Y-3.835
X7.8573Y-4.6617
X7.8593Y-4.4577
X7.863Y-2.0295
X7.8638Y-2.5264
X7.8652Y-1.8543
X7.8653Y-4.5857
X7.8657Y-2.0693
X7.8665Y-2.574
X7.8671Y-5.1922
X7.8691Y-4.9882
X7.874Y-3.7933
X7.8751Y-5.1162
X7.8756Y-4.2945
X7.8779Y-5.7434
X7.8799Y-5.5394
X7.885Y-4.0165
X7.8859Y-5.6674
X7.8866Y-3.835
X7.8866Y-4.0732
X7.8925Y-3.5185
X7.8945Y-2.7783
X7.8945Y-3.0209
X7.8945Y-3.578
X7.8953Y-3.0709
X7.8961Y-3.2898
X7.8961Y-3.3331
X7.8969Y-1.7972
X7.8988Y-1.8429
X7.8988Y-2.8268
X7.9028Y-3.7933
X7.9114Y-2.2697
X7.9114Y-2.3154
X7.9209Y-2.7791
X7.9209Y-3.8331
X7.9217Y-3.3287
X7.924Y-3.287
X7.9299Y-1.8413
X7.9299Y-2.826
X7.9307Y-1.8
X7.935Y-3.7941
X7.9386Y-2.2677
X7.9386Y-2.3154
X7.9512Y-3.3303
X7.9528Y-2.7799
X7.9528Y-3.287
X7.9579Y-1.8
X7.9579Y-1.8421
X7.963Y-2.2669
X7.9638Y-2.8319
X7.9657Y-2.3138
X7.9665Y-4.6654
X7.9764Y-5.1959
X7.9872Y-5.747
X7.9961Y-4.6998
X7.999Y-4.5748
X7.999Y-4.6024
X8.001Y-4.3976
X8.0039Y-4.3524
X8.0059Y-5.2303
X8.0089Y-5.1053
X8.0089Y-5.1329
X8.0167Y-5.7815
X8.0197Y-5.6565
X8.0197Y-5.6841
X8.0256Y-4.6516
X8.0354Y-5.1821
X8.0454Y-3.4371
X8.0463Y-5.7333
X8.0513Y-2.4243
X8.0562Y-2.9332
X8.0581Y-1.9371
X8.0611Y-3.9578
X8.0641Y-1.3918
X8.0807Y-3.3445
X8.0866Y-2.8386
X8.0925Y-1.8445
X8.0965Y-3.8642
X8.0984Y-1.2963
X8.1014Y-2.3406
X8.1288Y-3.4491
X8.1347Y-2.4363
X8.1396Y-2.9452
X8.1416Y-1.9491
X8.1445Y-3.9698
X8.1457Y-4.4921
X8.1475Y-1.4038
X8.1545Y-5.0226
X8.1594Y-5.5699
X8.1628Y-3.4211
X8.1687Y-2.4083
X8.1736Y-2.9172
X8.1756Y-1.9211
X8.1785Y-3.9418
X8.1815Y-1.3758
X8.2165Y-4.4724
X8.2264Y-5.003
X8.2307Y-4.5508
X8.2343Y-5.0795
X8.2372Y-5.5541
X8.2476Y-5.6331
X8.2748Y-3.5171
X8.2807Y-2.5043
X8.2828Y-3.6751
X8.2856Y-3.0132
X8.2876Y-2.0171
X8.2887Y-2.6623
X8.2905Y-4.0378
X8.2935Y-1.4718
X8.2936Y-3.1712
X8.2956Y-2.1751
X8.298Y-4.6
X8.2985Y-4.1958
X8.2988Y-4.5551
X8.3015Y-1.6298
X8.3039Y-4.3559
X8.3039Y-4.4055
X8.3248Y-5.6374
X8.326Y-5.0799
X8.3268Y-5.1256
X8.328Y-5.6791
X8.3327Y-4.3575
X8.3406Y-4.4028
X8.3717Y-4.3575
X8.3795Y-4.4035
X8.3976Y-3.7008
X8.4035Y-2.688
X8.4085Y-3.1969
X8.4104Y-2.2008
X8.4134Y-4.2215
X8.4163Y-1.6555
X8.4228Y-5.8409
X8.4236Y-5.9173
X8.4252Y-3.7146
X8.4311Y-2.7018
X8.436Y-3.2106
X8.438Y-2.2146
X8.4409Y-4.2352
X8.4439Y-1.6693
X8.4788Y-3.5931
X8.4808Y-3.5471
X8.4828Y-3.4811
X8.4847Y-2.5803
X8.4867Y-2.5343
X8.4887Y-2.4683
X8.4896Y-3.0892
X8.4916Y-2.0931
X8.4916Y-3.0432
X8.4936Y-2.0471
X8.4936Y-2.9772
X8.4945Y-4.1138
X8.4956Y-1.9811
X8.4965Y-4.0678
X8.4975Y-1.5478
X8.4985Y-4.0018
X8.4995Y-1.5018
X8.5015Y-1.4358
X8.5217Y-5.6624
X8.5443Y-4.9341
X8.5558Y-5.1196
X8.5561Y-5.6329
X8.5581Y-4.9065
X8.5598Y-5.5236
X8.5657Y-5.9252
X8.5658Y-5.3336
X8.5699Y-5.6919
X8.5803Y-5.8421
X8.5838Y-4.7916
X8.5838Y-5.3696
X8.5858Y-5.2176
X8.5928Y-3.5991
X8.5987Y-2.5863
X8.6008Y-3.5711
X8.6036Y-3.0952
X8.6056Y-2.0991
X8.6067Y-2.5583
X8.6085Y-4.1198
X8.6108Y-3.7031
X8.6115Y-1.5538
X8.6116Y-3.0672
X8.6128Y-3.4951
X8.6136Y-2.0711
X8.6165Y-4.0918
X8.6167Y-2.6903
X8.6187Y-2.4823
X8.6191Y-5.6654
X8.6195Y-1.5258
X8.6216Y-3.1992
X8.6236Y-2.2031
X8.6236Y-2.9912
X8.6256Y-1.9951
X8.6265Y-4.2238
X8.6285Y-4.0158
X8.6287Y-5.9803
X8.6295Y-1.6578
X8.6295Y-6.0362
X8.6315Y-1.4498
X8.6358Y-5.5316
X8.6467Y-5.6654
X8.6516Y-5.9972
X8.6598Y-5.1016
X8.6618Y-5.4876
X8.6658Y-4.9876
X8.6658Y-5.3676
X8.6689Y-5.8878
X8.6701Y-6.039
X8.6878Y-5.1096
X8.6902Y-5.9732
X8.6925Y-5.9276
X8.7088Y-3.6731
X8.7118Y-4.9896
X8.7138Y-5.2256
X8.7147Y-2.6603
X8.7168Y-3.5451
X8.7196Y-3.1692
X8.7216Y-2.1731
X8.7227Y-2.5323
X8.7245Y-4.1938
X8.7275Y-1.6278
X8.7276Y-3.0412
X8.7296Y-2.0451
X8.7303Y-5.8031
X8.7325Y-4.0658
X8.7355Y-1.4998
X8.7418Y-4.7836
X8.749Y-5.8829
X8.7638Y-5.1216
X8.7638Y-5.5256
X8.7778Y-4.9916
X8.8098Y-4.6376
X8.8218Y-4.5542
X8.8248Y-3.6931
X8.8307Y-2.6803
X8.8356Y-3.1892
X8.8376Y-2.1931
X8.8378Y-4.6716
X8.8405Y-4.2138
X8.8435Y-1.6478
X8.8538Y-5.4556
X8.8588Y-3.5931
X8.8608Y-3.6751
X8.8647Y-2.5803
X8.8667Y-2.6623
X8.8696Y-3.0892
X8.8716Y-2.0931
X8.8716Y-3.1712
X8.8736Y-2.1751
X8.8745Y-4.1138
X8.8765Y-4.1958
X8.8775Y-1.5478
X8.8795Y-1.6298
X8.9144Y-4.5837
X8.9468Y-3.4051
X8.9527Y-2.3923
X8.9576Y-2.9012
X8.9596Y-1.9051
X8.9625Y-3.9258
X8.9655Y-1.3598
X8.9788Y-3.5971
X8.9847Y-2.5843
X8.9896Y-3.0932
X8.9916Y-2.0971
X8.9945Y-4.1178
X8.9975Y-1.5518
X9.0148Y-3.6991
X9.0168Y-3.4951
X9.0207Y-2.6863
X9.0227Y-2.4823
X9.0228Y-3.6231
X9.0256Y-3.1952
X9.0276Y-2.1991
X9.0276Y-2.9912
X9.0287Y-2.6103
X9.0296Y-1.9951
X9.0305Y-4.2198
X9.0325Y-4.0158
X9.0335Y-1.6538
X9.0336Y-3.1192
X9.0355Y-1.4498
X9.0356Y-2.1231
X9.0385Y-4.1438
X9.0415Y-1.5778
X9.124Y-3.7028
X9.1299Y-2.69
X9.1348Y-3.1988
X9.1368Y-2.2028
X9.1398Y-4.2234
X9.1427Y-1.6575
X9.1535Y-3.7372
X9.1565Y-3.6122
X9.1565Y-3.6398
X9.1594Y-2.7244
X9.1624Y-2.5994
X9.1624Y-2.627
X9.1644Y-3.2333
X9.1663Y-2.2372
X9.1673Y-3.1083
X9.1673Y-3.1358
X9.1693Y-2.1122
X9.1693Y-2.1398
X9.1693Y-4.2579
X9.1722Y-1.6919
X9.1722Y-4.1329
X9.1722Y-4.1604
X9.1752Y-1.5669
X9.1752Y-1.5945
X9.1831Y-3.689
X9.189Y-2.6762
X9.1939Y-3.185
X9.1959Y-2.189
X9.1988Y-4.2096
X9.2018Y-1.6437
X9.2854Y-4.0488
X9.2882Y-3.5276
X9.289Y-2.5126
X9.2913Y-2.0276
X9.311Y-1.4833
X9.3114Y-3.0248
X9.374Y-3.5098
X9.3799Y-2.497
X9.3848Y-3.0059
X9.3868Y-2.0098
X9.3898Y-4.0305
X9.3927Y-1.4646
X9.3957Y-3.5886
X9.3976Y-4.1106
X9.402Y-2.574
X9.402Y-3.0846
X9.4126Y-2.0894
X9.4161Y-1.5433
X9.4224Y-2.6803
X9.4252Y-2.5524
X9.4374Y-2.1921
X9.4406Y-2.0638
X9.4417Y-1.5185
X9.4417Y-3.1862
X9.4445Y-3.5646
X9.4559Y-3.0543
X9.4606Y-4.0866
X9.4634Y-3.6909
X9.4709Y-4.2169
X9.4811Y-2.6193
X9.4827Y-2.576
X9.4843Y-3.5894
X9.4862Y-3.0787
X9.487Y-3.6386
X9.4886Y-2.0894
X9.4929Y-2.1358
X9.4953Y-4.1547
X9.4965Y-4.1134
X9.5098Y-3.1185
X9.5543Y-3.039
X9.5618Y-3.6917
X9.5657Y-2.0567
X9.5657Y-2.6795
X9.5665Y-4.0484
T2
X4.808Y-1.346
X4.808Y-1.3854
X4.808Y-1.5083
X4.808Y-1.5477
X4.8178Y-1.848
X4.8178Y-1.8873
X4.8178Y-2.0103
X4.8178Y-2.0497
X4.8178Y-3.9119
X4.8178Y-3.9513
X4.8178Y-4.0743
X4.8178Y-4.1136
X4.8239Y-2.3467
X4.8239Y-2.3861
X4.8239Y-2.5091
X4.8239Y-2.5484
X4.8277Y-3.3686
X4.8277Y-3.408
X4.8277Y-3.531
X4.8277Y-3.5703
X4.8365Y-2.8608
X4.8365Y-2.9001
X4.8365Y-3.0231
X4.8365Y-3.0624
X4.946Y-1.3483
X4.946Y-1.3877
X4.946Y-1.506
X4.946Y-1.5454
X4.9558Y-1.8503
X4.9558Y-1.8897
X4.9558Y-2.008
X4.9558Y-2.0473
X4.9558Y-3.9143
X4.9558Y-3.9536
X4.9558Y-4.0719
X4.9558Y-4.1113
X4.9619Y-2.3491
X4.9619Y-2.3884
X4.9619Y-2.5067
X4.9619Y-2.5461
X4.9657Y-3.371
X4.9657Y-3.4103
X4.9657Y-3.5286
X4.9657Y-3.568
X4.9745Y-2.8631
X4.9745Y-2.9024
X4.9745Y-3.0208
X4.9745Y-3.0601
X5.183Y-4.4533
X5.183Y-4.4927
X5.183Y-4.6156
X5.183Y-4.655
X5.1889Y-4.968
X5.1889Y-5.0074
X5.1889Y-5.1304
X5.1889Y-5.1697
X5.1938Y-5.5192
X5.1938Y-5.5586
X5.1938Y-5.6815
X5.1938Y-5.7209
X5.321Y-4.4556
X5.321Y-4.495
X5.321Y-4.6133
X5.321Y-4.6527
X5.3269Y-4.9704
X5.3269Y-5.0097
X5.3269Y-5.128
X5.3269Y-5.1674
X5.3318Y-5.5215
X5.3318Y-5.5609
X5.3318Y-5.6792
X5.3318Y-5.7186
X6.4222Y-2.4631
X6.4222Y-2.5025
X6.4222Y-2.6254
X6.4222Y-2.6648
X6.4281Y-1.4503
X6.4281Y-1.4897
X6.4281Y-1.6126
X6.4281Y-1.652
X6.4281Y-1.9641
X6.4281Y-2.0035
X6.4281Y-2.1264
X6.4281Y-2.1658
X6.4379Y-2.9621
X6.4379Y-3.0015
X6.4379Y-3.1245
X6.4379Y-3.1638
X6.4379Y-3.97
X6.4379Y-4.0094
X6.4379Y-4.1323
X6.4379Y-4.1717
X6.4438Y-3.4661
X6.4438Y-3.5054
X6.4438Y-3.6284
X6.4438Y-3.6678
X6.5602Y-2.4654
X6.5602Y-2.5048
X6.5602Y-2.6231
X6.5602Y-2.6625
X6.5661Y-1.4526
X6.5661Y-1.492
X6.5661Y-1.6103
X6.5661Y-1.6497
X6.5661Y-1.9664
X6.5661Y-2.0058
X6.5661Y-2.1241
X6.5661Y-2.1635
X6.5759Y-2.9645
X6.5759Y-3.0038
X6.5759Y-3.1221
X6.5759Y-3.1615
X6.5759Y-3.9723
X6.5759Y-4.0117
X6.5759Y-4.13
X6.5759Y-4.1694
X6.5818Y-3.4684
X6.5818Y-3.5078
X6.5818Y-3.6261
X6.5818Y-3.6654
X6.8533Y-4.4897
X6.8533Y-4.5291
X6.8533Y-4.652
X6.8533Y-4.6914
X6.8631Y-5.0202
X6.8631Y-5.0596
X6.8631Y-5.1825
X6.8631Y-5.2219
X6.8739Y-5.5714
X6.8739Y-5.6108
X6.8739Y-5.7337
X6.8739Y-5.7731
X6.9913Y-4.492
X6.9913Y-4.5314
X6.9913Y-4.6497
X6.9913Y-4.6891
X7.0011Y-5.0225
X7.0011Y-5.0619
X7.0011Y-5.1802
X7.0011Y-5.2196
X7.0119Y-5.5737
X7.0119Y-5.6131
X7.0119Y-5.7314
X7.0119Y-5.7708
X8.0108Y-3.5271
X8.0108Y-3.5665
X8.0108Y-3.6894
X8.0108Y-3.7288
X8.0167Y-2.5143
X8.0167Y-2.5537
X8.0167Y-2.6766
X8.0167Y-2.716
X8.0216Y-3.0232
X8.0216Y-3.0625
X8.0216Y-3.1855
X8.0216Y-3.2249
X8.0236Y-2.0271
X8.0236Y-2.0665
X8.0236Y-2.1894
X8.0236Y-2.2288
X8.0265Y-4.0478
X8.0265Y-4.0871
X8.0265Y-4.2101
X8.0265Y-4.2495
X8.0295Y-1.4818
X8.0295Y-1.5212
X8.0295Y-1.6441
X8.0295Y-1.6835
X8.1488Y-3.5294
X8.1488Y-3.5688
X8.1488Y-3.6871
X8.1488Y-3.7265
X8.1547Y-2.5166
X8.1547Y-2.556
X8.1547Y-2.6743
X8.1547Y-2.7137
X8.1596Y-3.0255
X8.1596Y-3.0649
X8.1596Y-3.1832
X8.1596Y-3.2225
X8.1616Y-2.0294
X8.1616Y-2.0688
X8.1616Y-2.1871
X8.1616Y-2.2265
X8.1645Y-4.0501
X8.1645Y-4.0895
X8.1645Y-4.2078
X8.1645Y-4.2471
X8.1675Y-1.4841
X8.1675Y-1.5235
X8.1675Y-1.6418
X8.1675Y-1.6812
X8.5301Y-4.5196
X8.5324Y-4.6576
X8.5694Y-4.5196
X8.5718Y-4.6576
X8.6901Y-4.6576
X8.6924Y-4.5196
X8.7294Y-4.6576
X8.7318Y-4.5196
X9.0502Y-5.1683
X9.0502Y-5.2077
X9.0502Y-5.247
X9.0502Y-5.2864
X9.0502Y-5.3258
X9.0502Y-5.3652
X9.0502Y-5.4045
X9.0502Y-5.4439
X9.0502Y-5.4833
X9.0502Y-5.5226
X9.0502Y-5.562
X9.0502Y-5.6014
X9.0502Y-5.6407
X9.0502Y-5.6801
X9.0502Y-5.7195
X9.0502Y-5.7589
X9.0502Y-5.7982
X9.0502Y-5.8376
X9.0502Y-5.877
X9.0502Y-5.9163
X9.0896Y-5.1683
X9.0896Y-5.2077
X9.0896Y-5.247
X9.0896Y-5.2864
X9.0896Y-5.3258
X9.0896Y-5.3652
X9.0896Y-5.4045
X9.0896Y-5.4439
X9.0896Y-5.4833
X9.0896Y-5.5226
X9.0896Y-5.562
X9.0896Y-5.6014
X9.0896Y-5.6407
X9.0896Y-5.6801
X9.0896Y-5.7195
X9.0896Y-5.7589
X9.0896Y-5.7982
X9.0896Y-5.8376
X9.0896Y-5.877
X9.0896Y-5.9163
X9.1309Y-5.1683
X9.1309Y-5.2077
X9.1309Y-5.247
X9.1309Y-5.2864
X9.1309Y-5.3258
X9.1309Y-5.3652
X9.1309Y-5.4045
X9.1309Y-5.4439
X9.1309Y-5.4833
X9.1309Y-5.5226
X9.1309Y-5.562
X9.1309Y-5.6014
X9.1309Y-5.6407
X9.1309Y-5.6801
X9.1309Y-5.7195
X9.1309Y-5.7589
X9.1309Y-5.7982
X9.1309Y-5.8376
X9.1309Y-5.877
X9.1309Y-5.9163
X9.1703Y-5.1683
X9.1703Y-5.2077
X9.1703Y-5.247
X9.1703Y-5.2864
X9.1703Y-5.3258
X9.1703Y-5.3652
X9.1703Y-5.4045
X9.1703Y-5.4439
X9.1703Y-5.4833
X9.1703Y-5.5226
X9.1703Y-5.562
X9.1703Y-5.6014
X9.1703Y-5.6407
X9.1703Y-5.6801
X9.1703Y-5.7195
X9.1703Y-5.7589
X9.1703Y-5.7982
X9.1703Y-5.8376
X9.1703Y-5.877
X9.1703Y-5.9163
X9.2116Y-5.1683
X9.2116Y-5.2077
X9.2116Y-5.247
X9.2116Y-5.2864
X9.2116Y-5.3258
X9.2116Y-5.3652
X9.2116Y-5.4045
X9.2116Y-5.4439
X9.2116Y-5.4833
X9.2116Y-5.5226
X9.2116Y-5.562
X9.2116Y-5.6014
X9.2116Y-5.6407
X9.2116Y-5.6801
X9.2116Y-5.7195
X9.2116Y-5.7589
X9.2116Y-5.7982
X9.2116Y-5.8376
X9.2116Y-5.877
X9.2116Y-5.9163
X9.251Y-5.1683
X9.251Y-5.2077
X9.251Y-5.247
X9.251Y-5.2864
X9.251Y-5.3258
X9.251Y-5.3652
X9.251Y-5.4045
X9.251Y-5.4439
X9.251Y-5.4833
X9.251Y-5.5226
X9.251Y-5.562
X9.251Y-5.6014
X9.251Y-5.6407
X9.251Y-5.6801
X9.251Y-5.7195
X9.251Y-5.7589
X9.251Y-5.7982
X9.251Y-5.8376
X9.251Y-5.877
X9.251Y-5.9163
X9.2923Y-5.1683
X9.2923Y-5.2077
X9.2923Y-5.247
X9.2923Y-5.2864
X9.2923Y-5.3258
X9.2923Y-5.3652
X9.2923Y-5.4045
X9.2923Y-5.4439
X9.2923Y-5.4833
X9.2923Y-5.5226
X9.2923Y-5.562
X9.2923Y-5.6014
X9.2923Y-5.6407
X9.2923Y-5.6801
X9.2923Y-5.7195
X9.2923Y-5.7589
X9.2923Y-5.7982
X9.2923Y-5.8376
X9.2923Y-5.877
X9.2923Y-5.9163
X9.3317Y-5.1683
X9.3317Y-5.2077
X9.3317Y-5.247
X9.3317Y-5.2864
X9.3317Y-5.3258
X9.3317Y-5.3652
X9.3317Y-5.4045
X9.3317Y-5.4439
X9.3317Y-5.4833
X9.3317Y-5.5226
X9.3317Y-5.562
X9.3317Y-5.6014
X9.3317Y-5.6407
X9.3317Y-5.6801
X9.3317Y-5.7195
X9.3317Y-5.7589
X9.3317Y-5.7982
X9.3317Y-5.8376
X9.3317Y-5.877
X9.3317Y-5.9163
X9.372Y-4.3809
X9.372Y-4.4203
X9.372Y-4.4596
X9.372Y-4.499
X9.372Y-4.5384
X9.372Y-4.5778
X9.372Y-4.6171
X9.372Y-4.6565
X9.372Y-4.6959
X9.372Y-4.7352
X9.372Y-4.7746
X9.372Y-4.814
X9.372Y-4.8533
X9.372Y-4.8927
X9.372Y-4.9321
X9.372Y-4.9715
X9.372Y-5.0108
X9.372Y-5.0502
X9.372Y-5.0896
X9.372Y-5.1289
X9.373Y-5.1693
X9.373Y-5.2087
X9.373Y-5.248
X9.373Y-5.2874
X9.373Y-5.3268
X9.373Y-5.3661
X9.373Y-5.4055
X9.373Y-5.4449
X9.373Y-5.4843
X9.373Y-5.5236
X9.373Y-5.563
X9.373Y-5.6024
X9.373Y-5.6417
X9.373Y-5.6811
X9.373Y-5.7205
X9.373Y-5.7598
X9.373Y-5.7992
X9.373Y-5.8386
X9.373Y-5.878
X9.373Y-5.9173
X9.4114Y-4.3809
X9.4114Y-4.4203
X9.4114Y-4.4596
X9.4114Y-4.499
X9.4114Y-4.5384
X9.4114Y-4.5778
X9.4114Y-4.6171
X9.4114Y-4.6565
X9.4114Y-4.6959
X9.4114Y-4.7352
X9.4114Y-4.7746
X9.4114Y-4.814
X9.4114Y-4.8533
X9.4114Y-4.8927
X9.4114Y-4.9321
X9.4114Y-4.9715
X9.4114Y-5.0108
X9.4114Y-5.0502
X9.4114Y-5.0896
X9.4114Y-5.1289
X9.4124Y-5.1693
X9.4124Y-5.2087
X9.4124Y-5.248
X9.4124Y-5.2874
X9.4124Y-5.3268
X9.4124Y-5.3661
X9.4124Y-5.4055
X9.4124Y-5.4449
X9.4124Y-5.4843
X9.4124Y-5.5236
X9.4124Y-5.563
X9.4124Y-5.6024
X9.4124Y-5.6417
X9.4124Y-5.6811
X9.4124Y-5.7205
X9.4124Y-5.7598
X9.4124Y-5.7992
X9.4124Y-5.8386
X9.4124Y-5.878
X9.4124Y-5.9173
X9.4528Y-4.3809
X9.4528Y-4.4203
X9.4528Y-4.4596
X9.4528Y-4.499
X9.4528Y-4.5384
X9.4528Y-4.5778
X9.4528Y-4.6171
X9.4528Y-4.6565
X9.4528Y-4.6959
X9.4528Y-4.7352
X9.4528Y-4.7746
X9.4528Y-4.814
X9.4528Y-4.8533
X9.4528Y-4.8927
X9.4528Y-4.9321
X9.4528Y-4.9715
X9.4528Y-5.0108
X9.4528Y-5.0502
X9.4528Y-5.0896
X9.4528Y-5.1289
X9.4537Y-5.1693
X9.4537Y-5.2087
X9.4537Y-5.248
X9.4537Y-5.2874
X9.4537Y-5.3268
X9.4537Y-5.3661
X9.4537Y-5.4055
X9.4537Y-5.4449
X9.4537Y-5.4843
X9.4537Y-5.5236
X9.4537Y-5.563
X9.4537Y-5.6024
X9.4537Y-5.6417
X9.4537Y-5.6811
X9.4537Y-5.7205
X9.4537Y-5.7598
X9.4537Y-5.7992
X9.4537Y-5.8386
X9.4537Y-5.878
X9.4537Y-5.9173
X9.4921Y-4.3809
X9.4921Y-4.4203
X9.4921Y-4.4596
X9.4921Y-4.499
X9.4921Y-4.5384
X9.4921Y-4.5778
X9.4921Y-4.6171
X9.4921Y-4.6565
X9.4921Y-4.6959
X9.4921Y-4.7352
X9.4921Y-4.7746
X9.4921Y-4.814
X9.4921Y-4.8533
X9.4921Y-4.8927
X9.4921Y-4.9321
X9.4921Y-4.9715
X9.4921Y-5.0108
X9.4921Y-5.0502
X9.4921Y-5.0896
X9.4921Y-5.1289
X9.4931Y-5.1693
X9.4931Y-5.2087
X9.4931Y-5.248
X9.4931Y-5.2874
X9.4931Y-5.3268
X9.4931Y-5.3661
X9.4931Y-5.4055
X9.4931Y-5.4449
X9.4931Y-5.4843
X9.4931Y-5.5236
X9.4931Y-5.563
X9.4931Y-5.6024
X9.4931Y-5.6417
X9.4931Y-5.6811
X9.4931Y-5.7205
X9.4931Y-5.7598
X9.4931Y-5.7992
X9.4931Y-5.8386
X9.4931Y-5.878
X9.4931Y-5.9173
X9.5335Y-4.3809
X9.5335Y-4.4203
X9.5335Y-4.4596
X9.5335Y-4.499
X9.5335Y-4.5384
X9.5335Y-4.5778
X9.5335Y-4.6171
X9.5335Y-4.6565
X9.5335Y-4.6959
X9.5335Y-4.7352
X9.5335Y-4.7746
X9.5335Y-4.814
X9.5335Y-4.8533
X9.5335Y-4.8927
X9.5335Y-4.9321
X9.5335Y-4.9715
X9.5335Y-5.0108
X9.5335Y-5.0502
X9.5335Y-5.0896
X9.5335Y-5.1289
X9.5344Y-5.1693
X9.5344Y-5.2087
X9.5344Y-5.248
X9.5344Y-5.2874
X9.5344Y-5.3268
X9.5344Y-5.3661
X9.5344Y-5.4055
X9.5344Y-5.4449
X9.5344Y-5.4843
X9.5344Y-5.5236
X9.5344Y-5.563
X9.5344Y-5.6024
X9.5344Y-5.6417
X9.5344Y-5.6811
X9.5344Y-5.7205
X9.5344Y-5.7598
X9.5344Y-5.7992
X9.5344Y-5.8386
X9.5344Y-5.878
X9.5344Y-5.9173
X9.5728Y-4.3809
X9.5728Y-4.4203
X9.5728Y-4.4596
X9.5728Y-4.499
X9.5728Y-4.5384
X9.5728Y-4.5778
X9.5728Y-4.6171
X9.5728Y-4.6565
X9.5728Y-4.6959
X9.5728Y-4.7352
X9.5728Y-4.7746
X9.5728Y-4.814
X9.5728Y-4.8533
X9.5728Y-4.8927
X9.5728Y-4.9321
X9.5728Y-4.9715
X9.5728Y-5.0108
X9.5728Y-5.0502
X9.5728Y-5.0896
X9.5728Y-5.1289
X9.5738Y-5.1693
X9.5738Y-5.2087
X9.5738Y-5.248
X9.5738Y-5.2874
X9.5738Y-5.3268
X9.5738Y-5.3661
X9.5738Y-5.4055
X9.5738Y-5.4449
X9.5738Y-5.4843
X9.5738Y-5.5236
X9.5738Y-5.563
X9.5738Y-5.6024
X9.5738Y-5.6417
X9.5738Y-5.6811
X9.5738Y-5.7205
X9.5738Y-5.7598
X9.5738Y-5.7992
X9.5738Y-5.8386
X9.5738Y-5.878
X9.5738Y-5.9173
X9.6142Y-4.3809
X9.6142Y-4.4203
X9.6142Y-4.4596
X9.6142Y-4.499
X9.6142Y-4.5384
X9.6142Y-4.5778
X9.6142Y-4.6171
X9.6142Y-4.6565
X9.6142Y-4.6959
X9.6142Y-4.7352
X9.6142Y-4.7746
X9.6142Y-4.814
X9.6142Y-4.8533
X9.6142Y-4.8927
X9.6142Y-4.9321
X9.6142Y-4.9715
X9.6142Y-5.0108
X9.6142Y-5.0502
X9.6142Y-5.0896
X9.6142Y-5.1289
X9.6152Y-5.1693
X9.6152Y-5.2087
X9.6152Y-5.248
X9.6152Y-5.2874
X9.6152Y-5.3268
X9.6152Y-5.3661
X9.6152Y-5.4055
X9.6152Y-5.4449
X9.6152Y-5.4843
X9.6152Y-5.5236
X9.6152Y-5.563
X9.6152Y-5.6024
X9.6152Y-5.6417
X9.6152Y-5.6811
X9.6152Y-5.7205
X9.6152Y-5.7598
X9.6152Y-5.7992
X9.6152Y-5.8386
X9.6152Y-5.878
X9.6152Y-5.9173
X9.6535Y-4.3809
X9.6535Y-4.4203
X9.6535Y-4.4596
X9.6535Y-4.499
X9.6535Y-4.5384
X9.6535Y-4.5778
X9.6535Y-4.6171
X9.6535Y-4.6565
X9.6535Y-4.6959
X9.6535Y-4.7352
X9.6535Y-4.7746
X9.6535Y-4.814
X9.6535Y-4.8533
X9.6535Y-4.8927
X9.6535Y-4.9321
X9.6535Y-4.9715
X9.6535Y-5.0108
X9.6535Y-5.0502
X9.6535Y-5.0896
X9.6535Y-5.1289
X9.6545Y-5.1693
X9.6545Y-5.2087
X9.6545Y-5.248
X9.6545Y-5.2874
X9.6545Y-5.3268
X9.6545Y-5.3661
X9.6545Y-5.4055
X9.6545Y-5.4449
X9.6545Y-5.4843
X9.6545Y-5.5236
X9.6545Y-5.563
X9.6545Y-5.6024
X9.6545Y-5.6417
X9.6545Y-5.6811
X9.6545Y-5.7205
X9.6545Y-5.7598
X9.6545Y-5.7992
X9.6545Y-5.8386
X9.6545Y-5.878
X9.6545Y-5.9173
X9.6949Y-4.3809
X9.6949Y-4.4203
X9.6949Y-4.4596
X9.6949Y-4.499
X9.6949Y-4.5384
X9.6949Y-4.5778
X9.6949Y-4.6171
X9.6949Y-4.6565
X9.6949Y-4.6959
X9.6949Y-4.7352
X9.6949Y-4.7746
X9.6949Y-4.814
X9.6949Y-4.8533
X9.6949Y-4.8927
X9.6949Y-4.9321
X9.6949Y-4.9715
X9.6949Y-5.0108
X9.6949Y-5.0502
X9.6949Y-5.0896
X9.6949Y-5.1289
X9.6959Y-5.1693
X9.6959Y-5.2087
X9.6959Y-5.248
X9.6959Y-5.2874
X9.6959Y-5.3268
X9.6959Y-5.3661
X9.6959Y-5.4055
X9.6959Y-5.4449
X9.6959Y-5.4843
X9.6959Y-5.5236
X9.6959Y-5.563
X9.6959Y-5.6024
X9.6959Y-5.6417
X9.6959Y-5.6811
X9.6959Y-5.7205
X9.6959Y-5.7598
X9.6959Y-5.7992
X9.6959Y-5.8386
X9.6959Y-5.878
X9.6959Y-5.9173
X9.7343Y-4.3809
X9.7343Y-4.4203
X9.7343Y-4.4596
X9.7343Y-4.499
X9.7343Y-4.5384
X9.7343Y-4.5778
X9.7343Y-4.6171
X9.7343Y-4.6565
X9.7343Y-4.6959
X9.7343Y-4.7352
X9.7343Y-4.7746
X9.7343Y-4.814
X9.7343Y-4.8533
X9.7343Y-4.8927
X9.7343Y-4.9321
X9.7343Y-4.9715
X9.7343Y-5.0108
X9.7343Y-5.0502
X9.7343Y-5.0896
X9.7343Y-5.1289
X9.7352Y-5.1693
X9.7352Y-5.2087
X9.7352Y-5.248
X9.7352Y-5.2874
X9.7352Y-5.3268
X9.7352Y-5.3661
X9.7352Y-5.4055
X9.7352Y-5.4449
X9.7352Y-5.4843
X9.7352Y-5.5236
X9.7352Y-5.563
X9.7352Y-5.6024
X9.7352Y-5.6417
X9.7352Y-5.6811
X9.7352Y-5.7205
X9.7352Y-5.7598
X9.7352Y-5.7992
X9.7352Y-5.8386
X9.7352Y-5.878
X9.7352Y-5.9173
X9.7756Y-4.3809
X9.7756Y-4.4203
X9.7756Y-4.4596
X9.7756Y-4.499
X9.7756Y-4.5384
X9.7756Y-4.5778
X9.7756Y-4.6171
X9.7756Y-4.6565
X9.7756Y-4.6959
X9.7756Y-4.7352
X9.7756Y-4.7746
X9.7756Y-4.814
X9.7756Y-4.8533
X9.7756Y-4.8927
X9.7756Y-4.9321
X9.7756Y-4.9715
X9.7756Y-5.0108
X9.7756Y-5.0502
X9.7756Y-5.0896
X9.7756Y-5.1289
X9.7766Y-5.1693
X9.7766Y-5.2087
X9.7766Y-5.248
X9.7766Y-5.2874
X9.7766Y-5.3268
X9.7766Y-5.3661
X9.7766Y-5.4055
X9.7766Y-5.4449
X9.7766Y-5.4843
X9.7766Y-5.5236
X9.7766Y-5.563
X9.7766Y-5.6024
X9.7766Y-5.6417
X9.7766Y-5.6811
X9.7766Y-5.7205
X9.7766Y-5.7598
X9.7766Y-5.7992
X9.7766Y-5.8386
X9.7766Y-5.878
X9.7766Y-5.9173
X9.815Y-4.3809
X9.815Y-4.4203
X9.815Y-4.4596
X9.815Y-4.499
X9.815Y-4.5384
X9.815Y-4.5778
X9.815Y-4.6171
X9.815Y-4.6565
X9.815Y-4.6959
X9.815Y-4.7352
X9.815Y-4.7746
X9.815Y-4.814
X9.815Y-4.8533
X9.815Y-4.8927
X9.815Y-4.9321
X9.815Y-4.9715
X9.815Y-5.0108
X9.815Y-5.0502
X9.815Y-5.0896
X9.815Y-5.1289
X9.8159Y-5.1693
X9.8159Y-5.2087
X9.8159Y-5.248
X9.8159Y-5.2874
X9.8159Y-5.3268
X9.8159Y-5.3661
X9.8159Y-5.4055
X9.8159Y-5.4449
X9.8159Y-5.4843
X9.8159Y-5.5236
X9.8159Y-5.563
X9.8159Y-5.6024
X9.8159Y-5.6417
X9.8159Y-5.6811
X9.8159Y-5.7205
X9.8159Y-5.7598
X9.8159Y-5.7992
X9.8159Y-5.8386
X9.8159Y-5.878
X9.8159Y-5.9173
X9.8563Y-4.3809
X9.8563Y-4.4203
X9.8563Y-4.4596
X9.8563Y-4.499
X9.8563Y-4.5384
X9.8563Y-4.5778
X9.8563Y-4.6171
X9.8563Y-4.6565
X9.8563Y-4.6959
X9.8563Y-4.7352
X9.8563Y-4.7746
X9.8563Y-4.814
X9.8563Y-4.8533
X9.8563Y-4.8927
X9.8563Y-4.9321
X9.8563Y-4.9715
X9.8563Y-5.0108
X9.8563Y-5.0502
X9.8563Y-5.0896
X9.8563Y-5.1289
X9.8573Y-5.1693
X9.8573Y-5.2087
X9.8573Y-5.248
X9.8573Y-5.2874
X9.8573Y-5.3268
X9.8573Y-5.3661
X9.8573Y-5.4055
X9.8573Y-5.4449
X9.8573Y-5.4843
X9.8573Y-5.5236
X9.8573Y-5.563
X9.8573Y-5.6024
X9.8573Y-5.6417
X9.8573Y-5.6811
X9.8573Y-5.7205
X9.8573Y-5.7598
X9.8573Y-5.7992
X9.8573Y-5.8386
X9.8573Y-5.878
X9.8573Y-5.9173
X9.8957Y-4.3809
X9.8957Y-4.4203
X9.8957Y-4.4596
X9.8957Y-4.499
X9.8957Y-4.5384
X9.8957Y-4.5778
X9.8957Y-4.6171
X9.8957Y-4.6565
X9.8957Y-4.6959
X9.8957Y-4.7352
X9.8957Y-4.7746
X9.8957Y-4.814
X9.8957Y-4.8533
X9.8957Y-4.8927
X9.8957Y-4.9321
X9.8957Y-4.9715
X9.8957Y-5.0108
X9.8957Y-5.0502
X9.8957Y-5.0896
X9.8957Y-5.1289
X9.8967Y-5.1693
X9.8967Y-5.2087
X9.8967Y-5.248
X9.8967Y-5.2874
X9.8967Y-5.3268
X9.8967Y-5.3661
X9.8967Y-5.4055
X9.8967Y-5.4449
X9.8967Y-5.4843
X9.8967Y-5.5236
X9.8967Y-5.563
X9.8967Y-5.6024
X9.8967Y-5.6417
X9.8967Y-5.6811
X9.8967Y-5.7205
X9.8967Y-5.7598
X9.8967Y-5.7992
X9.8967Y-5.8386
X9.8967Y-5.878
X9.8967Y-5.9173
X9.937Y-4.3809
X9.937Y-4.4203
X9.937Y-4.4596
X9.937Y-4.499
X9.937Y-4.5384
X9.937Y-4.5778
X9.937Y-4.6171
X9.937Y-4.6565
X9.937Y-4.6959
X9.937Y-4.7352
X9.937Y-4.7746
X9.937Y-4.814
X9.937Y-4.8533
X9.937Y-4.8927
X9.937Y-4.9321
X9.937Y-4.9715
X9.937Y-5.0108
X9.937Y-5.0502
X9.937Y-5.0896
X9.937Y-5.1289
X9.938Y-5.1693
X9.938Y-5.2087
X9.938Y-5.248
X9.938Y-5.2874
X9.938Y-5.3268
X9.938Y-5.3661
X9.938Y-5.4055
X9.938Y-5.4449
X9.938Y-5.4843
X9.938Y-5.5236
X9.938Y-5.563
X9.938Y-5.6024
X9.938Y-5.6417
X9.938Y-5.6811
X9.938Y-5.7205
X9.938Y-5.7598
X9.938Y-5.7992
X9.938Y-5.8386
X9.938Y-5.878
X9.938Y-5.9173
X9.9764Y-4.3809
X9.9764Y-4.4203
X9.9764Y-4.4596
X9.9764Y-4.499
X9.9764Y-4.5384
X9.9764Y-4.5778
X9.9764Y-4.6171
X9.9764Y-4.6565
X9.9764Y-4.6959
X9.9764Y-4.7352
X9.9764Y-4.7746
X9.9764Y-4.814
X9.9764Y-4.8533
X9.9764Y-4.8927
X9.9764Y-4.9321
X9.9764Y-4.9715
X9.9764Y-5.0108
X9.9764Y-5.0502
X9.9764Y-5.0896
X9.9764Y-5.1289
X9.9774Y-5.1693
X9.9774Y-5.2087
X9.9774Y-5.248
X9.9774Y-5.2874
X9.9774Y-5.3268
X9.9774Y-5.3661
X9.9774Y-5.4055
X9.9774Y-5.4449
X9.9774Y-5.4843
X9.9774Y-5.5236
X9.9774Y-5.563
X9.9774Y-5.6024
X9.9774Y-5.6417
X9.9774Y-5.6811
X9.9774Y-5.7205
X9.9774Y-5.7598
X9.9774Y-5.7992
X9.9774Y-5.8386
X9.9774Y-5.878
X9.9774Y-5.9173
T3
X8.7008Y-6.1445
X8.7008Y-6.2941
T4
X1.91Y-4.47
X2.01Y-4.47
X2.11Y-4.47
X2.21Y-4.47
X2.27Y-6.37
X2.31Y-4.47
X2.37Y-6.37
X2.41Y-4.47
X2.47Y-6.37
X2.51Y-4.47
X2.57Y-6.37
X2.61Y-4.47
X2.67Y-6.37
X2.71Y-4.47
X2.77Y-6.37
X2.81Y-4.47
X2.87Y-6.37
X2.97Y-4.47
X2.97Y-6.37
X3.07Y-4.47
X3.17Y-4.47
X3.17Y-6.37
X3.27Y-4.47
X3.27Y-6.37
X3.37Y-4.47
X3.37Y-6.37
X3.47Y-4.47
X3.47Y-6.37
X3.57Y-4.47
X3.57Y-6.37
X3.67Y-4.47
X3.67Y-6.37
X3.675Y-5.27
X3.675Y-5.37
X3.675Y-5.47
X3.77Y-6.37
X3.775Y-5.27
X3.775Y-5.37
X3.775Y-5.47
X3.87Y-4.47
X3.87Y-6.37
X3.97Y-4.47
X4.07Y-4.47
X4.07Y-6.37
X4.17Y-4.47
X4.17Y-6.37
X4.27Y-4.47
X4.27Y-6.37
X4.37Y-4.47
X4.37Y-6.37
X4.47Y-4.47
X4.47Y-6.37
X4.57Y-4.47
X4.57Y-6.37
X4.67Y-6.37
X4.77Y-6.37
X4.87Y-4.47
X4.87Y-4.57
X4.87Y-4.67
X4.87Y-4.77
X4.87Y-4.87
X4.87Y-4.97
X4.87Y-5.07
X4.87Y-5.17
X4.87Y-5.27
X4.87Y-5.37
X4.87Y-5.47
X4.87Y-5.57
X4.87Y-5.67
X4.87Y-5.77
X4.87Y-5.87
X4.87Y-5.97
X4.87Y-6.07
X4.87Y-6.17
X4.97Y-4.47
X4.97Y-4.57
X4.97Y-4.67
X4.97Y-4.77
X4.97Y-4.87
X4.97Y-4.97
X4.97Y-5.07
X4.97Y-5.17
X4.97Y-5.27
X4.97Y-5.37
X4.97Y-5.47
X4.97Y-5.57
X4.97Y-5.67
X4.97Y-5.77
X4.97Y-5.87
X4.97Y-5.97
X4.97Y-6.07
X4.97Y-6.17
T5
X1.2531Y-3.5789
X1.2561Y-3.2629
X1.2591Y-1.7169
X1.262Y-2.024
X1.2621Y-3.8959
X1.2651Y-1.3809
X1.2651Y-2.9659
X1.2651Y-4.2149
X1.268Y-2.324
X1.268Y-2.644
X1.4341Y-3.3979
X1.4371Y-3.0819
X1.4401Y-1.5359
X1.443Y-1.843
X1.4431Y-3.7149
X1.4461Y-1.1999
X1.4461Y-2.7849
X1.4461Y-4.0339
X1.449Y-2.143
X1.449Y-2.463
X1.568Y-1.708
X1.575Y-2.65
X1.578Y-1.394
X1.578Y-2.018
X1.578Y-2.334
X1.5791Y-4.2119
X1.5821Y-2.9689
X1.5821Y-3.5829
X1.5821Y-3.9019
X1.5851Y-3.2629
X1.749Y-1.527
X1.756Y-2.469
X1.759Y-1.213
X1.759Y-1.837
X1.759Y-2.153
X1.7601Y-4.0309
X1.7631Y-2.7879
X1.7631Y-3.4019
X1.7631Y-3.7209
X1.7661Y-3.0819
X1.8791Y-2.9629
X1.885Y-1.404
X1.891Y-1.704
X1.891Y-2.014
X1.8921Y-4.2249
X1.894Y-2.644
X1.8951Y-3.2659
X1.8951Y-3.5789
X1.897Y-2.321
X1.8981Y-3.9089
X2.0601Y-2.7819
X2.066Y-1.223
X2.072Y-1.523
X2.072Y-1.833
X2.0731Y-4.0439
X2.075Y-2.463
X2.0761Y-3.0849
X2.0761Y-3.3979
X2.078Y-2.14
X2.0791Y-3.7279
X2.2021Y-3.5919
X2.2021Y-4.2219
X2.204Y-1.711
X2.2081Y-3.9089
X2.211Y-1.385
X2.211Y-2.321
X2.211Y-2.644
X2.2111Y-2.9719
X2.2111Y-3.2659
X2.217Y-2.021
X2.3831Y-3.4109
X2.3831Y-4.0409
X2.385Y-1.53
X2.3891Y-3.7279
X2.392Y-1.204
X2.392Y-2.14
X2.392Y-2.463
X2.3921Y-2.7909
X2.3921Y-3.0849
X2.398Y-1.84
X2.514Y-2.331
X2.5151Y-2.9659
X2.5151Y-3.9089
X2.5151Y-4.2119
X2.517Y-1.714
X2.521Y-1.391
X2.5211Y-3.2689
X2.524Y-2.653
X2.53Y-2.014
X2.5311Y-3.5949
X2.695Y-2.15
X2.6961Y-2.7849
X2.6961Y-3.7279
X2.6961Y-4.0309
X2.698Y-1.533
X2.702Y-1.21
X2.7021Y-3.0879
X2.705Y-2.472
X2.711Y-1.833
X2.7121Y-3.4139
X2.827Y-2.027
X2.827Y-2.331
X2.8281Y-4.2249
X2.8311Y-2.9689
X2.834Y-1.698
X2.834Y-2.657
X2.8341Y-3.2759
X2.8381Y-3.5919
X2.847Y-1.404
X2.8471Y-3.8989
X3.008Y-1.846
X3.008Y-2.15
X3.0091Y-4.0439
X3.0121Y-2.7879
X3.015Y-1.517
X3.015Y-2.476
X3.0151Y-3.0949
X3.0191Y-3.4109
X3.028Y-1.223
X3.0281Y-3.7179
X3.1381Y-2.9719
X3.144Y-2.014
X3.1441Y-3.5889
X3.147Y-2.65
X3.15Y-1.708
X3.15Y-2.344
X3.1541Y-3.2789
X3.157Y-1.394
X3.1571Y-3.9049
X3.1571Y-4.2149
X3.3191Y-2.7909
X3.325Y-1.833
X3.3251Y-3.4079
X3.328Y-2.469
X3.331Y-1.527
X3.331Y-2.163
X3.3351Y-3.0979
X3.338Y-1.213
X3.3381Y-3.7239
X3.3381Y-4.0339
X3.454Y-2.647
X3.4611Y-2.9659
X3.4701Y-3.5919
X3.4701Y-3.9019
X3.473Y-1.398
X3.473Y-1.701
X3.473Y-2.014
X3.473Y-2.331
X3.4771Y-3.2789
X3.4771Y-4.2249
X3.635Y-2.466
X3.6421Y-2.7849
X3.6511Y-3.4109
X3.6511Y-3.7209
X3.654Y-1.217
X3.654Y-1.52
X3.654Y-1.833
X3.654Y-2.15
X3.6581Y-3.0979
X3.6581Y-4.0439
X3.7771Y-2.6529
X3.7771Y-2.9689
X3.7771Y-3.9089
X3.78Y-2.324
X3.7841Y-3.2789
X3.7841Y-4.2179
X3.786Y-1.388
X3.786Y-2.014
X3.792Y-1.701
X3.7931Y-3.5989
X3.9581Y-2.4719
X3.9581Y-2.7879
X3.9581Y-3.7279
X3.961Y-2.143
X3.9651Y-3.0979
X3.9651Y-4.0369
X3.967Y-1.207
X3.967Y-1.833
X3.973Y-1.52
X3.9741Y-3.4179
X4.0871Y-2.9689
X4.0901Y-2.6619
X4.093Y-2.327
X4.0931Y-3.2859
X4.0971Y-3.5919
X4.0971Y-3.9019
X4.1031Y-4.2309
X4.106Y-1.391
X4.106Y-1.682
X4.112Y-2.024
X4.2681Y-2.7879
X4.2711Y-2.4809
X4.274Y-2.146
X4.2741Y-3.1049
X4.2781Y-3.4109
X4.2781Y-3.7209
X4.2841Y-4.0499
X4.287Y-1.21
X4.287Y-1.501
X4.293Y-1.843
T6
X9.5217Y-6.1949
X9.7185Y-6.1949
M30
