%TF.GenerationSoftware,KiCad,Pcbnew,7.0.11+dfsg-1build4*%
%TF.CreationDate,2026-05-12T16:08:46+01:00*%
%TF.ProjectId,kikad,6b696b61-642e-46b6-9963-61645f706362,rev?*%
%TF.SameCoordinates,Original*%
%TF.FileFunction,Paste,Top*%
%TF.FilePolarity,Positive*%
%FSLAX46Y46*%
G04 Gerber Fmt 4.6, Leading zero omitted, Abs format (unit mm)*
G04 Created by KiCad (PCBNEW 7.0.11+dfsg-1build4) date 2026-05-12 16:08:46*
%MOMM*%
%LPD*%
G01*
G04 APERTURE LIST*
G04 Aperture macros list*
%AMRoundRect*
0 Rectangle with rounded corners*
0 $1 Rounding radius*
0 $2 $3 $4 $5 $6 $7 $8 $9 X,Y pos of 4 corners*
0 Add a 4 corners polygon primitive as box body*
4,1,4,$2,$3,$4,$5,$6,$7,$8,$9,$2,$3,0*
0 Add four circle primitives for the rounded corners*
1,1,$1+$1,$2,$3*
1,1,$1+$1,$4,$5*
1,1,$1+$1,$6,$7*
1,1,$1+$1,$8,$9*
0 Add four rect primitives between the rounded corners*
20,1,$1+$1,$2,$3,$4,$5,0*
20,1,$1+$1,$4,$5,$6,$7,0*
20,1,$1+$1,$6,$7,$8,$9,0*
20,1,$1+$1,$8,$9,$2,$3,0*%
G04 Aperture macros list end*
%ADD10RoundRect,0.250001X-0.354999X-0.354999X0.354999X-0.354999X0.354999X0.354999X-0.354999X0.354999X0*%
%ADD11RoundRect,0.100000X-0.675000X-0.100000X0.675000X-0.100000X0.675000X0.100000X-0.675000X0.100000X0*%
%ADD12RoundRect,0.225000X0.106066X-0.424264X0.424264X-0.106066X-0.106066X0.424264X-0.424264X0.106066X0*%
%ADD13R,1.750000X0.450000*%
%ADD14R,1.300000X1.500000*%
%ADD15R,1.500000X1.300000*%
%ADD16RoundRect,0.250001X-0.354999X0.354999X-0.354999X-0.354999X0.354999X-0.354999X0.354999X0.354999X0*%
%ADD17RoundRect,0.100000X-0.100000X0.675000X-0.100000X-0.675000X0.100000X-0.675000X0.100000X0.675000X0*%
%ADD18R,0.450000X1.750000*%
G04 APERTURE END LIST*
D10*
%TO.C,Serial*%
X195345600Y-89156000D03*
X195345600Y-90656000D03*
X196845600Y-89156000D03*
X196845600Y-90656000D03*
D11*
X193220600Y-87631000D03*
X193220600Y-88281000D03*
X193220600Y-88931000D03*
X193220600Y-89581000D03*
X193220600Y-90231000D03*
X193220600Y-90881000D03*
X193220600Y-91531000D03*
X193220600Y-92181000D03*
X198970600Y-92181000D03*
X198970600Y-91531000D03*
X198970600Y-90881000D03*
X198970600Y-90231000D03*
X198970600Y-89581000D03*
X198970600Y-88931000D03*
X198970600Y-88281000D03*
X198970600Y-87631000D03*
%TD*%
D10*
%TO.C,Serial*%
X154520600Y-73781000D03*
X154520600Y-75281000D03*
X156020600Y-73781000D03*
X156020600Y-75281000D03*
D11*
X152395600Y-72256000D03*
X152395600Y-72906000D03*
X152395600Y-73556000D03*
X152395600Y-74206000D03*
X152395600Y-74856000D03*
X152395600Y-75506000D03*
X152395600Y-76156000D03*
X152395600Y-76806000D03*
X158145600Y-76806000D03*
X158145600Y-76156000D03*
X158145600Y-75506000D03*
X158145600Y-74856000D03*
X158145600Y-74206000D03*
X158145600Y-73556000D03*
X158145600Y-72906000D03*
X158145600Y-72256000D03*
%TD*%
D12*
%TO.C,d*%
X83161274Y-108634126D03*
X85494726Y-106300674D03*
%TD*%
D10*
%TO.C,Serial*%
X154045600Y-100481000D03*
X154045600Y-101981000D03*
X155545600Y-100481000D03*
X155545600Y-101981000D03*
D11*
X151920600Y-98956000D03*
X151920600Y-99606000D03*
X151920600Y-100256000D03*
X151920600Y-100906000D03*
X151920600Y-101556000D03*
X151920600Y-102206000D03*
X151920600Y-102856000D03*
X151920600Y-103506000D03*
X157670600Y-103506000D03*
X157670600Y-102856000D03*
X157670600Y-102206000D03*
X157670600Y-101556000D03*
X157670600Y-100906000D03*
X157670600Y-100256000D03*
X157670600Y-99606000D03*
X157670600Y-98956000D03*
%TD*%
D13*
%TO.C,M1*%
X171258000Y-61096600D03*
X171258000Y-61746600D03*
X171258000Y-62396600D03*
X171258000Y-63046600D03*
X171258000Y-63696600D03*
X171258000Y-64346600D03*
X171258000Y-64996600D03*
X171258000Y-65646600D03*
X171258000Y-66296600D03*
X171258000Y-66946600D03*
X171258000Y-67596600D03*
X171258000Y-68246600D03*
X178458000Y-68246600D03*
X178458000Y-67596600D03*
X178458000Y-66946600D03*
X178458000Y-66296600D03*
X178458000Y-65646600D03*
X178458000Y-64996600D03*
X178458000Y-64346600D03*
X178458000Y-63696600D03*
X178458000Y-63046600D03*
X178458000Y-62396600D03*
X178458000Y-61746600D03*
X178458000Y-61096600D03*
%TD*%
D12*
%TO.C,d*%
X108002474Y-52449326D03*
X110335926Y-50115874D03*
%TD*%
%TO.C,d*%
X43562674Y-60247126D03*
X45896126Y-57913674D03*
%TD*%
D14*
%TO.C,C2*%
X204502000Y-61577400D03*
X206402000Y-61577400D03*
%TD*%
D10*
%TO.C,Serial*%
X154295600Y-86681000D03*
X154295600Y-88181000D03*
X155795600Y-86681000D03*
X155795600Y-88181000D03*
D11*
X152170600Y-85156000D03*
X152170600Y-85806000D03*
X152170600Y-86456000D03*
X152170600Y-87106000D03*
X152170600Y-87756000D03*
X152170600Y-88406000D03*
X152170600Y-89056000D03*
X152170600Y-89706000D03*
X157920600Y-89706000D03*
X157920600Y-89056000D03*
X157920600Y-88406000D03*
X157920600Y-87756000D03*
X157920600Y-87106000D03*
X157920600Y-86456000D03*
X157920600Y-85806000D03*
X157920600Y-85156000D03*
%TD*%
D12*
%TO.C,d*%
X35434674Y-108303926D03*
X37768126Y-105970474D03*
%TD*%
D13*
%TO.C,M1*%
X171658000Y-73771600D03*
X171658000Y-74421600D03*
X171658000Y-75071600D03*
X171658000Y-75721600D03*
X171658000Y-76371600D03*
X171658000Y-77021600D03*
X171658000Y-77671600D03*
X171658000Y-78321600D03*
X171658000Y-78971600D03*
X171658000Y-79621600D03*
X171658000Y-80271600D03*
X171658000Y-80921600D03*
X178858000Y-80921600D03*
X178858000Y-80271600D03*
X178858000Y-79621600D03*
X178858000Y-78971600D03*
X178858000Y-78321600D03*
X178858000Y-77671600D03*
X178858000Y-77021600D03*
X178858000Y-76371600D03*
X178858000Y-75721600D03*
X178858000Y-75071600D03*
X178858000Y-74421600D03*
X178858000Y-73771600D03*
%TD*%
D10*
%TO.C,Serial*%
X205995600Y-128631000D03*
X205995600Y-130131000D03*
X207495600Y-128631000D03*
X207495600Y-130131000D03*
D11*
X203870600Y-127106000D03*
X203870600Y-127756000D03*
X203870600Y-128406000D03*
X203870600Y-129056000D03*
X203870600Y-129706000D03*
X203870600Y-130356000D03*
X203870600Y-131006000D03*
X203870600Y-131656000D03*
X209620600Y-131656000D03*
X209620600Y-131006000D03*
X209620600Y-130356000D03*
X209620600Y-129706000D03*
X209620600Y-129056000D03*
X209620600Y-128406000D03*
X209620600Y-127756000D03*
X209620600Y-127106000D03*
%TD*%
D12*
%TO.C,d*%
X67083074Y-44600726D03*
X69416526Y-42267274D03*
%TD*%
D14*
%TO.C,C2*%
X204752000Y-100527400D03*
X206652000Y-100527400D03*
%TD*%
%TO.C,C2*%
X123502000Y-83277400D03*
X125402000Y-83277400D03*
%TD*%
%TO.C,C2*%
X175477000Y-139227400D03*
X177377000Y-139227400D03*
%TD*%
D13*
%TO.C,M1*%
X212083000Y-36171600D03*
X212083000Y-36821600D03*
X212083000Y-37471600D03*
X212083000Y-38121600D03*
X212083000Y-38771600D03*
X212083000Y-39421600D03*
X212083000Y-40071600D03*
X212083000Y-40721600D03*
X212083000Y-41371600D03*
X212083000Y-42021600D03*
X212083000Y-42671600D03*
X212083000Y-43321600D03*
X219283000Y-43321600D03*
X219283000Y-42671600D03*
X219283000Y-42021600D03*
X219283000Y-41371600D03*
X219283000Y-40721600D03*
X219283000Y-40071600D03*
X219283000Y-39421600D03*
X219283000Y-38771600D03*
X219283000Y-38121600D03*
X219283000Y-37471600D03*
X219283000Y-36821600D03*
X219283000Y-36171600D03*
%TD*%
%TO.C,M2*%
X221962000Y-62360200D03*
X221962000Y-63010200D03*
X221962000Y-63660200D03*
X221962000Y-64310200D03*
X221962000Y-64960200D03*
X221962000Y-65610200D03*
X221962000Y-66260200D03*
X221962000Y-66910200D03*
X221962000Y-67560200D03*
X221962000Y-68210200D03*
X221962000Y-68860200D03*
X221962000Y-69510200D03*
X229162000Y-69510200D03*
X229162000Y-68860200D03*
X229162000Y-68210200D03*
X229162000Y-67560200D03*
X229162000Y-66910200D03*
X229162000Y-66260200D03*
X229162000Y-65610200D03*
X229162000Y-64960200D03*
X229162000Y-64310200D03*
X229162000Y-63660200D03*
X229162000Y-63010200D03*
X229162000Y-62360200D03*
%TD*%
%TO.C,M2*%
X181862000Y-99335200D03*
X181862000Y-99985200D03*
X181862000Y-100635200D03*
X181862000Y-101285200D03*
X181862000Y-101935200D03*
X181862000Y-102585200D03*
X181862000Y-103235200D03*
X181862000Y-103885200D03*
X181862000Y-104535200D03*
X181862000Y-105185200D03*
X181862000Y-105835200D03*
X181862000Y-106485200D03*
X189062000Y-106485200D03*
X189062000Y-105835200D03*
X189062000Y-105185200D03*
X189062000Y-104535200D03*
X189062000Y-103885200D03*
X189062000Y-103235200D03*
X189062000Y-102585200D03*
X189062000Y-101935200D03*
X189062000Y-101285200D03*
X189062000Y-100635200D03*
X189062000Y-99985200D03*
X189062000Y-99335200D03*
%TD*%
D14*
%TO.C,C2*%
X143822000Y-82312200D03*
X145722000Y-82312200D03*
%TD*%
D12*
%TO.C,d*%
X59285274Y-76655526D03*
X61618726Y-74322074D03*
%TD*%
D13*
%TO.C,M1*%
X171658000Y-99371600D03*
X171658000Y-100021600D03*
X171658000Y-100671600D03*
X171658000Y-101321600D03*
X171658000Y-101971600D03*
X171658000Y-102621600D03*
X171658000Y-103271600D03*
X171658000Y-103921600D03*
X171658000Y-104571600D03*
X171658000Y-105221600D03*
X171658000Y-105871600D03*
X171658000Y-106521600D03*
X178858000Y-106521600D03*
X178858000Y-105871600D03*
X178858000Y-105221600D03*
X178858000Y-104571600D03*
X178858000Y-103921600D03*
X178858000Y-103271600D03*
X178858000Y-102621600D03*
X178858000Y-101971600D03*
X178858000Y-101321600D03*
X178858000Y-100671600D03*
X178858000Y-100021600D03*
X178858000Y-99371600D03*
%TD*%
D12*
%TO.C,d*%
X83212074Y-68578326D03*
X85545526Y-66244874D03*
%TD*%
%TO.C,d*%
X51360474Y-68375126D03*
X53693926Y-66041674D03*
%TD*%
D14*
%TO.C,C2*%
X195797000Y-138262200D03*
X197697000Y-138262200D03*
%TD*%
%TO.C,C2*%
X184722000Y-97587200D03*
X186622000Y-97587200D03*
%TD*%
D13*
%TO.C,M2*%
X149987000Y-111610200D03*
X149987000Y-112260200D03*
X149987000Y-112910200D03*
X149987000Y-113560200D03*
X149987000Y-114210200D03*
X149987000Y-114860200D03*
X149987000Y-115510200D03*
X149987000Y-116160200D03*
X149987000Y-116810200D03*
X149987000Y-117460200D03*
X149987000Y-118110200D03*
X149987000Y-118760200D03*
X157187000Y-118760200D03*
X157187000Y-118110200D03*
X157187000Y-117460200D03*
X157187000Y-116810200D03*
X157187000Y-116160200D03*
X157187000Y-115510200D03*
X157187000Y-114860200D03*
X157187000Y-114210200D03*
X157187000Y-113560200D03*
X157187000Y-112910200D03*
X157187000Y-112260200D03*
X157187000Y-111610200D03*
%TD*%
D12*
%TO.C,d*%
X67413274Y-100353726D03*
X69746726Y-98020274D03*
%TD*%
%TO.C,d*%
X82907274Y-76249126D03*
X85240726Y-73915674D03*
%TD*%
D14*
%TO.C,C2*%
X184472000Y-33587200D03*
X186372000Y-33587200D03*
%TD*%
D12*
%TO.C,d*%
X35282274Y-84046926D03*
X37615726Y-81713474D03*
%TD*%
%TO.C,d*%
X67337074Y-68781526D03*
X69670526Y-66448074D03*
%TD*%
%TO.C,d*%
X83313674Y-92327326D03*
X85647126Y-89993874D03*
%TD*%
D14*
%TO.C,C2*%
X164002000Y-60277400D03*
X165902000Y-60277400D03*
%TD*%
%TO.C,C2*%
X144047000Y-69412200D03*
X145947000Y-69412200D03*
%TD*%
D13*
%TO.C,M2*%
X222287000Y-36135200D03*
X222287000Y-36785200D03*
X222287000Y-37435200D03*
X222287000Y-38085200D03*
X222287000Y-38735200D03*
X222287000Y-39385200D03*
X222287000Y-40035200D03*
X222287000Y-40685200D03*
X222287000Y-41335200D03*
X222287000Y-41985200D03*
X222287000Y-42635200D03*
X222287000Y-43285200D03*
X229487000Y-43285200D03*
X229487000Y-42635200D03*
X229487000Y-41985200D03*
X229487000Y-41335200D03*
X229487000Y-40685200D03*
X229487000Y-40035200D03*
X229487000Y-39385200D03*
X229487000Y-38735200D03*
X229487000Y-38085200D03*
X229487000Y-37435200D03*
X229487000Y-36785200D03*
X229487000Y-36135200D03*
%TD*%
D12*
%TO.C,d*%
X43156274Y-36802926D03*
X45489726Y-34469474D03*
%TD*%
%TO.C,d*%
X35434674Y-68781526D03*
X37768126Y-66448074D03*
%TD*%
D13*
%TO.C,M2*%
X150262000Y-138685200D03*
X150262000Y-139335200D03*
X150262000Y-139985200D03*
X150262000Y-140635200D03*
X150262000Y-141285200D03*
X150262000Y-141935200D03*
X150262000Y-142585200D03*
X150262000Y-143235200D03*
X150262000Y-143885200D03*
X150262000Y-144535200D03*
X150262000Y-145185200D03*
X150262000Y-145835200D03*
X157462000Y-145835200D03*
X157462000Y-145185200D03*
X157462000Y-144535200D03*
X157462000Y-143885200D03*
X157462000Y-143235200D03*
X157462000Y-142585200D03*
X157462000Y-141935200D03*
X157462000Y-141285200D03*
X157462000Y-140635200D03*
X157462000Y-139985200D03*
X157462000Y-139335200D03*
X157462000Y-138685200D03*
%TD*%
D12*
%TO.C,d*%
X75414274Y-60374126D03*
X77747726Y-58040674D03*
%TD*%
%TO.C,d*%
X107519874Y-68451326D03*
X109853326Y-66117874D03*
%TD*%
%TO.C,d*%
X34952074Y-91920926D03*
X37285526Y-89587474D03*
%TD*%
%TO.C,d*%
X67489474Y-60374126D03*
X69822926Y-58040674D03*
%TD*%
%TO.C,d*%
X51335074Y-84300926D03*
X53668526Y-81967474D03*
%TD*%
D14*
%TO.C,C2*%
X204627000Y-74502400D03*
X206527000Y-74502400D03*
%TD*%
D15*
%TO.C,C2*%
X224072600Y-115677000D03*
X224072600Y-117577000D03*
%TD*%
D14*
%TO.C,C2*%
X164152000Y-47602400D03*
X166052000Y-47602400D03*
%TD*%
D12*
%TO.C,d*%
X35231474Y-44600726D03*
X37564926Y-42267274D03*
%TD*%
%TO.C,d*%
X66930674Y-84199326D03*
X69264126Y-81865874D03*
%TD*%
D10*
%TO.C,Serial*%
X205745600Y-115156000D03*
X205745600Y-116656000D03*
X207245600Y-115156000D03*
X207245600Y-116656000D03*
D11*
X203620600Y-113631000D03*
X203620600Y-114281000D03*
X203620600Y-114931000D03*
X203620600Y-115581000D03*
X203620600Y-116231000D03*
X203620600Y-116881000D03*
X203620600Y-117531000D03*
X203620600Y-118181000D03*
X209370600Y-118181000D03*
X209370600Y-117531000D03*
X209370600Y-116881000D03*
X209370600Y-116231000D03*
X209370600Y-115581000D03*
X209370600Y-114931000D03*
X209370600Y-114281000D03*
X209370600Y-113631000D03*
%TD*%
D13*
%TO.C,M2*%
X140462000Y-32685200D03*
X140462000Y-33335200D03*
X140462000Y-33985200D03*
X140462000Y-34635200D03*
X140462000Y-35285200D03*
X140462000Y-35935200D03*
X140462000Y-36585200D03*
X140462000Y-37235200D03*
X140462000Y-37885200D03*
X140462000Y-38535200D03*
X140462000Y-39185200D03*
X140462000Y-39835200D03*
X147662000Y-39835200D03*
X147662000Y-39185200D03*
X147662000Y-38535200D03*
X147662000Y-37885200D03*
X147662000Y-37235200D03*
X147662000Y-36585200D03*
X147662000Y-35935200D03*
X147662000Y-35285200D03*
X147662000Y-34635200D03*
X147662000Y-33985200D03*
X147662000Y-33335200D03*
X147662000Y-32685200D03*
%TD*%
D14*
%TO.C,C2*%
X143322000Y-30937200D03*
X145222000Y-30937200D03*
%TD*%
%TO.C,C2*%
X152847000Y-109862200D03*
X154747000Y-109862200D03*
%TD*%
D12*
%TO.C,d*%
X99468074Y-36472726D03*
X101801526Y-34139274D03*
%TD*%
%TO.C,d*%
X59285274Y-52449326D03*
X61618726Y-50115874D03*
%TD*%
D13*
%TO.C,M2*%
X181612000Y-35335200D03*
X181612000Y-35985200D03*
X181612000Y-36635200D03*
X181612000Y-37285200D03*
X181612000Y-37935200D03*
X181612000Y-38585200D03*
X181612000Y-39235200D03*
X181612000Y-39885200D03*
X181612000Y-40535200D03*
X181612000Y-41185200D03*
X181612000Y-41835200D03*
X181612000Y-42485200D03*
X188812000Y-42485200D03*
X188812000Y-41835200D03*
X188812000Y-41185200D03*
X188812000Y-40535200D03*
X188812000Y-39885200D03*
X188812000Y-39235200D03*
X188812000Y-38585200D03*
X188812000Y-37935200D03*
X188812000Y-37285200D03*
X188812000Y-36635200D03*
X188812000Y-35985200D03*
X188812000Y-35335200D03*
%TD*%
D14*
%TO.C,C2*%
X143726400Y-56356200D03*
X145626400Y-56356200D03*
%TD*%
D12*
%TO.C,d*%
X99315674Y-60450326D03*
X101649126Y-58116874D03*
%TD*%
%TO.C,d*%
X91263874Y-100760126D03*
X93597326Y-98426674D03*
%TD*%
D14*
%TO.C,C2*%
X184322000Y-59312200D03*
X186222000Y-59312200D03*
%TD*%
D12*
%TO.C,d*%
X107926274Y-44245126D03*
X110259726Y-41911674D03*
%TD*%
%TO.C,d*%
X43384874Y-91844726D03*
X45718326Y-89511274D03*
%TD*%
D13*
%TO.C,M1*%
X211933000Y-50021600D03*
X211933000Y-50671600D03*
X211933000Y-51321600D03*
X211933000Y-51971600D03*
X211933000Y-52621600D03*
X211933000Y-53271600D03*
X211933000Y-53921600D03*
X211933000Y-54571600D03*
X211933000Y-55221600D03*
X211933000Y-55871600D03*
X211933000Y-56521600D03*
X211933000Y-57171600D03*
X219133000Y-57171600D03*
X219133000Y-56521600D03*
X219133000Y-55871600D03*
X219133000Y-55221600D03*
X219133000Y-54571600D03*
X219133000Y-53921600D03*
X219133000Y-53271600D03*
X219133000Y-52621600D03*
X219133000Y-51971600D03*
X219133000Y-51321600D03*
X219133000Y-50671600D03*
X219133000Y-50021600D03*
%TD*%
D12*
%TO.C,d*%
X91848074Y-91997126D03*
X94181526Y-89663674D03*
%TD*%
%TO.C,d*%
X43461074Y-84300926D03*
X45794526Y-81967474D03*
%TD*%
%TO.C,d*%
X99468074Y-52169926D03*
X101801526Y-49836474D03*
%TD*%
D10*
%TO.C,Serial*%
X235295600Y-64981000D03*
X235295600Y-66481000D03*
X236795600Y-64981000D03*
X236795600Y-66481000D03*
D11*
X233170600Y-63456000D03*
X233170600Y-64106000D03*
X233170600Y-64756000D03*
X233170600Y-65406000D03*
X233170600Y-66056000D03*
X233170600Y-66706000D03*
X233170600Y-67356000D03*
X233170600Y-68006000D03*
X238920600Y-68006000D03*
X238920600Y-67356000D03*
X238920600Y-66706000D03*
X238920600Y-66056000D03*
X238920600Y-65406000D03*
X238920600Y-64756000D03*
X238920600Y-64106000D03*
X238920600Y-63456000D03*
%TD*%
D12*
%TO.C,d*%
X75363474Y-100683926D03*
X77696926Y-98350474D03*
%TD*%
%TO.C,d*%
X91263874Y-68578326D03*
X93597326Y-66244874D03*
%TD*%
D14*
%TO.C,C2*%
X132802000Y-137902400D03*
X134702000Y-137902400D03*
%TD*%
D12*
%TO.C,d*%
X107342074Y-76503126D03*
X109675526Y-74169674D03*
%TD*%
D13*
%TO.C,M2*%
X192412000Y-112535200D03*
X192412000Y-113185200D03*
X192412000Y-113835200D03*
X192412000Y-114485200D03*
X192412000Y-115135200D03*
X192412000Y-115785200D03*
X192412000Y-116435200D03*
X192412000Y-117085200D03*
X192412000Y-117735200D03*
X192412000Y-118385200D03*
X192412000Y-119035200D03*
X192412000Y-119685200D03*
X199612000Y-119685200D03*
X199612000Y-119035200D03*
X199612000Y-118385200D03*
X199612000Y-117735200D03*
X199612000Y-117085200D03*
X199612000Y-116435200D03*
X199612000Y-115785200D03*
X199612000Y-115135200D03*
X199612000Y-114485200D03*
X199612000Y-113835200D03*
X199612000Y-113185200D03*
X199612000Y-112535200D03*
%TD*%
D12*
%TO.C,d*%
X83618474Y-60653526D03*
X85951926Y-58320074D03*
%TD*%
D10*
%TO.C,Serial*%
X163595600Y-141306000D03*
X163595600Y-142806000D03*
X165095600Y-141306000D03*
X165095600Y-142806000D03*
D11*
X161470600Y-139781000D03*
X161470600Y-140431000D03*
X161470600Y-141081000D03*
X161470600Y-141731000D03*
X161470600Y-142381000D03*
X161470600Y-143031000D03*
X161470600Y-143681000D03*
X161470600Y-144331000D03*
X167220600Y-144331000D03*
X167220600Y-143681000D03*
X167220600Y-143031000D03*
X167220600Y-142381000D03*
X167220600Y-141731000D03*
X167220600Y-141081000D03*
X167220600Y-140431000D03*
X167220600Y-139781000D03*
%TD*%
D14*
%TO.C,C2*%
X184722000Y-71987200D03*
X186622000Y-71987200D03*
%TD*%
D12*
%TO.C,d*%
X43232474Y-44524526D03*
X45565926Y-42191074D03*
%TD*%
%TO.C,d*%
X75033274Y-76579326D03*
X77366726Y-74245874D03*
%TD*%
D14*
%TO.C,C2*%
X164402000Y-98552400D03*
X166302000Y-98552400D03*
%TD*%
D12*
%TO.C,d*%
X51284274Y-44397526D03*
X53617726Y-42064074D03*
%TD*%
D14*
%TO.C,C2*%
X175202000Y-125227400D03*
X177102000Y-125227400D03*
%TD*%
D12*
%TO.C,d*%
X83237474Y-100607726D03*
X85570926Y-98274274D03*
%TD*%
D13*
%TO.C,M2*%
X182012000Y-86535200D03*
X182012000Y-87185200D03*
X182012000Y-87835200D03*
X182012000Y-88485200D03*
X182012000Y-89135200D03*
X182012000Y-89785200D03*
X182012000Y-90435200D03*
X182012000Y-91085200D03*
X182012000Y-91735200D03*
X182012000Y-92385200D03*
X182012000Y-93035200D03*
X182012000Y-93685200D03*
X189212000Y-93685200D03*
X189212000Y-93035200D03*
X189212000Y-92385200D03*
X189212000Y-91735200D03*
X189212000Y-91085200D03*
X189212000Y-90435200D03*
X189212000Y-89785200D03*
X189212000Y-89135200D03*
X189212000Y-88485200D03*
X189212000Y-87835200D03*
X189212000Y-87185200D03*
X189212000Y-86535200D03*
%TD*%
D12*
%TO.C,d*%
X99569674Y-92403526D03*
X101903126Y-90070074D03*
%TD*%
%TO.C,d*%
X83618474Y-44245126D03*
X85951926Y-41911674D03*
%TD*%
%TO.C,d*%
X107469074Y-60094726D03*
X109802526Y-57761274D03*
%TD*%
%TO.C,d*%
X99061674Y-100353726D03*
X101395126Y-98020274D03*
%TD*%
D13*
%TO.C,M1*%
X171408000Y-48421600D03*
X171408000Y-49071600D03*
X171408000Y-49721600D03*
X171408000Y-50371600D03*
X171408000Y-51021600D03*
X171408000Y-51671600D03*
X171408000Y-52321600D03*
X171408000Y-52971600D03*
X171408000Y-53621600D03*
X171408000Y-54271600D03*
X171408000Y-54921600D03*
X171408000Y-55571600D03*
X178608000Y-55571600D03*
X178608000Y-54921600D03*
X178608000Y-54271600D03*
X178608000Y-53621600D03*
X178608000Y-52971600D03*
X178608000Y-52321600D03*
X178608000Y-51671600D03*
X178608000Y-51021600D03*
X178608000Y-50371600D03*
X178608000Y-49721600D03*
X178608000Y-49071600D03*
X178608000Y-48421600D03*
%TD*%
D12*
%TO.C,d*%
X91390874Y-60374126D03*
X93724326Y-58040674D03*
%TD*%
%TO.C,d*%
X43308674Y-108227726D03*
X45642126Y-105894274D03*
%TD*%
D10*
%TO.C,Serial*%
X235145600Y-90706000D03*
X235145600Y-92206000D03*
X236645600Y-90706000D03*
X236645600Y-92206000D03*
D11*
X233020600Y-89181000D03*
X233020600Y-89831000D03*
X233020600Y-90481000D03*
X233020600Y-91131000D03*
X233020600Y-91781000D03*
X233020600Y-92431000D03*
X233020600Y-93081000D03*
X233020600Y-93731000D03*
X238770600Y-93731000D03*
X238770600Y-93081000D03*
X238770600Y-92431000D03*
X238770600Y-91781000D03*
X238770600Y-91131000D03*
X238770600Y-90481000D03*
X238770600Y-89831000D03*
X238770600Y-89181000D03*
%TD*%
D10*
%TO.C,Serial*%
X153795600Y-35306000D03*
X153795600Y-36806000D03*
X155295600Y-35306000D03*
X155295600Y-36806000D03*
D11*
X151670600Y-33781000D03*
X151670600Y-34431000D03*
X151670600Y-35081000D03*
X151670600Y-35731000D03*
X151670600Y-36381000D03*
X151670600Y-37031000D03*
X151670600Y-37681000D03*
X151670600Y-38331000D03*
X157420600Y-38331000D03*
X157420600Y-37681000D03*
X157420600Y-37031000D03*
X157420600Y-36381000D03*
X157420600Y-35731000D03*
X157420600Y-35081000D03*
X157420600Y-34431000D03*
X157420600Y-33781000D03*
%TD*%
D14*
%TO.C,C2*%
X204677000Y-49202400D03*
X206577000Y-49202400D03*
%TD*%
D12*
%TO.C,d*%
X99112474Y-68451326D03*
X101445926Y-66117874D03*
%TD*%
D13*
%TO.C,M2*%
X222212000Y-101310200D03*
X222212000Y-101960200D03*
X222212000Y-102610200D03*
X222212000Y-103260200D03*
X222212000Y-103910200D03*
X222212000Y-104560200D03*
X222212000Y-105210200D03*
X222212000Y-105860200D03*
X222212000Y-106510200D03*
X222212000Y-107160200D03*
X222212000Y-107810200D03*
X222212000Y-108460200D03*
X229412000Y-108460200D03*
X229412000Y-107810200D03*
X229412000Y-107160200D03*
X229412000Y-106510200D03*
X229412000Y-105860200D03*
X229412000Y-105210200D03*
X229412000Y-104560200D03*
X229412000Y-103910200D03*
X229412000Y-103260200D03*
X229412000Y-102610200D03*
X229412000Y-101960200D03*
X229412000Y-101310200D03*
%TD*%
%TO.C,M2*%
X192937000Y-140010200D03*
X192937000Y-140660200D03*
X192937000Y-141310200D03*
X192937000Y-141960200D03*
X192937000Y-142610200D03*
X192937000Y-143260200D03*
X192937000Y-143910200D03*
X192937000Y-144560200D03*
X192937000Y-145210200D03*
X192937000Y-145860200D03*
X192937000Y-146510200D03*
X192937000Y-147160200D03*
X200137000Y-147160200D03*
X200137000Y-146510200D03*
X200137000Y-145860200D03*
X200137000Y-145210200D03*
X200137000Y-144560200D03*
X200137000Y-143910200D03*
X200137000Y-143260200D03*
X200137000Y-142610200D03*
X200137000Y-141960200D03*
X200137000Y-141310200D03*
X200137000Y-140660200D03*
X200137000Y-140010200D03*
%TD*%
D10*
%TO.C,Serial*%
X154045600Y-48056000D03*
X154045600Y-49556000D03*
X155545600Y-48056000D03*
X155545600Y-49556000D03*
D11*
X151920600Y-46531000D03*
X151920600Y-47181000D03*
X151920600Y-47831000D03*
X151920600Y-48481000D03*
X151920600Y-49131000D03*
X151920600Y-49781000D03*
X151920600Y-50431000D03*
X151920600Y-51081000D03*
X157670600Y-51081000D03*
X157670600Y-50431000D03*
X157670600Y-49781000D03*
X157670600Y-49131000D03*
X157670600Y-48481000D03*
X157670600Y-47831000D03*
X157670600Y-47181000D03*
X157670600Y-46531000D03*
%TD*%
D12*
%TO.C,d*%
X107519874Y-84377126D03*
X109853326Y-82043674D03*
%TD*%
D10*
%TO.C,Serial*%
X194945600Y-51006000D03*
X194945600Y-52506000D03*
X196445600Y-51006000D03*
X196445600Y-52506000D03*
D11*
X192820600Y-49481000D03*
X192820600Y-50131000D03*
X192820600Y-50781000D03*
X192820600Y-51431000D03*
X192820600Y-52081000D03*
X192820600Y-52731000D03*
X192820600Y-53381000D03*
X192820600Y-54031000D03*
X198570600Y-54031000D03*
X198570600Y-53381000D03*
X198570600Y-52731000D03*
X198570600Y-52081000D03*
X198570600Y-51431000D03*
X198570600Y-50781000D03*
X198570600Y-50131000D03*
X198570600Y-49481000D03*
%TD*%
D13*
%TO.C,M1*%
X182458000Y-126046600D03*
X182458000Y-126696600D03*
X182458000Y-127346600D03*
X182458000Y-127996600D03*
X182458000Y-128646600D03*
X182458000Y-129296600D03*
X182458000Y-129946600D03*
X182458000Y-130596600D03*
X182458000Y-131246600D03*
X182458000Y-131896600D03*
X182458000Y-132546600D03*
X182458000Y-133196600D03*
X189658000Y-133196600D03*
X189658000Y-132546600D03*
X189658000Y-131896600D03*
X189658000Y-131246600D03*
X189658000Y-130596600D03*
X189658000Y-129946600D03*
X189658000Y-129296600D03*
X189658000Y-128646600D03*
X189658000Y-127996600D03*
X189658000Y-127346600D03*
X189658000Y-126696600D03*
X189658000Y-126046600D03*
%TD*%
%TO.C,M1*%
X171808000Y-86571600D03*
X171808000Y-87221600D03*
X171808000Y-87871600D03*
X171808000Y-88521600D03*
X171808000Y-89171600D03*
X171808000Y-89821600D03*
X171808000Y-90471600D03*
X171808000Y-91121600D03*
X171808000Y-91771600D03*
X171808000Y-92421600D03*
X171808000Y-93071600D03*
X171808000Y-93721600D03*
X179008000Y-93721600D03*
X179008000Y-93071600D03*
X179008000Y-92421600D03*
X179008000Y-91771600D03*
X179008000Y-91121600D03*
X179008000Y-90471600D03*
X179008000Y-89821600D03*
X179008000Y-89171600D03*
X179008000Y-88521600D03*
X179008000Y-87871600D03*
X179008000Y-87221600D03*
X179008000Y-86571600D03*
%TD*%
%TO.C,M1*%
X130983000Y-71196600D03*
X130983000Y-71846600D03*
X130983000Y-72496600D03*
X130983000Y-73146600D03*
X130983000Y-73796600D03*
X130983000Y-74446600D03*
X130983000Y-75096600D03*
X130983000Y-75746600D03*
X130983000Y-76396600D03*
X130983000Y-77046600D03*
X130983000Y-77696600D03*
X130983000Y-78346600D03*
X138183000Y-78346600D03*
X138183000Y-77696600D03*
X138183000Y-77046600D03*
X138183000Y-76396600D03*
X138183000Y-75746600D03*
X138183000Y-75096600D03*
X138183000Y-74446600D03*
X138183000Y-73796600D03*
X138183000Y-73146600D03*
X138183000Y-72496600D03*
X138183000Y-71846600D03*
X138183000Y-71196600D03*
%TD*%
D14*
%TO.C,C2*%
X123727000Y-70377400D03*
X125627000Y-70377400D03*
%TD*%
D10*
%TO.C,Serial*%
X163470600Y-127306000D03*
X163470600Y-128806000D03*
X164970600Y-127306000D03*
X164970600Y-128806000D03*
D11*
X161345600Y-125781000D03*
X161345600Y-126431000D03*
X161345600Y-127081000D03*
X161345600Y-127731000D03*
X161345600Y-128381000D03*
X161345600Y-129031000D03*
X161345600Y-129681000D03*
X161345600Y-130331000D03*
X167095600Y-130331000D03*
X167095600Y-129681000D03*
X167095600Y-129031000D03*
X167095600Y-128381000D03*
X167095600Y-127731000D03*
X167095600Y-127081000D03*
X167095600Y-126431000D03*
X167095600Y-125781000D03*
%TD*%
D13*
%TO.C,M1*%
X139783000Y-111646600D03*
X139783000Y-112296600D03*
X139783000Y-112946600D03*
X139783000Y-113596600D03*
X139783000Y-114246600D03*
X139783000Y-114896600D03*
X139783000Y-115546600D03*
X139783000Y-116196600D03*
X139783000Y-116846600D03*
X139783000Y-117496600D03*
X139783000Y-118146600D03*
X139783000Y-118796600D03*
X146983000Y-118796600D03*
X146983000Y-118146600D03*
X146983000Y-117496600D03*
X146983000Y-116846600D03*
X146983000Y-116196600D03*
X146983000Y-115546600D03*
X146983000Y-114896600D03*
X146983000Y-114246600D03*
X146983000Y-113596600D03*
X146983000Y-112946600D03*
X146983000Y-112296600D03*
X146983000Y-111646600D03*
%TD*%
D10*
%TO.C,Serial*%
X163320600Y-114231000D03*
X163320600Y-115731000D03*
X164820600Y-114231000D03*
X164820600Y-115731000D03*
D11*
X161195600Y-112706000D03*
X161195600Y-113356000D03*
X161195600Y-114006000D03*
X161195600Y-114656000D03*
X161195600Y-115306000D03*
X161195600Y-115956000D03*
X161195600Y-116606000D03*
X161195600Y-117256000D03*
X166945600Y-117256000D03*
X166945600Y-116606000D03*
X166945600Y-115956000D03*
X166945600Y-115306000D03*
X166945600Y-114656000D03*
X166945600Y-114006000D03*
X166945600Y-113356000D03*
X166945600Y-112706000D03*
%TD*%
D10*
%TO.C,Serial*%
X154200000Y-60725000D03*
X154200000Y-62225000D03*
X155700000Y-60725000D03*
X155700000Y-62225000D03*
D11*
X152075000Y-59200000D03*
X152075000Y-59850000D03*
X152075000Y-60500000D03*
X152075000Y-61150000D03*
X152075000Y-61800000D03*
X152075000Y-62450000D03*
X152075000Y-63100000D03*
X152075000Y-63750000D03*
X157825000Y-63750000D03*
X157825000Y-63100000D03*
X157825000Y-62450000D03*
X157825000Y-61800000D03*
X157825000Y-61150000D03*
X157825000Y-60500000D03*
X157825000Y-59850000D03*
X157825000Y-59200000D03*
%TD*%
D10*
%TO.C,Serial*%
X195195600Y-76356000D03*
X195195600Y-77856000D03*
X196695600Y-76356000D03*
X196695600Y-77856000D03*
D11*
X193070600Y-74831000D03*
X193070600Y-75481000D03*
X193070600Y-76131000D03*
X193070600Y-76781000D03*
X193070600Y-77431000D03*
X193070600Y-78081000D03*
X193070600Y-78731000D03*
X193070600Y-79381000D03*
X198820600Y-79381000D03*
X198820600Y-78731000D03*
X198820600Y-78081000D03*
X198820600Y-77431000D03*
X198820600Y-76781000D03*
X198820600Y-76131000D03*
X198820600Y-75481000D03*
X198820600Y-74831000D03*
%TD*%
D14*
%TO.C,C2*%
X123406400Y-57321400D03*
X125306400Y-57321400D03*
%TD*%
D12*
%TO.C,d*%
X75287274Y-44194326D03*
X77620726Y-41860874D03*
%TD*%
%TO.C,d*%
X91594074Y-44321326D03*
X93927526Y-41987874D03*
%TD*%
%TO.C,d*%
X59285274Y-36879126D03*
X61618726Y-34545674D03*
%TD*%
D13*
%TO.C,M2*%
X140866400Y-58104200D03*
X140866400Y-58754200D03*
X140866400Y-59404200D03*
X140866400Y-60054200D03*
X140866400Y-60704200D03*
X140866400Y-61354200D03*
X140866400Y-62004200D03*
X140866400Y-62654200D03*
X140866400Y-63304200D03*
X140866400Y-63954200D03*
X140866400Y-64604200D03*
X140866400Y-65254200D03*
X148066400Y-65254200D03*
X148066400Y-64604200D03*
X148066400Y-63954200D03*
X148066400Y-63304200D03*
X148066400Y-62654200D03*
X148066400Y-62004200D03*
X148066400Y-61354200D03*
X148066400Y-60704200D03*
X148066400Y-60054200D03*
X148066400Y-59404200D03*
X148066400Y-58754200D03*
X148066400Y-58104200D03*
%TD*%
%TO.C,M2*%
X222137000Y-49985200D03*
X222137000Y-50635200D03*
X222137000Y-51285200D03*
X222137000Y-51935200D03*
X222137000Y-52585200D03*
X222137000Y-53235200D03*
X222137000Y-53885200D03*
X222137000Y-54535200D03*
X222137000Y-55185200D03*
X222137000Y-55835200D03*
X222137000Y-56485200D03*
X222137000Y-57135200D03*
X229337000Y-57135200D03*
X229337000Y-56485200D03*
X229337000Y-55835200D03*
X229337000Y-55185200D03*
X229337000Y-54535200D03*
X229337000Y-53885200D03*
X229337000Y-53235200D03*
X229337000Y-52585200D03*
X229337000Y-51935200D03*
X229337000Y-51285200D03*
X229337000Y-50635200D03*
X229337000Y-49985200D03*
%TD*%
D12*
%TO.C,d*%
X67210074Y-52373126D03*
X69543526Y-50039674D03*
%TD*%
%TO.C,d*%
X67337074Y-92403526D03*
X69670526Y-90070074D03*
%TD*%
D10*
%TO.C,Serial*%
X235470600Y-52606000D03*
X235470600Y-54106000D03*
X236970600Y-52606000D03*
X236970600Y-54106000D03*
D11*
X233345600Y-51081000D03*
X233345600Y-51731000D03*
X233345600Y-52381000D03*
X233345600Y-53031000D03*
X233345600Y-53681000D03*
X233345600Y-54331000D03*
X233345600Y-54981000D03*
X233345600Y-55631000D03*
X239095600Y-55631000D03*
X239095600Y-54981000D03*
X239095600Y-54331000D03*
X239095600Y-53681000D03*
X239095600Y-53031000D03*
X239095600Y-52381000D03*
X239095600Y-51731000D03*
X239095600Y-51081000D03*
%TD*%
D14*
%TO.C,C2*%
X143572000Y-96112200D03*
X145472000Y-96112200D03*
%TD*%
D12*
%TO.C,d*%
X91390874Y-36879126D03*
X93724326Y-34545674D03*
%TD*%
D13*
%TO.C,M1*%
X140058000Y-138721600D03*
X140058000Y-139371600D03*
X140058000Y-140021600D03*
X140058000Y-140671600D03*
X140058000Y-141321600D03*
X140058000Y-141971600D03*
X140058000Y-142621600D03*
X140058000Y-143271600D03*
X140058000Y-143921600D03*
X140058000Y-144571600D03*
X140058000Y-145221600D03*
X140058000Y-145871600D03*
X147258000Y-145871600D03*
X147258000Y-145221600D03*
X147258000Y-144571600D03*
X147258000Y-143921600D03*
X147258000Y-143271600D03*
X147258000Y-142621600D03*
X147258000Y-141971600D03*
X147258000Y-141321600D03*
X147258000Y-140671600D03*
X147258000Y-140021600D03*
X147258000Y-139371600D03*
X147258000Y-138721600D03*
%TD*%
D14*
%TO.C,C2*%
X224672000Y-86337200D03*
X226572000Y-86337200D03*
%TD*%
D15*
%TO.C,C2*%
X225037800Y-135997000D03*
X225037800Y-137897000D03*
%TD*%
D12*
%TO.C,d*%
X35510874Y-100125126D03*
X37844326Y-97791674D03*
%TD*%
D13*
%TO.C,M1*%
X130258000Y-32721600D03*
X130258000Y-33371600D03*
X130258000Y-34021600D03*
X130258000Y-34671600D03*
X130258000Y-35321600D03*
X130258000Y-35971600D03*
X130258000Y-36621600D03*
X130258000Y-37271600D03*
X130258000Y-37921600D03*
X130258000Y-38571600D03*
X130258000Y-39221600D03*
X130258000Y-39871600D03*
X137458000Y-39871600D03*
X137458000Y-39221600D03*
X137458000Y-38571600D03*
X137458000Y-37921600D03*
X137458000Y-37271600D03*
X137458000Y-36621600D03*
X137458000Y-35971600D03*
X137458000Y-35321600D03*
X137458000Y-34671600D03*
X137458000Y-34021600D03*
X137458000Y-33371600D03*
X137458000Y-32721600D03*
%TD*%
%TO.C,M1*%
X171408000Y-35371600D03*
X171408000Y-36021600D03*
X171408000Y-36671600D03*
X171408000Y-37321600D03*
X171408000Y-37971600D03*
X171408000Y-38621600D03*
X171408000Y-39271600D03*
X171408000Y-39921600D03*
X171408000Y-40571600D03*
X171408000Y-41221600D03*
X171408000Y-41871600D03*
X171408000Y-42521600D03*
X178608000Y-42521600D03*
X178608000Y-41871600D03*
X178608000Y-41221600D03*
X178608000Y-40571600D03*
X178608000Y-39921600D03*
X178608000Y-39271600D03*
X178608000Y-38621600D03*
X178608000Y-37971600D03*
X178608000Y-37321600D03*
X178608000Y-36671600D03*
X178608000Y-36021600D03*
X178608000Y-35371600D03*
%TD*%
D10*
%TO.C,Serial*%
X194795600Y-63681000D03*
X194795600Y-65181000D03*
X196295600Y-63681000D03*
X196295600Y-65181000D03*
D11*
X192670600Y-62156000D03*
X192670600Y-62806000D03*
X192670600Y-63456000D03*
X192670600Y-64106000D03*
X192670600Y-64756000D03*
X192670600Y-65406000D03*
X192670600Y-66056000D03*
X192670600Y-66706000D03*
X198420600Y-66706000D03*
X198420600Y-66056000D03*
X198420600Y-65406000D03*
X198420600Y-64756000D03*
X198420600Y-64106000D03*
X198420600Y-63456000D03*
X198420600Y-62806000D03*
X198420600Y-62156000D03*
%TD*%
D12*
%TO.C,d*%
X83212074Y-52169926D03*
X85545526Y-49836474D03*
%TD*%
D14*
%TO.C,C2*%
X195272000Y-110787200D03*
X197172000Y-110787200D03*
%TD*%
D12*
%TO.C,d*%
X59132874Y-108481726D03*
X61466326Y-106148274D03*
%TD*%
D13*
%TO.C,M2*%
X140712000Y-45435200D03*
X140712000Y-46085200D03*
X140712000Y-46735200D03*
X140712000Y-47385200D03*
X140712000Y-48035200D03*
X140712000Y-48685200D03*
X140712000Y-49335200D03*
X140712000Y-49985200D03*
X140712000Y-50635200D03*
X140712000Y-51285200D03*
X140712000Y-51935200D03*
X140712000Y-52585200D03*
X147912000Y-52585200D03*
X147912000Y-51935200D03*
X147912000Y-51285200D03*
X147912000Y-50635200D03*
X147912000Y-49985200D03*
X147912000Y-49335200D03*
X147912000Y-48685200D03*
X147912000Y-48035200D03*
X147912000Y-47385200D03*
X147912000Y-46735200D03*
X147912000Y-46085200D03*
X147912000Y-45435200D03*
%TD*%
D14*
%TO.C,C2*%
X132527000Y-110827400D03*
X134427000Y-110827400D03*
%TD*%
D12*
%TO.C,d*%
X83415274Y-84300926D03*
X85748726Y-81967474D03*
%TD*%
D14*
%TO.C,C2*%
X132677000Y-123902400D03*
X134577000Y-123902400D03*
%TD*%
D12*
%TO.C,d*%
X75109474Y-92403526D03*
X77442926Y-90070074D03*
%TD*%
D13*
%TO.C,M1*%
X182733000Y-140046600D03*
X182733000Y-140696600D03*
X182733000Y-141346600D03*
X182733000Y-141996600D03*
X182733000Y-142646600D03*
X182733000Y-143296600D03*
X182733000Y-143946600D03*
X182733000Y-144596600D03*
X182733000Y-145246600D03*
X182733000Y-145896600D03*
X182733000Y-146546600D03*
X182733000Y-147196600D03*
X189933000Y-147196600D03*
X189933000Y-146546600D03*
X189933000Y-145896600D03*
X189933000Y-145246600D03*
X189933000Y-144596600D03*
X189933000Y-143946600D03*
X189933000Y-143296600D03*
X189933000Y-142646600D03*
X189933000Y-141996600D03*
X189933000Y-141346600D03*
X189933000Y-140696600D03*
X189933000Y-140046600D03*
%TD*%
%TO.C,M2*%
X181612000Y-48385200D03*
X181612000Y-49035200D03*
X181612000Y-49685200D03*
X181612000Y-50335200D03*
X181612000Y-50985200D03*
X181612000Y-51635200D03*
X181612000Y-52285200D03*
X181612000Y-52935200D03*
X181612000Y-53585200D03*
X181612000Y-54235200D03*
X181612000Y-54885200D03*
X181612000Y-55535200D03*
X188812000Y-55535200D03*
X188812000Y-54885200D03*
X188812000Y-54235200D03*
X188812000Y-53585200D03*
X188812000Y-52935200D03*
X188812000Y-52285200D03*
X188812000Y-51635200D03*
X188812000Y-50985200D03*
X188812000Y-50335200D03*
X188812000Y-49685200D03*
X188812000Y-49035200D03*
X188812000Y-48385200D03*
%TD*%
D12*
%TO.C,d*%
X83618474Y-36726726D03*
X85951926Y-34393274D03*
%TD*%
D13*
%TO.C,M2*%
X181862000Y-73735200D03*
X181862000Y-74385200D03*
X181862000Y-75035200D03*
X181862000Y-75685200D03*
X181862000Y-76335200D03*
X181862000Y-76985200D03*
X181862000Y-77635200D03*
X181862000Y-78285200D03*
X181862000Y-78935200D03*
X181862000Y-79585200D03*
X181862000Y-80235200D03*
X181862000Y-80885200D03*
X189062000Y-80885200D03*
X189062000Y-80235200D03*
X189062000Y-79585200D03*
X189062000Y-78935200D03*
X189062000Y-78285200D03*
X189062000Y-77635200D03*
X189062000Y-76985200D03*
X189062000Y-76335200D03*
X189062000Y-75685200D03*
X189062000Y-75035200D03*
X189062000Y-74385200D03*
X189062000Y-73735200D03*
%TD*%
D12*
%TO.C,d*%
X59285274Y-100683926D03*
X61618726Y-98350474D03*
%TD*%
D13*
%TO.C,M2*%
X222087000Y-75285200D03*
X222087000Y-75935200D03*
X222087000Y-76585200D03*
X222087000Y-77235200D03*
X222087000Y-77885200D03*
X222087000Y-78535200D03*
X222087000Y-79185200D03*
X222087000Y-79835200D03*
X222087000Y-80485200D03*
X222087000Y-81135200D03*
X222087000Y-81785200D03*
X222087000Y-82435200D03*
X229287000Y-82435200D03*
X229287000Y-81785200D03*
X229287000Y-81135200D03*
X229287000Y-80485200D03*
X229287000Y-79835200D03*
X229287000Y-79185200D03*
X229287000Y-78535200D03*
X229287000Y-77885200D03*
X229287000Y-77235200D03*
X229287000Y-76585200D03*
X229287000Y-75935200D03*
X229287000Y-75285200D03*
%TD*%
%TO.C,M2*%
X141187000Y-71160200D03*
X141187000Y-71810200D03*
X141187000Y-72460200D03*
X141187000Y-73110200D03*
X141187000Y-73760200D03*
X141187000Y-74410200D03*
X141187000Y-75060200D03*
X141187000Y-75710200D03*
X141187000Y-76360200D03*
X141187000Y-77010200D03*
X141187000Y-77660200D03*
X141187000Y-78310200D03*
X148387000Y-78310200D03*
X148387000Y-77660200D03*
X148387000Y-77010200D03*
X148387000Y-76360200D03*
X148387000Y-75710200D03*
X148387000Y-75060200D03*
X148387000Y-74410200D03*
X148387000Y-73760200D03*
X148387000Y-73110200D03*
X148387000Y-72460200D03*
X148387000Y-71810200D03*
X148387000Y-71160200D03*
%TD*%
%TO.C,M1*%
X130758000Y-84096600D03*
X130758000Y-84746600D03*
X130758000Y-85396600D03*
X130758000Y-86046600D03*
X130758000Y-86696600D03*
X130758000Y-87346600D03*
X130758000Y-87996600D03*
X130758000Y-88646600D03*
X130758000Y-89296600D03*
X130758000Y-89946600D03*
X130758000Y-90596600D03*
X130758000Y-91246600D03*
X137958000Y-91246600D03*
X137958000Y-90596600D03*
X137958000Y-89946600D03*
X137958000Y-89296600D03*
X137958000Y-88646600D03*
X137958000Y-87996600D03*
X137958000Y-87346600D03*
X137958000Y-86696600D03*
X137958000Y-86046600D03*
X137958000Y-85396600D03*
X137958000Y-84746600D03*
X137958000Y-84096600D03*
%TD*%
D12*
%TO.C,d*%
X51106474Y-108735726D03*
X53439926Y-106402274D03*
%TD*%
%TO.C,d*%
X51258874Y-92073326D03*
X53592326Y-89739874D03*
%TD*%
%TO.C,d*%
X91187674Y-76325326D03*
X93521126Y-73991874D03*
%TD*%
D13*
%TO.C,M1*%
X130508000Y-97896600D03*
X130508000Y-98546600D03*
X130508000Y-99196600D03*
X130508000Y-99846600D03*
X130508000Y-100496600D03*
X130508000Y-101146600D03*
X130508000Y-101796600D03*
X130508000Y-102446600D03*
X130508000Y-103096600D03*
X130508000Y-103746600D03*
X130508000Y-104396600D03*
X130508000Y-105046600D03*
X137708000Y-105046600D03*
X137708000Y-104396600D03*
X137708000Y-103746600D03*
X137708000Y-103096600D03*
X137708000Y-102446600D03*
X137708000Y-101796600D03*
X137708000Y-101146600D03*
X137708000Y-100496600D03*
X137708000Y-99846600D03*
X137708000Y-99196600D03*
X137708000Y-98546600D03*
X137708000Y-97896600D03*
%TD*%
%TO.C,M1*%
X139933000Y-124721600D03*
X139933000Y-125371600D03*
X139933000Y-126021600D03*
X139933000Y-126671600D03*
X139933000Y-127321600D03*
X139933000Y-127971600D03*
X139933000Y-128621600D03*
X139933000Y-129271600D03*
X139933000Y-129921600D03*
X139933000Y-130571600D03*
X139933000Y-131221600D03*
X139933000Y-131871600D03*
X147133000Y-131871600D03*
X147133000Y-131221600D03*
X147133000Y-130571600D03*
X147133000Y-129921600D03*
X147133000Y-129271600D03*
X147133000Y-128621600D03*
X147133000Y-127971600D03*
X147133000Y-127321600D03*
X147133000Y-126671600D03*
X147133000Y-126021600D03*
X147133000Y-125371600D03*
X147133000Y-124721600D03*
%TD*%
D14*
%TO.C,C2*%
X143572000Y-43687200D03*
X145472000Y-43687200D03*
%TD*%
%TO.C,C2*%
X225147000Y-34387200D03*
X227047000Y-34387200D03*
%TD*%
D13*
%TO.C,M2*%
X192662000Y-126010200D03*
X192662000Y-126660200D03*
X192662000Y-127310200D03*
X192662000Y-127960200D03*
X192662000Y-128610200D03*
X192662000Y-129260200D03*
X192662000Y-129910200D03*
X192662000Y-130560200D03*
X192662000Y-131210200D03*
X192662000Y-131860200D03*
X192662000Y-132510200D03*
X192662000Y-133160200D03*
X199862000Y-133160200D03*
X199862000Y-132510200D03*
X199862000Y-131860200D03*
X199862000Y-131210200D03*
X199862000Y-130560200D03*
X199862000Y-129910200D03*
X199862000Y-129260200D03*
X199862000Y-128610200D03*
X199862000Y-127960200D03*
X199862000Y-127310200D03*
X199862000Y-126660200D03*
X199862000Y-126010200D03*
%TD*%
D12*
%TO.C,d*%
X59285274Y-84453326D03*
X61618726Y-82119874D03*
%TD*%
D10*
%TO.C,Serial*%
X235545600Y-103931000D03*
X235545600Y-105431000D03*
X237045600Y-103931000D03*
X237045600Y-105431000D03*
D11*
X233420600Y-102406000D03*
X233420600Y-103056000D03*
X233420600Y-103706000D03*
X233420600Y-104356000D03*
X233420600Y-105006000D03*
X233420600Y-105656000D03*
X233420600Y-106306000D03*
X233420600Y-106956000D03*
X239170600Y-106956000D03*
X239170600Y-106306000D03*
X239170600Y-105656000D03*
X239170600Y-105006000D03*
X239170600Y-104356000D03*
X239170600Y-103706000D03*
X239170600Y-103056000D03*
X239170600Y-102406000D03*
%TD*%
D12*
%TO.C,d*%
X108256474Y-108557926D03*
X110589926Y-106224474D03*
%TD*%
%TO.C,d*%
X108002474Y-92073326D03*
X110335926Y-89739874D03*
%TD*%
%TO.C,d*%
X75693674Y-36929926D03*
X78027126Y-34596474D03*
%TD*%
%TO.C,d*%
X59285274Y-60577326D03*
X61618726Y-58243874D03*
%TD*%
%TO.C,d*%
X43461074Y-100455326D03*
X45794526Y-98121874D03*
%TD*%
D14*
%TO.C,C2*%
X195522000Y-124262200D03*
X197422000Y-124262200D03*
%TD*%
D16*
%TO.C,Serial*%
X220669000Y-146470600D03*
X219169000Y-146470600D03*
X220669000Y-147970600D03*
X219169000Y-147970600D03*
D17*
X222194000Y-144345600D03*
X221544000Y-144345600D03*
X220894000Y-144345600D03*
X220244000Y-144345600D03*
X219594000Y-144345600D03*
X218944000Y-144345600D03*
X218294000Y-144345600D03*
X217644000Y-144345600D03*
X217644000Y-150095600D03*
X218294000Y-150095600D03*
X218944000Y-150095600D03*
X219594000Y-150095600D03*
X220244000Y-150095600D03*
X220894000Y-150095600D03*
X221544000Y-150095600D03*
X222194000Y-150095600D03*
%TD*%
D12*
%TO.C,d*%
X67692674Y-36396526D03*
X70026126Y-34063074D03*
%TD*%
D13*
%TO.C,M1*%
X211883000Y-75321600D03*
X211883000Y-75971600D03*
X211883000Y-76621600D03*
X211883000Y-77271600D03*
X211883000Y-77921600D03*
X211883000Y-78571600D03*
X211883000Y-79221600D03*
X211883000Y-79871600D03*
X211883000Y-80521600D03*
X211883000Y-81171600D03*
X211883000Y-81821600D03*
X211883000Y-82471600D03*
X219083000Y-82471600D03*
X219083000Y-81821600D03*
X219083000Y-81171600D03*
X219083000Y-80521600D03*
X219083000Y-79871600D03*
X219083000Y-79221600D03*
X219083000Y-78571600D03*
X219083000Y-77921600D03*
X219083000Y-77271600D03*
X219083000Y-76621600D03*
X219083000Y-75971600D03*
X219083000Y-75321600D03*
%TD*%
%TO.C,M1*%
X182208000Y-112571600D03*
X182208000Y-113221600D03*
X182208000Y-113871600D03*
X182208000Y-114521600D03*
X182208000Y-115171600D03*
X182208000Y-115821600D03*
X182208000Y-116471600D03*
X182208000Y-117121600D03*
X182208000Y-117771600D03*
X182208000Y-118421600D03*
X182208000Y-119071600D03*
X182208000Y-119721600D03*
X189408000Y-119721600D03*
X189408000Y-119071600D03*
X189408000Y-118421600D03*
X189408000Y-117771600D03*
X189408000Y-117121600D03*
X189408000Y-116471600D03*
X189408000Y-115821600D03*
X189408000Y-115171600D03*
X189408000Y-114521600D03*
X189408000Y-113871600D03*
X189408000Y-113221600D03*
X189408000Y-112571600D03*
%TD*%
D12*
%TO.C,d*%
X51335074Y-76096726D03*
X53668526Y-73763274D03*
%TD*%
%TO.C,d*%
X74957074Y-108811926D03*
X77290526Y-106478474D03*
%TD*%
D13*
%TO.C,M1*%
X211758000Y-62396600D03*
X211758000Y-63046600D03*
X211758000Y-63696600D03*
X211758000Y-64346600D03*
X211758000Y-64996600D03*
X211758000Y-65646600D03*
X211758000Y-66296600D03*
X211758000Y-66946600D03*
X211758000Y-67596600D03*
X211758000Y-68246600D03*
X211758000Y-68896600D03*
X211758000Y-69546600D03*
X218958000Y-69546600D03*
X218958000Y-68896600D03*
X218958000Y-68246600D03*
X218958000Y-67596600D03*
X218958000Y-66946600D03*
X218958000Y-66296600D03*
X218958000Y-65646600D03*
X218958000Y-64996600D03*
X218958000Y-64346600D03*
X218958000Y-63696600D03*
X218958000Y-63046600D03*
X218958000Y-62396600D03*
%TD*%
%TO.C,M1*%
X212008000Y-101346600D03*
X212008000Y-101996600D03*
X212008000Y-102646600D03*
X212008000Y-103296600D03*
X212008000Y-103946600D03*
X212008000Y-104596600D03*
X212008000Y-105246600D03*
X212008000Y-105896600D03*
X212008000Y-106546600D03*
X212008000Y-107196600D03*
X212008000Y-107846600D03*
X212008000Y-108496600D03*
X219208000Y-108496600D03*
X219208000Y-107846600D03*
X219208000Y-107196600D03*
X219208000Y-106546600D03*
X219208000Y-105896600D03*
X219208000Y-105246600D03*
X219208000Y-104596600D03*
X219208000Y-103946600D03*
X219208000Y-103296600D03*
X219208000Y-102646600D03*
X219208000Y-101996600D03*
X219208000Y-101346600D03*
%TD*%
D14*
%TO.C,C2*%
X164552000Y-85752400D03*
X166452000Y-85752400D03*
%TD*%
D13*
%TO.C,M2*%
X140712000Y-97860200D03*
X140712000Y-98510200D03*
X140712000Y-99160200D03*
X140712000Y-99810200D03*
X140712000Y-100460200D03*
X140712000Y-101110200D03*
X140712000Y-101760200D03*
X140712000Y-102410200D03*
X140712000Y-103060200D03*
X140712000Y-103710200D03*
X140712000Y-104360200D03*
X140712000Y-105010200D03*
X147912000Y-105010200D03*
X147912000Y-104360200D03*
X147912000Y-103710200D03*
X147912000Y-103060200D03*
X147912000Y-102410200D03*
X147912000Y-101760200D03*
X147912000Y-101110200D03*
X147912000Y-100460200D03*
X147912000Y-99810200D03*
X147912000Y-99160200D03*
X147912000Y-98510200D03*
X147912000Y-97860200D03*
%TD*%
%TO.C,M2*%
X150137000Y-124685200D03*
X150137000Y-125335200D03*
X150137000Y-125985200D03*
X150137000Y-126635200D03*
X150137000Y-127285200D03*
X150137000Y-127935200D03*
X150137000Y-128585200D03*
X150137000Y-129235200D03*
X150137000Y-129885200D03*
X150137000Y-130535200D03*
X150137000Y-131185200D03*
X150137000Y-131835200D03*
X157337000Y-131835200D03*
X157337000Y-131185200D03*
X157337000Y-130535200D03*
X157337000Y-129885200D03*
X157337000Y-129235200D03*
X157337000Y-128585200D03*
X157337000Y-127935200D03*
X157337000Y-127285200D03*
X157337000Y-126635200D03*
X157337000Y-125985200D03*
X157337000Y-125335200D03*
X157337000Y-124685200D03*
%TD*%
%TO.C,M1*%
X130508000Y-45471600D03*
X130508000Y-46121600D03*
X130508000Y-46771600D03*
X130508000Y-47421600D03*
X130508000Y-48071600D03*
X130508000Y-48721600D03*
X130508000Y-49371600D03*
X130508000Y-50021600D03*
X130508000Y-50671600D03*
X130508000Y-51321600D03*
X130508000Y-51971600D03*
X130508000Y-52621600D03*
X137708000Y-52621600D03*
X137708000Y-51971600D03*
X137708000Y-51321600D03*
X137708000Y-50671600D03*
X137708000Y-50021600D03*
X137708000Y-49371600D03*
X137708000Y-48721600D03*
X137708000Y-48071600D03*
X137708000Y-47421600D03*
X137708000Y-46771600D03*
X137708000Y-46121600D03*
X137708000Y-45471600D03*
%TD*%
D12*
%TO.C,d*%
X59285274Y-68375126D03*
X61618726Y-66041674D03*
%TD*%
%TO.C,d*%
X43638874Y-52449326D03*
X45972326Y-50115874D03*
%TD*%
D13*
%TO.C,M1*%
X130662400Y-58140600D03*
X130662400Y-58790600D03*
X130662400Y-59440600D03*
X130662400Y-60090600D03*
X130662400Y-60740600D03*
X130662400Y-61390600D03*
X130662400Y-62040600D03*
X130662400Y-62690600D03*
X130662400Y-63340600D03*
X130662400Y-63990600D03*
X130662400Y-64640600D03*
X130662400Y-65290600D03*
X137862400Y-65290600D03*
X137862400Y-64640600D03*
X137862400Y-63990600D03*
X137862400Y-63340600D03*
X137862400Y-62690600D03*
X137862400Y-62040600D03*
X137862400Y-61390600D03*
X137862400Y-60740600D03*
X137862400Y-60090600D03*
X137862400Y-59440600D03*
X137862400Y-58790600D03*
X137862400Y-58140600D03*
%TD*%
D12*
%TO.C,d*%
X67260874Y-76503126D03*
X69594326Y-74169674D03*
%TD*%
D13*
%TO.C,M2*%
X140962000Y-84060200D03*
X140962000Y-84710200D03*
X140962000Y-85360200D03*
X140962000Y-86010200D03*
X140962000Y-86660200D03*
X140962000Y-87310200D03*
X140962000Y-87960200D03*
X140962000Y-88610200D03*
X140962000Y-89260200D03*
X140962000Y-89910200D03*
X140962000Y-90560200D03*
X140962000Y-91210200D03*
X148162000Y-91210200D03*
X148162000Y-90560200D03*
X148162000Y-89910200D03*
X148162000Y-89260200D03*
X148162000Y-88610200D03*
X148162000Y-87960200D03*
X148162000Y-87310200D03*
X148162000Y-86660200D03*
X148162000Y-86010200D03*
X148162000Y-85360200D03*
X148162000Y-84710200D03*
X148162000Y-84060200D03*
%TD*%
D14*
%TO.C,C2*%
X224947000Y-73537200D03*
X226847000Y-73537200D03*
%TD*%
%TO.C,C2*%
X225072000Y-99562200D03*
X226972000Y-99562200D03*
%TD*%
D12*
%TO.C,d*%
X35155274Y-60653526D03*
X37488726Y-58320074D03*
%TD*%
D14*
%TO.C,C2*%
X123002000Y-31902400D03*
X124902000Y-31902400D03*
%TD*%
D12*
%TO.C,d*%
X51360474Y-52373126D03*
X53693926Y-50039674D03*
%TD*%
%TO.C,d*%
X91111474Y-108481726D03*
X93444926Y-106148274D03*
%TD*%
%TO.C,d*%
X43232474Y-76426926D03*
X45565926Y-74093474D03*
%TD*%
D13*
%TO.C,M1*%
X211608000Y-88121600D03*
X211608000Y-88771600D03*
X211608000Y-89421600D03*
X211608000Y-90071600D03*
X211608000Y-90721600D03*
X211608000Y-91371600D03*
X211608000Y-92021600D03*
X211608000Y-92671600D03*
X211608000Y-93321600D03*
X211608000Y-93971600D03*
X211608000Y-94621600D03*
X211608000Y-95271600D03*
X218808000Y-95271600D03*
X218808000Y-94621600D03*
X218808000Y-93971600D03*
X218808000Y-93321600D03*
X218808000Y-92671600D03*
X218808000Y-92021600D03*
X218808000Y-91371600D03*
X218808000Y-90721600D03*
X218808000Y-90071600D03*
X218808000Y-89421600D03*
X218808000Y-88771600D03*
X218808000Y-88121600D03*
%TD*%
D14*
%TO.C,C2*%
X174952000Y-111752400D03*
X176852000Y-111752400D03*
%TD*%
D12*
%TO.C,d*%
X107799274Y-36472726D03*
X110132726Y-34139274D03*
%TD*%
%TO.C,d*%
X75490474Y-68578326D03*
X77823926Y-66244874D03*
%TD*%
%TO.C,d*%
X67083074Y-108634126D03*
X69416526Y-106300674D03*
%TD*%
D10*
%TO.C,Serial*%
X235420600Y-77906000D03*
X235420600Y-79406000D03*
X236920600Y-77906000D03*
X236920600Y-79406000D03*
D11*
X233295600Y-76381000D03*
X233295600Y-77031000D03*
X233295600Y-77681000D03*
X233295600Y-78331000D03*
X233295600Y-78981000D03*
X233295600Y-79631000D03*
X233295600Y-80281000D03*
X233295600Y-80931000D03*
X239045600Y-80931000D03*
X239045600Y-80281000D03*
X239045600Y-79631000D03*
X239045600Y-78981000D03*
X239045600Y-78331000D03*
X239045600Y-77681000D03*
X239045600Y-77031000D03*
X239045600Y-76381000D03*
%TD*%
D12*
%TO.C,d*%
X99061674Y-108888126D03*
X101395126Y-106554674D03*
%TD*%
%TO.C,d*%
X91390874Y-52373126D03*
X93724326Y-50039674D03*
%TD*%
D10*
%TO.C,Serial*%
X206270600Y-142631000D03*
X206270600Y-144131000D03*
X207770600Y-142631000D03*
X207770600Y-144131000D03*
D11*
X204145600Y-141106000D03*
X204145600Y-141756000D03*
X204145600Y-142406000D03*
X204145600Y-143056000D03*
X204145600Y-143706000D03*
X204145600Y-144356000D03*
X204145600Y-145006000D03*
X204145600Y-145656000D03*
X209895600Y-145656000D03*
X209895600Y-145006000D03*
X209895600Y-144356000D03*
X209895600Y-143706000D03*
X209895600Y-143056000D03*
X209895600Y-142406000D03*
X209895600Y-141756000D03*
X209895600Y-141106000D03*
%TD*%
D13*
%TO.C,M2*%
X221812000Y-88085200D03*
X221812000Y-88735200D03*
X221812000Y-89385200D03*
X221812000Y-90035200D03*
X221812000Y-90685200D03*
X221812000Y-91335200D03*
X221812000Y-91985200D03*
X221812000Y-92635200D03*
X221812000Y-93285200D03*
X221812000Y-93935200D03*
X221812000Y-94585200D03*
X221812000Y-95235200D03*
X229012000Y-95235200D03*
X229012000Y-94585200D03*
X229012000Y-93935200D03*
X229012000Y-93285200D03*
X229012000Y-92635200D03*
X229012000Y-91985200D03*
X229012000Y-91335200D03*
X229012000Y-90685200D03*
X229012000Y-90035200D03*
X229012000Y-89385200D03*
X229012000Y-88735200D03*
X229012000Y-88085200D03*
%TD*%
D14*
%TO.C,C2*%
X153122000Y-136937200D03*
X155022000Y-136937200D03*
%TD*%
%TO.C,C2*%
X164152000Y-34552400D03*
X166052000Y-34552400D03*
%TD*%
D12*
%TO.C,d*%
X59361474Y-44524526D03*
X61694926Y-42191074D03*
%TD*%
D10*
%TO.C,Serial*%
X235620600Y-38756000D03*
X235620600Y-40256000D03*
X237120600Y-38756000D03*
X237120600Y-40256000D03*
D11*
X233495600Y-37231000D03*
X233495600Y-37881000D03*
X233495600Y-38531000D03*
X233495600Y-39181000D03*
X233495600Y-39831000D03*
X233495600Y-40481000D03*
X233495600Y-41131000D03*
X233495600Y-41781000D03*
X239245600Y-41781000D03*
X239245600Y-41131000D03*
X239245600Y-40481000D03*
X239245600Y-39831000D03*
X239245600Y-39181000D03*
X239245600Y-38531000D03*
X239245600Y-37881000D03*
X239245600Y-37231000D03*
%TD*%
D12*
%TO.C,d*%
X99468074Y-44194326D03*
X101801526Y-41860874D03*
%TD*%
D14*
%TO.C,C2*%
X224822000Y-60612200D03*
X226722000Y-60612200D03*
%TD*%
D12*
%TO.C,d*%
X91441674Y-84529526D03*
X93775126Y-82196074D03*
%TD*%
%TO.C,d*%
X75363474Y-84377126D03*
X77696926Y-82043674D03*
%TD*%
D18*
%TO.C,M2*%
X223289800Y-133137000D03*
X222639800Y-133137000D03*
X221989800Y-133137000D03*
X221339800Y-133137000D03*
X220689800Y-133137000D03*
X220039800Y-133137000D03*
X219389800Y-133137000D03*
X218739800Y-133137000D03*
X218089800Y-133137000D03*
X217439800Y-133137000D03*
X216789800Y-133137000D03*
X216139800Y-133137000D03*
X216139800Y-140337000D03*
X216789800Y-140337000D03*
X217439800Y-140337000D03*
X218089800Y-140337000D03*
X218739800Y-140337000D03*
X219389800Y-140337000D03*
X220039800Y-140337000D03*
X220689800Y-140337000D03*
X221339800Y-140337000D03*
X221989800Y-140337000D03*
X222639800Y-140337000D03*
X223289800Y-140337000D03*
%TD*%
D14*
%TO.C,C2*%
X123252000Y-97077400D03*
X125152000Y-97077400D03*
%TD*%
%TO.C,C2*%
X164402000Y-72952400D03*
X166302000Y-72952400D03*
%TD*%
D12*
%TO.C,d*%
X35510874Y-76325326D03*
X37844326Y-73991874D03*
%TD*%
%TO.C,d*%
X99061674Y-76579326D03*
X101395126Y-74245874D03*
%TD*%
%TO.C,d*%
X51512874Y-100531526D03*
X53846326Y-98198074D03*
%TD*%
D14*
%TO.C,C2*%
X152997000Y-122937200D03*
X154897000Y-122937200D03*
%TD*%
%TO.C,C2*%
X184472000Y-46637200D03*
X186372000Y-46637200D03*
%TD*%
D12*
%TO.C,d*%
X43359474Y-68375126D03*
X45692926Y-66041674D03*
%TD*%
%TO.C,d*%
X35307674Y-36523526D03*
X37641126Y-34190074D03*
%TD*%
D14*
%TO.C,C2*%
X204827000Y-35352400D03*
X206727000Y-35352400D03*
%TD*%
D12*
%TO.C,d*%
X35510874Y-52652526D03*
X37844326Y-50319074D03*
%TD*%
D10*
%TO.C,Serial*%
X195195600Y-101956000D03*
X195195600Y-103456000D03*
X196695600Y-101956000D03*
X196695600Y-103456000D03*
D11*
X193070600Y-100431000D03*
X193070600Y-101081000D03*
X193070600Y-101731000D03*
X193070600Y-102381000D03*
X193070600Y-103031000D03*
X193070600Y-103681000D03*
X193070600Y-104331000D03*
X193070600Y-104981000D03*
X198820600Y-104981000D03*
X198820600Y-104331000D03*
X198820600Y-103681000D03*
X198820600Y-103031000D03*
X198820600Y-102381000D03*
X198820600Y-101731000D03*
X198820600Y-101081000D03*
X198820600Y-100431000D03*
%TD*%
D14*
%TO.C,C2*%
X123252000Y-44652400D03*
X125152000Y-44652400D03*
%TD*%
D12*
%TO.C,d*%
X50954074Y-36802926D03*
X53287526Y-34469474D03*
%TD*%
D14*
%TO.C,C2*%
X204352000Y-87302400D03*
X206252000Y-87302400D03*
%TD*%
D12*
%TO.C,d*%
X99468074Y-84377126D03*
X101801526Y-82043674D03*
%TD*%
%TO.C,d*%
X51081074Y-60450326D03*
X53414526Y-58116874D03*
%TD*%
D14*
%TO.C,C2*%
X224997000Y-48237200D03*
X226897000Y-48237200D03*
%TD*%
D12*
%TO.C,d*%
X107850074Y-100125126D03*
X110183526Y-97791674D03*
%TD*%
%TO.C,d*%
X75134874Y-52449326D03*
X77468326Y-50115874D03*
%TD*%
D14*
%TO.C,C2*%
X184872000Y-84787200D03*
X186772000Y-84787200D03*
%TD*%
D10*
%TO.C,Serial*%
X194945600Y-37956000D03*
X194945600Y-39456000D03*
X196445600Y-37956000D03*
X196445600Y-39456000D03*
D11*
X192820600Y-36431000D03*
X192820600Y-37081000D03*
X192820600Y-37731000D03*
X192820600Y-38381000D03*
X192820600Y-39031000D03*
X192820600Y-39681000D03*
X192820600Y-40331000D03*
X192820600Y-40981000D03*
X198570600Y-40981000D03*
X198570600Y-40331000D03*
X198570600Y-39681000D03*
X198570600Y-39031000D03*
X198570600Y-38381000D03*
X198570600Y-37731000D03*
X198570600Y-37081000D03*
X198570600Y-36431000D03*
%TD*%
D12*
%TO.C,d*%
X59209074Y-92174926D03*
X61542526Y-89841474D03*
%TD*%
D18*
%TO.C,M1*%
X223253400Y-122933000D03*
X222603400Y-122933000D03*
X221953400Y-122933000D03*
X221303400Y-122933000D03*
X220653400Y-122933000D03*
X220003400Y-122933000D03*
X219353400Y-122933000D03*
X218703400Y-122933000D03*
X218053400Y-122933000D03*
X217403400Y-122933000D03*
X216753400Y-122933000D03*
X216103400Y-122933000D03*
X216103400Y-130133000D03*
X216753400Y-130133000D03*
X217403400Y-130133000D03*
X218053400Y-130133000D03*
X218703400Y-130133000D03*
X219353400Y-130133000D03*
X220003400Y-130133000D03*
X220653400Y-130133000D03*
X221303400Y-130133000D03*
X221953400Y-130133000D03*
X222603400Y-130133000D03*
X223253400Y-130133000D03*
%TD*%
D13*
%TO.C,M2*%
X181462000Y-61060200D03*
X181462000Y-61710200D03*
X181462000Y-62360200D03*
X181462000Y-63010200D03*
X181462000Y-63660200D03*
X181462000Y-64310200D03*
X181462000Y-64960200D03*
X181462000Y-65610200D03*
X181462000Y-66260200D03*
X181462000Y-66910200D03*
X181462000Y-67560200D03*
X181462000Y-68210200D03*
X188662000Y-68210200D03*
X188662000Y-67560200D03*
X188662000Y-66910200D03*
X188662000Y-66260200D03*
X188662000Y-65610200D03*
X188662000Y-64960200D03*
X188662000Y-64310200D03*
X188662000Y-63660200D03*
X188662000Y-63010200D03*
X188662000Y-62360200D03*
X188662000Y-61710200D03*
X188662000Y-61060200D03*
%TD*%
M02*
