%TF.GenerationSoftware,KiCad,Pcbnew,7.0.11+dfsg-1build4*%
%TF.CreationDate,2026-05-12T16:08:46+01:00*%
%TF.ProjectId,kikad,6b696b61-642e-46b6-9963-61645f706362,rev?*%
%TF.SameCoordinates,Original*%
%TF.FileFunction,Soldermask,Bot*%
%TF.FilePolarity,Negative*%
%FSLAX46Y46*%
G04 Gerber Fmt 4.6, Leading zero omitted, Abs format (unit mm)*
G04 Created by KiCad (PCBNEW 7.0.11+dfsg-1build4) date 2026-05-12 16:08:46*
%MOMM*%
%LPD*%
G01*
G04 APERTURE LIST*
G04 Aperture macros list*
%AMRotRect*
0 Rectangle, with rotation*
0 The origin of the aperture is its center*
0 $1 length*
0 $2 width*
0 $3 Rotation angle, in degrees counterclockwise*
0 Add horizontal line*
21,1,$1,$2,0,0,$3*%
%AMFreePoly0*
4,1,19,0.500000,-0.750000,0.000000,-0.750000,0.000000,-0.744911,-0.071157,-0.744911,-0.207708,-0.704816,-0.327430,-0.627875,-0.420627,-0.520320,-0.479746,-0.390866,-0.500000,-0.250000,-0.500000,0.250000,-0.479746,0.390866,-0.420627,0.520320,-0.327430,0.627875,-0.207708,0.704816,-0.071157,0.744911,0.000000,0.744911,0.000000,0.750000,0.500000,0.750000,0.500000,-0.750000,0.500000,-0.750000,
$1*%
%AMFreePoly1*
4,1,19,0.000000,0.744911,0.071157,0.744911,0.207708,0.704816,0.327430,0.627875,0.420627,0.520320,0.479746,0.390866,0.500000,0.250000,0.500000,-0.250000,0.479746,-0.390866,0.420627,-0.520320,0.327430,-0.627875,0.207708,-0.704816,0.071157,-0.744911,0.000000,-0.744911,0.000000,-0.750000,-0.500000,-0.750000,-0.500000,0.750000,0.000000,0.750000,0.000000,0.744911,0.000000,0.744911,
$1*%
G04 Aperture macros list end*
%ADD10C,3.200000*%
%ADD11O,1.727200X1.727200*%
%ADD12R,1.600000X1.600000*%
%ADD13C,1.600000*%
%ADD14R,0.850000X0.850000*%
%ADD15O,0.850000X0.850000*%
%ADD16RotRect,2.250000X2.250000X135.000000*%
%ADD17C,2.250000*%
%ADD18R,1.980000X3.960000*%
%ADD19O,1.980000X3.960000*%
%ADD20FreePoly0,180.000000*%
%ADD21FreePoly1,180.000000*%
%ADD22FreePoly0,90.000000*%
%ADD23FreePoly1,90.000000*%
G04 APERTURE END LIST*
D10*
%TO.C,XA\u002A\u002A*%
X43688000Y-161798000D03*
X44958000Y-113538000D03*
D11*
X57658000Y-161798000D03*
D10*
X95758000Y-128778000D03*
X95758000Y-156718000D03*
X119888000Y-113538000D03*
X126238000Y-161798000D03*
D11*
X65278000Y-161798000D03*
X67818000Y-161798000D03*
X95885000Y-133858000D03*
X123698000Y-113538000D03*
X126238000Y-113538000D03*
X80518000Y-161798000D03*
X83058000Y-161798000D03*
X85598000Y-161798000D03*
X88138000Y-161798000D03*
X90678000Y-161798000D03*
X93218000Y-161798000D03*
X95758000Y-161798000D03*
X98298000Y-161798000D03*
X103378000Y-161798000D03*
X105918000Y-161798000D03*
X108458000Y-161798000D03*
X110998000Y-161798000D03*
X113538000Y-161798000D03*
X116078000Y-161798000D03*
X118618000Y-161798000D03*
X121158000Y-161798000D03*
X53594000Y-113538000D03*
X93218000Y-113538000D03*
X90678000Y-113538000D03*
X88138000Y-113538000D03*
X85598000Y-113538000D03*
X83058000Y-113538000D03*
X80518000Y-113538000D03*
X77978000Y-113538000D03*
X75438000Y-113538000D03*
X71374000Y-113538000D03*
X68834000Y-113538000D03*
X66294000Y-113538000D03*
X63754000Y-113538000D03*
X61214000Y-113538000D03*
X58674000Y-113538000D03*
X98298000Y-113538000D03*
X100838000Y-113538000D03*
X103378000Y-113538000D03*
X105918000Y-113538000D03*
X108458000Y-113538000D03*
X110998000Y-113538000D03*
X113538000Y-113538000D03*
X116078000Y-113538000D03*
X123698000Y-116078000D03*
X126238000Y-116078000D03*
X123698000Y-118618000D03*
X126238000Y-118618000D03*
X123698000Y-121158000D03*
X126238000Y-121158000D03*
X123698000Y-123698000D03*
X126238000Y-123698000D03*
X123698000Y-126238000D03*
X126238000Y-126238000D03*
X123698000Y-128778000D03*
X126238000Y-128778000D03*
X123698000Y-131318000D03*
X126238000Y-131318000D03*
X123698000Y-133858000D03*
X126238000Y-133858000D03*
X123698000Y-136398000D03*
X126238000Y-136398000D03*
X123698000Y-138938000D03*
X126238000Y-138938000D03*
X123698000Y-141478000D03*
X126238000Y-141478000D03*
X123698000Y-144018000D03*
X126238000Y-144018000D03*
X123698000Y-146558000D03*
X126238000Y-146558000D03*
X123698000Y-149098000D03*
X126238000Y-149098000D03*
X123698000Y-151638000D03*
X126238000Y-151638000D03*
X123698000Y-154178000D03*
X126238000Y-154178000D03*
X56134000Y-113538000D03*
X70358000Y-161798000D03*
X72898000Y-161798000D03*
X95885000Y-138938000D03*
X123698000Y-156718000D03*
X126238000Y-156718000D03*
X60198000Y-161798000D03*
X93345000Y-133858000D03*
X95885000Y-136398000D03*
X62738000Y-161798000D03*
X93345000Y-138938000D03*
X93345000Y-136398000D03*
X48514000Y-113538000D03*
X51054000Y-113538000D03*
X75438000Y-161798000D03*
%TD*%
D12*
%TO.C,big_cap*%
X221000000Y-156070000D03*
D13*
X221000000Y-159870000D03*
%TD*%
D14*
%TO.C,REF\u002A\u002A*%
X250375000Y-131300000D03*
D15*
X251375000Y-131300000D03*
X250375000Y-132300000D03*
X251375000Y-132300000D03*
X250375000Y-133300000D03*
X251375000Y-133300000D03*
X250375000Y-134300000D03*
X251375000Y-134300000D03*
X250375000Y-135300000D03*
X251375000Y-135300000D03*
X250375000Y-136300000D03*
X251375000Y-136300000D03*
X250375000Y-137300000D03*
X251375000Y-137300000D03*
X250375000Y-138300000D03*
X251375000Y-138300000D03*
X250375000Y-139300000D03*
X251375000Y-139300000D03*
X250375000Y-140300000D03*
X251375000Y-140300000D03*
X250375000Y-141300000D03*
X251375000Y-141300000D03*
X250375000Y-142300000D03*
X251375000Y-142300000D03*
X250375000Y-143300000D03*
X251375000Y-143300000D03*
X250375000Y-144300000D03*
X251375000Y-144300000D03*
X250375000Y-145300000D03*
X251375000Y-145300000D03*
X250375000Y-146300000D03*
X251375000Y-146300000D03*
X250375000Y-147300000D03*
X251375000Y-147300000D03*
X250375000Y-148300000D03*
X251375000Y-148300000D03*
X250375000Y-149300000D03*
X251375000Y-149300000D03*
X250375000Y-150300000D03*
X251375000Y-150300000D03*
%TD*%
D14*
%TO.C,m3*%
X174323200Y-131636200D03*
D15*
X174323200Y-132636200D03*
%TD*%
D14*
%TO.C,m2*%
X177578400Y-114097200D03*
D15*
X177578400Y-115097200D03*
%TD*%
D16*
%TO.C,Button*%
X88214200Y-51155600D03*
D17*
X92810394Y-46559406D03*
%TD*%
D16*
%TO.C,Button*%
X103964804Y-83461797D03*
D17*
X108560998Y-78865603D03*
%TD*%
D16*
%TO.C,Button*%
X63855600Y-59207400D03*
D17*
X68451794Y-54611206D03*
%TD*%
D14*
%TO.C,m1*%
X203623200Y-63863400D03*
D15*
X203623200Y-64863400D03*
%TD*%
D16*
%TO.C,Button*%
X96344804Y-91411997D03*
D17*
X100940998Y-86815803D03*
%TD*%
D14*
%TO.C,m2*%
X207303400Y-51547200D03*
D15*
X207303400Y-52547200D03*
%TD*%
D14*
%TO.C,REF\u002A\u002A*%
X236025000Y-131275000D03*
D15*
X237025000Y-131275000D03*
X236025000Y-132275000D03*
X237025000Y-132275000D03*
X236025000Y-133275000D03*
X237025000Y-133275000D03*
X236025000Y-134275000D03*
X237025000Y-134275000D03*
X236025000Y-135275000D03*
X237025000Y-135275000D03*
X236025000Y-136275000D03*
X237025000Y-136275000D03*
X236025000Y-137275000D03*
X237025000Y-137275000D03*
X236025000Y-138275000D03*
X237025000Y-138275000D03*
X236025000Y-139275000D03*
X237025000Y-139275000D03*
X236025000Y-140275000D03*
X237025000Y-140275000D03*
X236025000Y-141275000D03*
X237025000Y-141275000D03*
X236025000Y-142275000D03*
X237025000Y-142275000D03*
X236025000Y-143275000D03*
X237025000Y-143275000D03*
X236025000Y-144275000D03*
X237025000Y-144275000D03*
X236025000Y-145275000D03*
X237025000Y-145275000D03*
X236025000Y-146275000D03*
X237025000Y-146275000D03*
X236025000Y-147275000D03*
X237025000Y-147275000D03*
X236025000Y-148275000D03*
X237025000Y-148275000D03*
X236025000Y-149275000D03*
X237025000Y-149275000D03*
X236025000Y-150275000D03*
X237025000Y-150275000D03*
%TD*%
D16*
%TO.C,Button*%
X63883604Y-106982197D03*
D17*
X68479798Y-102386003D03*
%TD*%
D14*
%TO.C,m3*%
X163273200Y-54011200D03*
D15*
X163273200Y-55011200D03*
%TD*%
D14*
%TO.C,m2*%
X166778400Y-36897200D03*
D15*
X166778400Y-37897200D03*
%TD*%
D14*
%TO.C,m1*%
X203948200Y-37638400D03*
D15*
X203948200Y-38638400D03*
%TD*%
D14*
%TO.C,m1*%
X163673200Y-88038400D03*
D15*
X163673200Y-89038400D03*
%TD*%
D16*
%TO.C,Button*%
X72313800Y-35661600D03*
D17*
X76909994Y-31065406D03*
%TD*%
D14*
%TO.C,m2*%
X167028400Y-100897200D03*
D15*
X167028400Y-101897200D03*
%TD*%
D16*
%TO.C,Button*%
X95938404Y-67383597D03*
D17*
X100534598Y-62787403D03*
%TD*%
D16*
%TO.C,Button*%
X96164400Y-35255200D03*
D17*
X100760594Y-30659006D03*
%TD*%
D14*
%TO.C,m1*%
X122623200Y-85563400D03*
D15*
X122623200Y-86563400D03*
%TD*%
D14*
%TO.C,REF\u002A\u002A*%
X240100000Y-111275000D03*
D15*
X241100000Y-111275000D03*
X240100000Y-112275000D03*
X241100000Y-112275000D03*
X240100000Y-113275000D03*
X241100000Y-113275000D03*
X240100000Y-114275000D03*
X241100000Y-114275000D03*
X240100000Y-115275000D03*
X241100000Y-115275000D03*
X240100000Y-116275000D03*
X241100000Y-116275000D03*
X240100000Y-117275000D03*
X241100000Y-117275000D03*
X240100000Y-118275000D03*
X241100000Y-118275000D03*
X240100000Y-119275000D03*
X241100000Y-119275000D03*
X240100000Y-120275000D03*
X241100000Y-120275000D03*
X240100000Y-121275000D03*
X241100000Y-121275000D03*
X240100000Y-122275000D03*
X241100000Y-122275000D03*
X240100000Y-123275000D03*
X241100000Y-123275000D03*
X240100000Y-124275000D03*
X241100000Y-124275000D03*
X240100000Y-125275000D03*
X241100000Y-125275000D03*
X240100000Y-126275000D03*
X241100000Y-126275000D03*
X240100000Y-127275000D03*
X241100000Y-127275000D03*
X240100000Y-128275000D03*
X241100000Y-128275000D03*
X240100000Y-129275000D03*
X241100000Y-129275000D03*
X240100000Y-130275000D03*
X241100000Y-130275000D03*
%TD*%
D16*
%TO.C,Button*%
X48135604Y-90903997D03*
D17*
X52731798Y-86307803D03*
%TD*%
D14*
%TO.C,m4*%
X207303400Y-55552400D03*
D15*
X207303400Y-56552400D03*
%TD*%
D14*
%TO.C,m4*%
X167028400Y-104902400D03*
D15*
X167028400Y-105902400D03*
%TD*%
D14*
%TO.C,REF\u002A\u002A*%
X233975000Y-131275000D03*
D15*
X234975000Y-131275000D03*
X233975000Y-132275000D03*
X234975000Y-132275000D03*
X233975000Y-133275000D03*
X234975000Y-133275000D03*
X233975000Y-134275000D03*
X234975000Y-134275000D03*
X233975000Y-135275000D03*
X234975000Y-135275000D03*
X233975000Y-136275000D03*
X234975000Y-136275000D03*
X233975000Y-137275000D03*
X234975000Y-137275000D03*
X233975000Y-138275000D03*
X234975000Y-138275000D03*
X233975000Y-139275000D03*
X234975000Y-139275000D03*
X233975000Y-140275000D03*
X234975000Y-140275000D03*
X233975000Y-141275000D03*
X234975000Y-141275000D03*
X233975000Y-142275000D03*
X234975000Y-142275000D03*
X233975000Y-143275000D03*
X234975000Y-143275000D03*
X233975000Y-144275000D03*
X234975000Y-144275000D03*
X233975000Y-145275000D03*
X234975000Y-145275000D03*
X233975000Y-146275000D03*
X234975000Y-146275000D03*
X233975000Y-147275000D03*
X234975000Y-147275000D03*
X233975000Y-148275000D03*
X234975000Y-148275000D03*
X233975000Y-149275000D03*
X234975000Y-149275000D03*
X233975000Y-150275000D03*
X234975000Y-150275000D03*
%TD*%
D14*
%TO.C,m1*%
X203748200Y-76788400D03*
D15*
X203748200Y-77788400D03*
%TD*%
D14*
%TO.C,m2*%
X221727800Y-118303400D03*
D15*
X220727800Y-118303400D03*
%TD*%
D14*
%TO.C,REF\u002A\u002A*%
X244200000Y-111275000D03*
D15*
X245200000Y-111275000D03*
X244200000Y-112275000D03*
X245200000Y-112275000D03*
X244200000Y-113275000D03*
X245200000Y-113275000D03*
X244200000Y-114275000D03*
X245200000Y-114275000D03*
X244200000Y-115275000D03*
X245200000Y-115275000D03*
X244200000Y-116275000D03*
X245200000Y-116275000D03*
X244200000Y-117275000D03*
X245200000Y-117275000D03*
X244200000Y-118275000D03*
X245200000Y-118275000D03*
X244200000Y-119275000D03*
X245200000Y-119275000D03*
X244200000Y-120275000D03*
X245200000Y-120275000D03*
X244200000Y-121275000D03*
X245200000Y-121275000D03*
X244200000Y-122275000D03*
X245200000Y-122275000D03*
X244200000Y-123275000D03*
X245200000Y-123275000D03*
X244200000Y-124275000D03*
X245200000Y-124275000D03*
X244200000Y-125275000D03*
X245200000Y-125275000D03*
X244200000Y-126275000D03*
X245200000Y-126275000D03*
X244200000Y-127275000D03*
X245200000Y-127275000D03*
X244200000Y-128275000D03*
X245200000Y-128275000D03*
X244200000Y-129275000D03*
X245200000Y-129275000D03*
X244200000Y-130275000D03*
X245200000Y-130275000D03*
%TD*%
D16*
%TO.C,Button*%
X32057404Y-98955797D03*
D17*
X36653598Y-94359603D03*
%TD*%
D14*
%TO.C,m4*%
X126032800Y-63671400D03*
D15*
X126032800Y-64671400D03*
%TD*%
D14*
%TO.C,m1*%
X163123200Y-62563400D03*
D15*
X163123200Y-63563400D03*
%TD*%
D14*
%TO.C,m2*%
X125878400Y-46997200D03*
D15*
X125878400Y-47997200D03*
%TD*%
D14*
%TO.C,m4*%
X167178400Y-92102400D03*
D15*
X167178400Y-93102400D03*
%TD*%
D14*
%TO.C,m2*%
X207453400Y-37697200D03*
D15*
X207453400Y-38697200D03*
%TD*%
D16*
%TO.C,Button*%
X40185404Y-99108197D03*
D17*
X44781598Y-94512003D03*
%TD*%
D16*
%TO.C,Button*%
X103962200Y-59105800D03*
D17*
X108558394Y-54509606D03*
%TD*%
D14*
%TO.C,m2*%
X166628400Y-62622200D03*
D15*
X166628400Y-63622200D03*
%TD*%
D16*
%TO.C,Button*%
X104292400Y-35331400D03*
D17*
X108888594Y-30735206D03*
%TD*%
D14*
%TO.C,m2*%
X126128400Y-85622200D03*
D15*
X126128400Y-86622200D03*
%TD*%
D14*
%TO.C,m1*%
X203473200Y-89588400D03*
D15*
X203473200Y-90588400D03*
%TD*%
D16*
%TO.C,Button*%
X31828804Y-90903997D03*
D17*
X36424998Y-86307803D03*
%TD*%
D16*
%TO.C,Button*%
X80114204Y-83283997D03*
D17*
X84710398Y-78687803D03*
%TD*%
D16*
%TO.C,Button*%
X32207200Y-59029600D03*
D17*
X36803394Y-54433406D03*
%TD*%
D16*
%TO.C,Button*%
X32133604Y-75333797D03*
D17*
X36729798Y-70737603D03*
%TD*%
D16*
%TO.C,Button*%
X104066404Y-99108197D03*
D17*
X108662598Y-94512003D03*
%TD*%
D16*
%TO.C,Button*%
X32054800Y-51409600D03*
D17*
X36650994Y-46813406D03*
%TD*%
D14*
%TO.C,m2*%
X178103400Y-141572200D03*
D15*
X178103400Y-142572200D03*
%TD*%
D14*
%TO.C,REF\u002A\u002A*%
X231925000Y-131275000D03*
D15*
X232925000Y-131275000D03*
X231925000Y-132275000D03*
X232925000Y-132275000D03*
X231925000Y-133275000D03*
X232925000Y-133275000D03*
X231925000Y-134275000D03*
X232925000Y-134275000D03*
X231925000Y-135275000D03*
X232925000Y-135275000D03*
X231925000Y-136275000D03*
X232925000Y-136275000D03*
X231925000Y-137275000D03*
X232925000Y-137275000D03*
X231925000Y-138275000D03*
X232925000Y-138275000D03*
X231925000Y-139275000D03*
X232925000Y-139275000D03*
X231925000Y-140275000D03*
X232925000Y-140275000D03*
X231925000Y-141275000D03*
X232925000Y-141275000D03*
X231925000Y-142275000D03*
X232925000Y-142275000D03*
X231925000Y-143275000D03*
X232925000Y-143275000D03*
X231925000Y-144275000D03*
X232925000Y-144275000D03*
X231925000Y-145275000D03*
X232925000Y-145275000D03*
X231925000Y-146275000D03*
X232925000Y-146275000D03*
X231925000Y-147275000D03*
X232925000Y-147275000D03*
X231925000Y-148275000D03*
X232925000Y-148275000D03*
X231925000Y-149275000D03*
X232925000Y-149275000D03*
X231925000Y-150275000D03*
X232925000Y-150275000D03*
%TD*%
D16*
%TO.C,Button*%
X63883604Y-75333797D03*
D17*
X68479798Y-70737603D03*
%TD*%
D14*
%TO.C,m3*%
X203948200Y-41761200D03*
D15*
X203948200Y-42761200D03*
%TD*%
D16*
%TO.C,Button*%
X88318404Y-83283997D03*
D17*
X92914598Y-78687803D03*
%TD*%
D16*
%TO.C,Button*%
X63931800Y-43535600D03*
D17*
X68527994Y-38939406D03*
%TD*%
D14*
%TO.C,m1*%
X122848200Y-72663400D03*
D15*
X122848200Y-73663400D03*
%TD*%
D14*
%TO.C,m3*%
X122848200Y-76786200D03*
D15*
X122848200Y-77786200D03*
%TD*%
D14*
%TO.C,m2*%
X126353400Y-72722200D03*
D15*
X126353400Y-73722200D03*
%TD*%
D16*
%TO.C,Button*%
X64033400Y-35331400D03*
D17*
X68629594Y-30735206D03*
%TD*%
D14*
%TO.C,m3*%
X203623200Y-67986200D03*
D15*
X203623200Y-68986200D03*
%TD*%
D16*
%TO.C,Button*%
X64036004Y-83029997D03*
D17*
X68632198Y-78433803D03*
%TD*%
D14*
%TO.C,m1*%
X131923200Y-140188400D03*
D15*
X131923200Y-141188400D03*
%TD*%
D14*
%TO.C,m2*%
X135303400Y-126247200D03*
D15*
X135303400Y-127247200D03*
%TD*%
D14*
%TO.C,m4*%
X125878400Y-103427400D03*
D15*
X125878400Y-104427400D03*
%TD*%
D16*
%TO.C,Button*%
X71833804Y-107312397D03*
D17*
X76429998Y-102716203D03*
%TD*%
D14*
%TO.C,m4*%
X126128400Y-89627400D03*
D15*
X126128400Y-90627400D03*
%TD*%
D16*
%TO.C,Button*%
X96012000Y-59029600D03*
D17*
X100608194Y-54433406D03*
%TD*%
D16*
%TO.C,Button*%
X79857600Y-51155600D03*
D17*
X84453794Y-46559406D03*
%TD*%
D14*
%TO.C,m4*%
X167028400Y-79302400D03*
D15*
X167028400Y-80302400D03*
%TD*%
D14*
%TO.C,m4*%
X135303400Y-130252400D03*
D15*
X135303400Y-131252400D03*
%TD*%
D14*
%TO.C,m4*%
X207378400Y-106877400D03*
D15*
X207378400Y-107877400D03*
%TD*%
D14*
%TO.C,m4*%
X125878400Y-51002400D03*
D15*
X125878400Y-52002400D03*
%TD*%
D16*
%TO.C,Button*%
X96116204Y-83283997D03*
D17*
X100712398Y-78687803D03*
%TD*%
D14*
%TO.C,m2*%
X125878400Y-99422200D03*
D15*
X125878400Y-100422200D03*
%TD*%
D16*
%TO.C,Button*%
X48059404Y-107312397D03*
D17*
X52655598Y-102716203D03*
%TD*%
D16*
%TO.C,Button*%
X56162004Y-82953797D03*
D17*
X60758198Y-78357603D03*
%TD*%
D14*
%TO.C,m3*%
X122623200Y-89686200D03*
D15*
X122623200Y-90686200D03*
%TD*%
D16*
%TO.C,Button*%
X48107600Y-67157600D03*
D17*
X52703794Y-62561406D03*
%TD*%
D16*
%TO.C,Button*%
X56085804Y-99285997D03*
D17*
X60681998Y-94689803D03*
%TD*%
D14*
%TO.C,m2*%
X167178400Y-88097200D03*
D15*
X167178400Y-89097200D03*
%TD*%
D14*
%TO.C,REF\u002A\u002A*%
X246250000Y-111275000D03*
D15*
X247250000Y-111275000D03*
X246250000Y-112275000D03*
X247250000Y-112275000D03*
X246250000Y-113275000D03*
X247250000Y-113275000D03*
X246250000Y-114275000D03*
X247250000Y-114275000D03*
X246250000Y-115275000D03*
X247250000Y-115275000D03*
X246250000Y-116275000D03*
X247250000Y-116275000D03*
X246250000Y-117275000D03*
X247250000Y-117275000D03*
X246250000Y-118275000D03*
X247250000Y-118275000D03*
X246250000Y-119275000D03*
X247250000Y-119275000D03*
X246250000Y-120275000D03*
X247250000Y-120275000D03*
X246250000Y-121275000D03*
X247250000Y-121275000D03*
X246250000Y-122275000D03*
X247250000Y-122275000D03*
X246250000Y-123275000D03*
X247250000Y-123275000D03*
X246250000Y-124275000D03*
X247250000Y-124275000D03*
X246250000Y-125275000D03*
X247250000Y-125275000D03*
X246250000Y-126275000D03*
X247250000Y-126275000D03*
X246250000Y-127275000D03*
X247250000Y-127275000D03*
X246250000Y-128275000D03*
X247250000Y-128275000D03*
X246250000Y-129275000D03*
X247250000Y-129275000D03*
X246250000Y-130275000D03*
X247250000Y-130275000D03*
%TD*%
D14*
%TO.C,m3*%
X217663800Y-114798200D03*
D15*
X216663800Y-114798200D03*
%TD*%
D16*
%TO.C,Button*%
X71986204Y-83207797D03*
D17*
X76582398Y-78611603D03*
%TD*%
D16*
%TO.C,Button*%
X79933800Y-67310000D03*
D17*
X84529994Y-62713806D03*
%TD*%
D14*
%TO.C,m1*%
X131648200Y-113113400D03*
D15*
X131648200Y-114113400D03*
%TD*%
D14*
%TO.C,m1*%
X174073200Y-114038400D03*
D15*
X174073200Y-115038400D03*
%TD*%
D14*
%TO.C,REF\u002A\u002A*%
X248325000Y-131300000D03*
D15*
X249325000Y-131300000D03*
X248325000Y-132300000D03*
X249325000Y-132300000D03*
X248325000Y-133300000D03*
X249325000Y-133300000D03*
X248325000Y-134300000D03*
X249325000Y-134300000D03*
X248325000Y-135300000D03*
X249325000Y-135300000D03*
X248325000Y-136300000D03*
X249325000Y-136300000D03*
X248325000Y-137300000D03*
X249325000Y-137300000D03*
X248325000Y-138300000D03*
X249325000Y-138300000D03*
X248325000Y-139300000D03*
X249325000Y-139300000D03*
X248325000Y-140300000D03*
X249325000Y-140300000D03*
X248325000Y-141300000D03*
X249325000Y-141300000D03*
X248325000Y-142300000D03*
X249325000Y-142300000D03*
X248325000Y-143300000D03*
X249325000Y-143300000D03*
X248325000Y-144300000D03*
X249325000Y-144300000D03*
X248325000Y-145300000D03*
X249325000Y-145300000D03*
X248325000Y-146300000D03*
X249325000Y-146300000D03*
X248325000Y-147300000D03*
X249325000Y-147300000D03*
X248325000Y-148300000D03*
X249325000Y-148300000D03*
X248325000Y-149300000D03*
X249325000Y-149300000D03*
X248325000Y-150300000D03*
X249325000Y-150300000D03*
%TD*%
D16*
%TO.C,Button*%
X104066404Y-91234197D03*
D17*
X108662598Y-86638003D03*
%TD*%
D14*
%TO.C,m2*%
X166778400Y-49947200D03*
D15*
X166778400Y-50947200D03*
%TD*%
D14*
%TO.C,m1*%
X221786600Y-114798200D03*
D15*
X220786600Y-114798200D03*
%TD*%
D14*
%TO.C,m3*%
X163523200Y-79361200D03*
D15*
X163523200Y-80361200D03*
%TD*%
D16*
%TO.C,Button*%
X71983600Y-43129200D03*
D17*
X76579794Y-38533006D03*
%TD*%
D16*
%TO.C,Button*%
X40185404Y-91005597D03*
D17*
X44781598Y-86409403D03*
%TD*%
D16*
%TO.C,Button*%
X104218804Y-107464797D03*
D17*
X108814998Y-102868603D03*
%TD*%
D16*
%TO.C,Button*%
X47879000Y-35661600D03*
D17*
X52475194Y-31065406D03*
%TD*%
D14*
%TO.C,m1*%
X174598200Y-141513400D03*
D15*
X174598200Y-142513400D03*
%TD*%
D14*
%TO.C,m3*%
X131798200Y-130311200D03*
D15*
X131798200Y-131311200D03*
%TD*%
D16*
%TO.C,Button*%
X39827200Y-43383200D03*
D17*
X44423394Y-38787006D03*
%TD*%
D14*
%TO.C,m1*%
X122123200Y-34188400D03*
D15*
X122123200Y-35188400D03*
%TD*%
D14*
%TO.C,m3*%
X203473200Y-93711200D03*
D15*
X203473200Y-94711200D03*
%TD*%
D16*
%TO.C,Button*%
X80010000Y-59537600D03*
D17*
X84606194Y-54941406D03*
%TD*%
D14*
%TO.C,m1*%
X122373200Y-46938400D03*
D15*
X122373200Y-47938400D03*
%TD*%
D16*
%TO.C,Button*%
X40081200Y-59283600D03*
D17*
X44677394Y-54687406D03*
%TD*%
D16*
%TO.C,Button*%
X104292400Y-42722800D03*
D17*
X108888594Y-38126606D03*
%TD*%
D14*
%TO.C,m3*%
X163123200Y-66686200D03*
D15*
X163123200Y-67686200D03*
%TD*%
D16*
%TO.C,Button*%
X56162004Y-75486197D03*
D17*
X60758198Y-70890003D03*
%TD*%
D14*
%TO.C,REF\u002A\u002A*%
X238075000Y-131300000D03*
D15*
X239075000Y-131300000D03*
X238075000Y-132300000D03*
X239075000Y-132300000D03*
X238075000Y-133300000D03*
X239075000Y-133300000D03*
X238075000Y-134300000D03*
X239075000Y-134300000D03*
X238075000Y-135300000D03*
X239075000Y-135300000D03*
X238075000Y-136300000D03*
X239075000Y-136300000D03*
X238075000Y-137300000D03*
X239075000Y-137300000D03*
X238075000Y-138300000D03*
X239075000Y-138300000D03*
X238075000Y-139300000D03*
X239075000Y-139300000D03*
X238075000Y-140300000D03*
X239075000Y-140300000D03*
X238075000Y-141300000D03*
X239075000Y-141300000D03*
X238075000Y-142300000D03*
X239075000Y-142300000D03*
X238075000Y-143300000D03*
X239075000Y-143300000D03*
X238075000Y-144300000D03*
X239075000Y-144300000D03*
X238075000Y-145300000D03*
X239075000Y-145300000D03*
X238075000Y-146300000D03*
X239075000Y-146300000D03*
X238075000Y-147300000D03*
X239075000Y-147300000D03*
X238075000Y-148300000D03*
X239075000Y-148300000D03*
X238075000Y-149300000D03*
X239075000Y-149300000D03*
X238075000Y-150300000D03*
X239075000Y-150300000D03*
%TD*%
D16*
%TO.C,Button*%
X31905004Y-82877597D03*
D17*
X36501198Y-78281403D03*
%TD*%
D16*
%TO.C,Button*%
X79707804Y-75486197D03*
D17*
X84303998Y-70890003D03*
%TD*%
D16*
%TO.C,Button*%
X88214200Y-43205400D03*
D17*
X92810394Y-38609206D03*
%TD*%
D14*
%TO.C,m4*%
X166778400Y-40902400D03*
D15*
X166778400Y-41902400D03*
%TD*%
D16*
%TO.C,Button*%
X48211804Y-99285997D03*
D17*
X52807998Y-94689803D03*
%TD*%
D14*
%TO.C,m4*%
X126353400Y-76727400D03*
D15*
X126353400Y-77727400D03*
%TD*%
D14*
%TO.C,m3*%
X174073200Y-118161200D03*
D15*
X174073200Y-119161200D03*
%TD*%
D14*
%TO.C,REF\u002A\u002A*%
X252425000Y-131300000D03*
D15*
X253425000Y-131300000D03*
X252425000Y-132300000D03*
X253425000Y-132300000D03*
X252425000Y-133300000D03*
X253425000Y-133300000D03*
X252425000Y-134300000D03*
X253425000Y-134300000D03*
X252425000Y-135300000D03*
X253425000Y-135300000D03*
X252425000Y-136300000D03*
X253425000Y-136300000D03*
X252425000Y-137300000D03*
X253425000Y-137300000D03*
X252425000Y-138300000D03*
X253425000Y-138300000D03*
X252425000Y-139300000D03*
X253425000Y-139300000D03*
X252425000Y-140300000D03*
X253425000Y-140300000D03*
X252425000Y-141300000D03*
X253425000Y-141300000D03*
X252425000Y-142300000D03*
X253425000Y-142300000D03*
X252425000Y-143300000D03*
X253425000Y-143300000D03*
X252425000Y-144300000D03*
X253425000Y-144300000D03*
X252425000Y-145300000D03*
X253425000Y-145300000D03*
X252425000Y-146300000D03*
X253425000Y-146300000D03*
X252425000Y-147300000D03*
X253425000Y-147300000D03*
X252425000Y-148300000D03*
X253425000Y-148300000D03*
X252425000Y-149300000D03*
X253425000Y-149300000D03*
X252425000Y-150300000D03*
X253425000Y-150300000D03*
%TD*%
D14*
%TO.C,m1*%
X122373200Y-99363400D03*
D15*
X122373200Y-100363400D03*
%TD*%
D16*
%TO.C,Button*%
X48031400Y-43281600D03*
D17*
X52627594Y-38685406D03*
%TD*%
D16*
%TO.C,Button*%
X47729204Y-75257597D03*
D17*
X52325398Y-70661403D03*
%TD*%
D16*
%TO.C,Button*%
X64262000Y-51155600D03*
D17*
X68858194Y-46559406D03*
%TD*%
D14*
%TO.C,m3*%
X122123200Y-38311200D03*
D15*
X122123200Y-39311200D03*
%TD*%
D16*
%TO.C,Button*%
X48135604Y-82953797D03*
D17*
X52731798Y-78357603D03*
%TD*%
D14*
%TO.C,REF\u002A\u002A*%
X240125000Y-131300000D03*
D15*
X241125000Y-131300000D03*
X240125000Y-132300000D03*
X241125000Y-132300000D03*
X240125000Y-133300000D03*
X241125000Y-133300000D03*
X240125000Y-134300000D03*
X241125000Y-134300000D03*
X240125000Y-135300000D03*
X241125000Y-135300000D03*
X240125000Y-136300000D03*
X241125000Y-136300000D03*
X240125000Y-137300000D03*
X241125000Y-137300000D03*
X240125000Y-138300000D03*
X241125000Y-138300000D03*
X240125000Y-139300000D03*
X241125000Y-139300000D03*
X240125000Y-140300000D03*
X241125000Y-140300000D03*
X240125000Y-141300000D03*
X241125000Y-141300000D03*
X240125000Y-142300000D03*
X241125000Y-142300000D03*
X240125000Y-143300000D03*
X241125000Y-143300000D03*
X240125000Y-144300000D03*
X241125000Y-144300000D03*
X240125000Y-145300000D03*
X241125000Y-145300000D03*
X240125000Y-146300000D03*
X241125000Y-146300000D03*
X240125000Y-147300000D03*
X241125000Y-147300000D03*
X240125000Y-148300000D03*
X241125000Y-148300000D03*
X240125000Y-149300000D03*
X241125000Y-149300000D03*
X240125000Y-150300000D03*
X241125000Y-150300000D03*
%TD*%
D16*
%TO.C,Button*%
X80190404Y-107058397D03*
D17*
X84786598Y-102462203D03*
%TD*%
D14*
%TO.C,m3*%
X131648200Y-117236200D03*
D15*
X131648200Y-118236200D03*
%TD*%
D14*
%TO.C,m3*%
X203748200Y-80911200D03*
D15*
X203748200Y-81911200D03*
%TD*%
D14*
%TO.C,m2*%
X206978400Y-89647200D03*
D15*
X206978400Y-90647200D03*
%TD*%
D16*
%TO.C,Button*%
X72087804Y-91234197D03*
D17*
X76683998Y-86638003D03*
%TD*%
D14*
%TO.C,m4*%
X217722600Y-118303400D03*
D15*
X216722600Y-118303400D03*
%TD*%
D16*
%TO.C,Button*%
X95938404Y-75409997D03*
D17*
X100534598Y-70813803D03*
%TD*%
D16*
%TO.C,Button*%
X40109204Y-106982197D03*
D17*
X44705398Y-102386003D03*
%TD*%
D16*
%TO.C,Button*%
X55933404Y-107236197D03*
D17*
X60529598Y-102640003D03*
%TD*%
D14*
%TO.C,m4*%
X207128400Y-67927400D03*
D15*
X207128400Y-68927400D03*
%TD*%
D14*
%TO.C,REF\u002A\u002A*%
X242175000Y-131300000D03*
D15*
X243175000Y-131300000D03*
X242175000Y-132300000D03*
X243175000Y-132300000D03*
X242175000Y-133300000D03*
X243175000Y-133300000D03*
X242175000Y-134300000D03*
X243175000Y-134300000D03*
X242175000Y-135300000D03*
X243175000Y-135300000D03*
X242175000Y-136300000D03*
X243175000Y-136300000D03*
X242175000Y-137300000D03*
X243175000Y-137300000D03*
X242175000Y-138300000D03*
X243175000Y-138300000D03*
X242175000Y-139300000D03*
X243175000Y-139300000D03*
X242175000Y-140300000D03*
X243175000Y-140300000D03*
X242175000Y-141300000D03*
X243175000Y-141300000D03*
X242175000Y-142300000D03*
X243175000Y-142300000D03*
X242175000Y-143300000D03*
X243175000Y-143300000D03*
X242175000Y-144300000D03*
X243175000Y-144300000D03*
X242175000Y-145300000D03*
X243175000Y-145300000D03*
X242175000Y-146300000D03*
X243175000Y-146300000D03*
X242175000Y-147300000D03*
X243175000Y-147300000D03*
X242175000Y-148300000D03*
X243175000Y-148300000D03*
X242175000Y-149300000D03*
X243175000Y-149300000D03*
X242175000Y-150300000D03*
X243175000Y-150300000D03*
%TD*%
D14*
%TO.C,m1*%
X163523200Y-75238400D03*
D15*
X163523200Y-76238400D03*
%TD*%
D14*
%TO.C,m1*%
X163273200Y-49888400D03*
D15*
X163273200Y-50888400D03*
%TD*%
D14*
%TO.C,REF\u002A\u002A*%
X250350000Y-111275000D03*
D15*
X251350000Y-111275000D03*
X250350000Y-112275000D03*
X251350000Y-112275000D03*
X250350000Y-113275000D03*
X251350000Y-113275000D03*
X250350000Y-114275000D03*
X251350000Y-114275000D03*
X250350000Y-115275000D03*
X251350000Y-115275000D03*
X250350000Y-116275000D03*
X251350000Y-116275000D03*
X250350000Y-117275000D03*
X251350000Y-117275000D03*
X250350000Y-118275000D03*
X251350000Y-118275000D03*
X250350000Y-119275000D03*
X251350000Y-119275000D03*
X250350000Y-120275000D03*
X251350000Y-120275000D03*
X250350000Y-121275000D03*
X251350000Y-121275000D03*
X250350000Y-122275000D03*
X251350000Y-122275000D03*
X250350000Y-123275000D03*
X251350000Y-123275000D03*
X250350000Y-124275000D03*
X251350000Y-124275000D03*
X250350000Y-125275000D03*
X251350000Y-125275000D03*
X250350000Y-126275000D03*
X251350000Y-126275000D03*
X250350000Y-127275000D03*
X251350000Y-127275000D03*
X250350000Y-128275000D03*
X251350000Y-128275000D03*
X250350000Y-129275000D03*
X251350000Y-129275000D03*
X250350000Y-130275000D03*
X251350000Y-130275000D03*
%TD*%
D16*
%TO.C,Button*%
X88318404Y-107312397D03*
D17*
X92914598Y-102716203D03*
%TD*%
D16*
%TO.C,Button*%
X87912004Y-75333797D03*
D17*
X92508198Y-70737603D03*
%TD*%
D14*
%TO.C,REF\u002A\u002A*%
X229875000Y-131275000D03*
D15*
X230875000Y-131275000D03*
X229875000Y-132275000D03*
X230875000Y-132275000D03*
X229875000Y-133275000D03*
X230875000Y-133275000D03*
X229875000Y-134275000D03*
X230875000Y-134275000D03*
X229875000Y-135275000D03*
X230875000Y-135275000D03*
X229875000Y-136275000D03*
X230875000Y-136275000D03*
X229875000Y-137275000D03*
X230875000Y-137275000D03*
X229875000Y-138275000D03*
X230875000Y-138275000D03*
X229875000Y-139275000D03*
X230875000Y-139275000D03*
X229875000Y-140275000D03*
X230875000Y-140275000D03*
X229875000Y-141275000D03*
X230875000Y-141275000D03*
X229875000Y-142275000D03*
X230875000Y-142275000D03*
X229875000Y-143275000D03*
X230875000Y-143275000D03*
X229875000Y-144275000D03*
X230875000Y-144275000D03*
X229875000Y-145275000D03*
X230875000Y-145275000D03*
X229875000Y-146275000D03*
X230875000Y-146275000D03*
X229875000Y-147275000D03*
X230875000Y-147275000D03*
X229875000Y-148275000D03*
X230875000Y-148275000D03*
X229875000Y-149275000D03*
X230875000Y-149275000D03*
X229875000Y-150275000D03*
X230875000Y-150275000D03*
%TD*%
D16*
%TO.C,Button*%
X48031400Y-51155600D03*
D17*
X52627594Y-46559406D03*
%TD*%
D16*
%TO.C,Button*%
X80190404Y-99184397D03*
D17*
X84786598Y-94588203D03*
%TD*%
D14*
%TO.C,m3*%
X203798200Y-55611200D03*
D15*
X203798200Y-56611200D03*
%TD*%
D14*
%TO.C,m4*%
X207453400Y-41702400D03*
D15*
X207453400Y-42702400D03*
%TD*%
D16*
%TO.C,Button*%
X40185404Y-75409997D03*
D17*
X44781598Y-70813803D03*
%TD*%
D16*
%TO.C,Button*%
X71805800Y-51485800D03*
D17*
X76401994Y-46889606D03*
%TD*%
D18*
%TO.C,Power*%
X241850000Y-157350000D03*
D19*
X246850000Y-157350000D03*
%TD*%
D14*
%TO.C,m1*%
X122527600Y-59607400D03*
D15*
X122527600Y-60607400D03*
%TD*%
D16*
%TO.C,Button*%
X56159400Y-58953400D03*
D17*
X60755594Y-54357206D03*
%TD*%
D16*
%TO.C,Button*%
X95938404Y-99285997D03*
D17*
X100534598Y-94689803D03*
%TD*%
D14*
%TO.C,m2*%
X207128400Y-63922200D03*
D15*
X207128400Y-64922200D03*
%TD*%
D14*
%TO.C,m3*%
X203873200Y-106936200D03*
D15*
X203873200Y-107936200D03*
%TD*%
D10*
%TO.C,*%
X253771400Y-32816800D03*
%TD*%
D14*
%TO.C,m4*%
X177578400Y-118102400D03*
D15*
X177578400Y-119102400D03*
%TD*%
D16*
%TO.C,Button*%
X88140604Y-91234197D03*
D17*
X92736798Y-86638003D03*
%TD*%
D14*
%TO.C,m1*%
X163273200Y-36838400D03*
D15*
X163273200Y-37838400D03*
%TD*%
D16*
%TO.C,Button*%
X71910004Y-75409997D03*
D17*
X76506198Y-70813803D03*
%TD*%
D14*
%TO.C,REF\u002A\u002A*%
X248300000Y-111275000D03*
D15*
X249300000Y-111275000D03*
X248300000Y-112275000D03*
X249300000Y-112275000D03*
X248300000Y-113275000D03*
X249300000Y-113275000D03*
X248300000Y-114275000D03*
X249300000Y-114275000D03*
X248300000Y-115275000D03*
X249300000Y-115275000D03*
X248300000Y-116275000D03*
X249300000Y-116275000D03*
X248300000Y-117275000D03*
X249300000Y-117275000D03*
X248300000Y-118275000D03*
X249300000Y-118275000D03*
X248300000Y-119275000D03*
X249300000Y-119275000D03*
X248300000Y-120275000D03*
X249300000Y-120275000D03*
X248300000Y-121275000D03*
X249300000Y-121275000D03*
X248300000Y-122275000D03*
X249300000Y-122275000D03*
X248300000Y-123275000D03*
X249300000Y-123275000D03*
X248300000Y-124275000D03*
X249300000Y-124275000D03*
X248300000Y-125275000D03*
X249300000Y-125275000D03*
X248300000Y-126275000D03*
X249300000Y-126275000D03*
X248300000Y-127275000D03*
X249300000Y-127275000D03*
X248300000Y-128275000D03*
X249300000Y-128275000D03*
X248300000Y-129275000D03*
X249300000Y-129275000D03*
X248300000Y-130275000D03*
X249300000Y-130275000D03*
%TD*%
D16*
%TO.C,Button*%
X96164400Y-51155600D03*
D17*
X100760594Y-46559406D03*
%TD*%
D16*
%TO.C,Button*%
X88140604Y-99108197D03*
D17*
X92736798Y-94512003D03*
%TD*%
D16*
%TO.C,Button*%
X103888604Y-67612197D03*
D17*
X108484798Y-63016003D03*
%TD*%
D16*
%TO.C,Button*%
X96116204Y-107134597D03*
D17*
X100712398Y-102538403D03*
%TD*%
D16*
%TO.C,Button*%
X79860204Y-91157997D03*
D17*
X84456398Y-86561803D03*
%TD*%
D14*
%TO.C,m2*%
X177828400Y-127572200D03*
D15*
X177828400Y-128572200D03*
%TD*%
D16*
%TO.C,Button*%
X80010000Y-43383200D03*
D17*
X84606194Y-38787006D03*
%TD*%
D14*
%TO.C,REF\u002A\u002A*%
X238050000Y-111275000D03*
D15*
X239050000Y-111275000D03*
X238050000Y-112275000D03*
X239050000Y-112275000D03*
X238050000Y-113275000D03*
X239050000Y-113275000D03*
X238050000Y-114275000D03*
X239050000Y-114275000D03*
X238050000Y-115275000D03*
X239050000Y-115275000D03*
X238050000Y-116275000D03*
X239050000Y-116275000D03*
X238050000Y-117275000D03*
X239050000Y-117275000D03*
X238050000Y-118275000D03*
X239050000Y-118275000D03*
X238050000Y-119275000D03*
X239050000Y-119275000D03*
X238050000Y-120275000D03*
X239050000Y-120275000D03*
X238050000Y-121275000D03*
X239050000Y-121275000D03*
X238050000Y-122275000D03*
X239050000Y-122275000D03*
X238050000Y-123275000D03*
X239050000Y-123275000D03*
X238050000Y-124275000D03*
X239050000Y-124275000D03*
X238050000Y-125275000D03*
X239050000Y-125275000D03*
X238050000Y-126275000D03*
X239050000Y-126275000D03*
X238050000Y-127275000D03*
X239050000Y-127275000D03*
X238050000Y-128275000D03*
X239050000Y-128275000D03*
X238050000Y-129275000D03*
X239050000Y-129275000D03*
X238050000Y-130275000D03*
X239050000Y-130275000D03*
%TD*%
D16*
%TO.C,Button*%
X71983600Y-67487800D03*
D17*
X76579794Y-62891606D03*
%TD*%
D14*
%TO.C,m1*%
X174323200Y-127513400D03*
D15*
X174323200Y-128513400D03*
%TD*%
D14*
%TO.C,m4*%
X206978400Y-93652400D03*
D15*
X206978400Y-94652400D03*
%TD*%
D14*
%TO.C,m2*%
X207253400Y-76847200D03*
D15*
X207253400Y-77847200D03*
%TD*%
D14*
%TO.C,m3*%
X163273200Y-40961200D03*
D15*
X163273200Y-41961200D03*
%TD*%
D16*
%TO.C,Button*%
X31981204Y-43609197D03*
D17*
X36577398Y-39013003D03*
%TD*%
D16*
%TO.C,Button*%
X80187800Y-35407600D03*
D17*
X84783994Y-30811406D03*
%TD*%
D14*
%TO.C,m2*%
X135428400Y-140247200D03*
D15*
X135428400Y-141247200D03*
%TD*%
D16*
%TO.C,Button*%
X32207200Y-67157600D03*
D17*
X36803394Y-62561406D03*
%TD*%
D14*
%TO.C,m2*%
X125628400Y-34247200D03*
D15*
X125628400Y-35247200D03*
%TD*%
D14*
%TO.C,m4*%
X178103400Y-145577400D03*
D15*
X178103400Y-146577400D03*
%TD*%
D16*
%TO.C,Button*%
X88214200Y-59207400D03*
D17*
X92810394Y-54611206D03*
%TD*%
D16*
%TO.C,Button*%
X96316800Y-43205400D03*
D17*
X100912994Y-38609206D03*
%TD*%
D14*
%TO.C,m3*%
X163673200Y-92161200D03*
D15*
X163673200Y-93161200D03*
%TD*%
D14*
%TO.C,m1*%
X131798200Y-126188400D03*
D15*
X131798200Y-127188400D03*
%TD*%
D16*
%TO.C,Button*%
X87731600Y-67233800D03*
D17*
X92327794Y-62637606D03*
%TD*%
D14*
%TO.C,m3*%
X122373200Y-51061200D03*
D15*
X122373200Y-52061200D03*
%TD*%
D16*
%TO.C,Button*%
X40005000Y-67310000D03*
D17*
X44601194Y-62713806D03*
%TD*%
D16*
%TO.C,Button*%
X56311800Y-51333400D03*
D17*
X60907994Y-46737206D03*
%TD*%
D14*
%TO.C,m1*%
X163523200Y-100838400D03*
D15*
X163523200Y-101838400D03*
%TD*%
D14*
%TO.C,REF\u002A\u002A*%
X242150000Y-111275000D03*
D15*
X243150000Y-111275000D03*
X242150000Y-112275000D03*
X243150000Y-112275000D03*
X242150000Y-113275000D03*
X243150000Y-113275000D03*
X242150000Y-114275000D03*
X243150000Y-114275000D03*
X242150000Y-115275000D03*
X243150000Y-115275000D03*
X242150000Y-116275000D03*
X243150000Y-116275000D03*
X242150000Y-117275000D03*
X243150000Y-117275000D03*
X242150000Y-118275000D03*
X243150000Y-118275000D03*
X242150000Y-119275000D03*
X243150000Y-119275000D03*
X242150000Y-120275000D03*
X243150000Y-120275000D03*
X242150000Y-121275000D03*
X243150000Y-121275000D03*
X242150000Y-122275000D03*
X243150000Y-122275000D03*
X242150000Y-123275000D03*
X243150000Y-123275000D03*
X242150000Y-124275000D03*
X243150000Y-124275000D03*
X242150000Y-125275000D03*
X243150000Y-125275000D03*
X242150000Y-126275000D03*
X243150000Y-126275000D03*
X242150000Y-127275000D03*
X243150000Y-127275000D03*
X242150000Y-128275000D03*
X243150000Y-128275000D03*
X242150000Y-129275000D03*
X243150000Y-129275000D03*
X242150000Y-130275000D03*
X243150000Y-130275000D03*
%TD*%
D14*
%TO.C,REF\u002A\u002A*%
X244225000Y-131300000D03*
D15*
X245225000Y-131300000D03*
X244225000Y-132300000D03*
X245225000Y-132300000D03*
X244225000Y-133300000D03*
X245225000Y-133300000D03*
X244225000Y-134300000D03*
X245225000Y-134300000D03*
X244225000Y-135300000D03*
X245225000Y-135300000D03*
X244225000Y-136300000D03*
X245225000Y-136300000D03*
X244225000Y-137300000D03*
X245225000Y-137300000D03*
X244225000Y-138300000D03*
X245225000Y-138300000D03*
X244225000Y-139300000D03*
X245225000Y-139300000D03*
X244225000Y-140300000D03*
X245225000Y-140300000D03*
X244225000Y-141300000D03*
X245225000Y-141300000D03*
X244225000Y-142300000D03*
X245225000Y-142300000D03*
X244225000Y-143300000D03*
X245225000Y-143300000D03*
X244225000Y-144300000D03*
X245225000Y-144300000D03*
X244225000Y-145300000D03*
X245225000Y-145300000D03*
X244225000Y-146300000D03*
X245225000Y-146300000D03*
X244225000Y-147300000D03*
X245225000Y-147300000D03*
X244225000Y-148300000D03*
X245225000Y-148300000D03*
X244225000Y-149300000D03*
X245225000Y-149300000D03*
X244225000Y-150300000D03*
X245225000Y-150300000D03*
%TD*%
D16*
%TO.C,Button*%
X56159400Y-67157600D03*
D17*
X60755594Y-62561406D03*
%TD*%
D14*
%TO.C,m3*%
X122527600Y-63730200D03*
D15*
X122527600Y-64730200D03*
%TD*%
D16*
%TO.C,Button*%
X32133604Y-35074797D03*
D17*
X36729798Y-30478603D03*
%TD*%
D14*
%TO.C,m4*%
X207253400Y-80852400D03*
D15*
X207253400Y-81852400D03*
%TD*%
D16*
%TO.C,Button*%
X72316404Y-99031997D03*
D17*
X76912598Y-94435803D03*
%TD*%
D14*
%TO.C,m1*%
X203873200Y-102813400D03*
D15*
X203873200Y-103813400D03*
%TD*%
D14*
%TO.C,m4*%
X166778400Y-53952400D03*
D15*
X166778400Y-54952400D03*
%TD*%
D16*
%TO.C,Button*%
X88214200Y-35509200D03*
D17*
X92810394Y-30913006D03*
%TD*%
D14*
%TO.C,m3*%
X163523200Y-104961200D03*
D15*
X163523200Y-105961200D03*
%TD*%
D14*
%TO.C,m2*%
X135153400Y-113172200D03*
D15*
X135153400Y-114172200D03*
%TD*%
D14*
%TO.C,m2*%
X126032800Y-59666200D03*
D15*
X126032800Y-60666200D03*
%TD*%
D16*
%TO.C,Button*%
X64109600Y-67386200D03*
D17*
X68705794Y-62790006D03*
%TD*%
D16*
%TO.C,Button*%
X103812404Y-75409997D03*
D17*
X108408598Y-70813803D03*
%TD*%
D16*
%TO.C,Button*%
X63883604Y-99285997D03*
D17*
X68479798Y-94689803D03*
%TD*%
D10*
%TO.C,*%
X253949200Y-162814000D03*
%TD*%
D16*
%TO.C,Button*%
X55933404Y-91234197D03*
D17*
X60529598Y-86638003D03*
%TD*%
D14*
%TO.C,m4*%
X177828400Y-131577400D03*
D15*
X177828400Y-132577400D03*
%TD*%
D16*
%TO.C,Button*%
X71805800Y-59207400D03*
D17*
X76401994Y-54611206D03*
%TD*%
D14*
%TO.C,m4*%
X135153400Y-117177400D03*
D15*
X135153400Y-118177400D03*
%TD*%
D16*
%TO.C,Button*%
X56159400Y-35179000D03*
D17*
X60755594Y-30582806D03*
%TD*%
D14*
%TO.C,m2*%
X207378400Y-102872200D03*
D15*
X207378400Y-103872200D03*
%TD*%
D16*
%TO.C,Button*%
X64290004Y-91310397D03*
D17*
X68886198Y-86714203D03*
%TD*%
D16*
%TO.C,Button*%
X32133604Y-107058397D03*
D17*
X36729798Y-102462203D03*
%TD*%
D16*
%TO.C,Button*%
X40081200Y-35407600D03*
D17*
X44677394Y-30811406D03*
%TD*%
D16*
%TO.C,Button*%
X40081200Y-51257200D03*
D17*
X44677394Y-46661006D03*
%TD*%
D14*
%TO.C,m4*%
X166628400Y-66627400D03*
D15*
X166628400Y-67627400D03*
%TD*%
D14*
%TO.C,m3*%
X122373200Y-103486200D03*
D15*
X122373200Y-104486200D03*
%TD*%
D16*
%TO.C,Button*%
X40261604Y-82877597D03*
D17*
X44857798Y-78281403D03*
%TD*%
D14*
%TO.C,m3*%
X174598200Y-145636200D03*
D15*
X174598200Y-146636200D03*
%TD*%
D14*
%TO.C,m4*%
X135428400Y-144252400D03*
D15*
X135428400Y-145252400D03*
%TD*%
D14*
%TO.C,m2*%
X167028400Y-75297200D03*
D15*
X167028400Y-76297200D03*
%TD*%
D14*
%TO.C,m4*%
X125628400Y-38252400D03*
D15*
X125628400Y-39252400D03*
%TD*%
D14*
%TO.C,REF\u002A\u002A*%
X252400000Y-111275000D03*
D15*
X253400000Y-111275000D03*
X252400000Y-112275000D03*
X253400000Y-112275000D03*
X252400000Y-113275000D03*
X253400000Y-113275000D03*
X252400000Y-114275000D03*
X253400000Y-114275000D03*
X252400000Y-115275000D03*
X253400000Y-115275000D03*
X252400000Y-116275000D03*
X253400000Y-116275000D03*
X252400000Y-117275000D03*
X253400000Y-117275000D03*
X252400000Y-118275000D03*
X253400000Y-118275000D03*
X252400000Y-119275000D03*
X253400000Y-119275000D03*
X252400000Y-120275000D03*
X253400000Y-120275000D03*
X252400000Y-121275000D03*
X253400000Y-121275000D03*
X252400000Y-122275000D03*
X253400000Y-122275000D03*
X252400000Y-123275000D03*
X253400000Y-123275000D03*
X252400000Y-124275000D03*
X253400000Y-124275000D03*
X252400000Y-125275000D03*
X253400000Y-125275000D03*
X252400000Y-126275000D03*
X253400000Y-126275000D03*
X252400000Y-127275000D03*
X253400000Y-127275000D03*
X252400000Y-128275000D03*
X253400000Y-128275000D03*
X252400000Y-129275000D03*
X253400000Y-129275000D03*
X252400000Y-130275000D03*
X253400000Y-130275000D03*
%TD*%
D14*
%TO.C,m1*%
X203798200Y-51488400D03*
D15*
X203798200Y-52488400D03*
%TD*%
D16*
%TO.C,Button*%
X104444800Y-51409600D03*
D17*
X109040994Y-46813406D03*
%TD*%
D14*
%TO.C,REF\u002A\u002A*%
X246275000Y-131300000D03*
D15*
X247275000Y-131300000D03*
X246275000Y-132300000D03*
X247275000Y-132300000D03*
X246275000Y-133300000D03*
X247275000Y-133300000D03*
X246275000Y-134300000D03*
X247275000Y-134300000D03*
X246275000Y-135300000D03*
X247275000Y-135300000D03*
X246275000Y-136300000D03*
X247275000Y-136300000D03*
X246275000Y-137300000D03*
X247275000Y-137300000D03*
X246275000Y-138300000D03*
X247275000Y-138300000D03*
X246275000Y-139300000D03*
X247275000Y-139300000D03*
X246275000Y-140300000D03*
X247275000Y-140300000D03*
X246275000Y-141300000D03*
X247275000Y-141300000D03*
X246275000Y-142300000D03*
X247275000Y-142300000D03*
X246275000Y-143300000D03*
X247275000Y-143300000D03*
X246275000Y-144300000D03*
X247275000Y-144300000D03*
X246275000Y-145300000D03*
X247275000Y-145300000D03*
X246275000Y-146300000D03*
X247275000Y-146300000D03*
X246275000Y-147300000D03*
X247275000Y-147300000D03*
X246275000Y-148300000D03*
X247275000Y-148300000D03*
X246275000Y-149300000D03*
X247275000Y-149300000D03*
X246275000Y-150300000D03*
X247275000Y-150300000D03*
%TD*%
D14*
%TO.C,m3*%
X131923200Y-144311200D03*
D15*
X131923200Y-145311200D03*
%TD*%
D16*
%TO.C,Button*%
X48183800Y-58953400D03*
D17*
X52779994Y-54357206D03*
%TD*%
D16*
%TO.C,Button*%
X55981600Y-43459400D03*
D17*
X60577794Y-38863206D03*
%TD*%
D20*
%TO.C,pwmA*%
X177025600Y-100025600D03*
D21*
X175725600Y-100025600D03*
%TD*%
D20*
%TO.C,pwmA*%
X227004200Y-76026400D03*
D21*
X225704200Y-76026400D03*
%TD*%
D20*
%TO.C,STBY*%
X217148200Y-53520400D03*
D21*
X215848200Y-53520400D03*
%TD*%
D20*
%TO.C,pwmB*%
X186478400Y-41207200D03*
D21*
X185178400Y-41207200D03*
%TD*%
D20*
%TO.C,STBY*%
X135973200Y-87595400D03*
D21*
X134673200Y-87595400D03*
%TD*%
D20*
%TO.C,STBY*%
X155118000Y-141966400D03*
D21*
X153818000Y-141966400D03*
%TD*%
D20*
%TO.C,pwmA*%
X186529200Y-36076400D03*
D21*
X185229200Y-36076400D03*
%TD*%
D20*
%TO.C,pwmB*%
X136157800Y-77286200D03*
D21*
X134857800Y-77286200D03*
%TD*%
D20*
%TO.C,pwmB*%
X145107800Y-130811200D03*
D21*
X143807800Y-130811200D03*
%TD*%
D20*
%TO.C,STBY*%
X145318000Y-35966400D03*
D21*
X144018000Y-35966400D03*
%TD*%
D20*
%TO.C,pwmA*%
X136125600Y-84750600D03*
D21*
X134825600Y-84750600D03*
%TD*%
D20*
%TO.C,STBY*%
X135877600Y-61639400D03*
D21*
X134577600Y-61639400D03*
%TD*%
D20*
%TO.C,pwmA*%
X145425600Y-139375600D03*
D21*
X144125600Y-139375600D03*
%TD*%
D20*
%TO.C,pwmB*%
X176582800Y-54511200D03*
D21*
X175282800Y-54511200D03*
%TD*%
D20*
%TO.C,pwmB*%
X197278400Y-118407200D03*
D21*
X195978400Y-118407200D03*
%TD*%
D20*
%TO.C,pwmB*%
X176582800Y-41461200D03*
D21*
X175282800Y-41461200D03*
%TD*%
D20*
%TO.C,pwmB*%
X226953400Y-81157200D03*
D21*
X225653400Y-81157200D03*
%TD*%
D20*
%TO.C,pwmB*%
X176832800Y-105461200D03*
D21*
X175532800Y-105461200D03*
%TD*%
D20*
%TO.C,pwmA*%
X186779200Y-74476400D03*
D21*
X185479200Y-74476400D03*
%TD*%
D20*
%TO.C,pwmB*%
X145578400Y-103732200D03*
D21*
X144278400Y-103732200D03*
%TD*%
D20*
%TO.C,STBY*%
X145148200Y-128220400D03*
D21*
X143848200Y-128220400D03*
%TD*%
D20*
%TO.C,pwmB*%
X135837200Y-64230200D03*
D21*
X134537200Y-64230200D03*
%TD*%
D22*
%TO.C,STBY*%
X220008600Y-137993000D03*
D23*
X220008600Y-136693000D03*
%TD*%
D20*
%TO.C,pwmA*%
X226729200Y-88826400D03*
D21*
X225429200Y-88826400D03*
%TD*%
D20*
%TO.C,STBY*%
X135723200Y-48970400D03*
D21*
X134423200Y-48970400D03*
%TD*%
D20*
%TO.C,STBY*%
X145722400Y-61385400D03*
D21*
X144422400Y-61385400D03*
%TD*%
D20*
%TO.C,pwmB*%
X217182800Y-107436200D03*
D21*
X215882800Y-107436200D03*
%TD*%
D20*
%TO.C,pwmB*%
X135932800Y-90186200D03*
D21*
X134632800Y-90186200D03*
%TD*%
D20*
%TO.C,STBY*%
X135723200Y-101395400D03*
D21*
X134423200Y-101395400D03*
%TD*%
D20*
%TO.C,pwmB*%
X176432800Y-67186200D03*
D21*
X175132800Y-67186200D03*
%TD*%
D20*
%TO.C,pwmA*%
X155054200Y-125426400D03*
D21*
X153754200Y-125426400D03*
%TD*%
D20*
%TO.C,pwmA*%
X227129200Y-102051400D03*
D21*
X225829200Y-102051400D03*
%TD*%
D20*
%TO.C,pwmA*%
X217125600Y-63050600D03*
D21*
X215825600Y-63050600D03*
%TD*%
D20*
%TO.C,STBY*%
X176623200Y-38870400D03*
D21*
X175323200Y-38870400D03*
%TD*%
D20*
%TO.C,pwmB*%
X226678400Y-93957200D03*
D21*
X225378400Y-93957200D03*
%TD*%
D20*
%TO.C,pwmB*%
X216932800Y-68486200D03*
D21*
X215632800Y-68486200D03*
%TD*%
D20*
%TO.C,pwmB*%
X227153400Y-42007200D03*
D21*
X225853400Y-42007200D03*
%TD*%
D20*
%TO.C,pwmA*%
X197854200Y-140751400D03*
D21*
X196554200Y-140751400D03*
%TD*%
D22*
%TO.C,pwmB*%
X217163800Y-128107800D03*
D23*
X217163800Y-126807800D03*
%TD*%
D20*
%TO.C,pwmB*%
X155128400Y-144557200D03*
D21*
X153828400Y-144557200D03*
%TD*%
D20*
%TO.C,pwmA*%
X154904200Y-112351400D03*
D21*
X153604200Y-112351400D03*
%TD*%
D20*
%TO.C,pwmB*%
X186728400Y-79607200D03*
D21*
X185428400Y-79607200D03*
%TD*%
D20*
%TO.C,STBY*%
X197268000Y-115816400D03*
D21*
X195968000Y-115816400D03*
%TD*%
D20*
%TO.C,pwmB*%
X176832800Y-79861200D03*
D21*
X175532800Y-79861200D03*
%TD*%
D20*
%TO.C,pwmA*%
X187825600Y-126700600D03*
D21*
X186525600Y-126700600D03*
%TD*%
D20*
%TO.C,STBY*%
X176873200Y-102870400D03*
D21*
X175573200Y-102870400D03*
%TD*%
D20*
%TO.C,pwmA*%
X226879200Y-63101400D03*
D21*
X225579200Y-63101400D03*
%TD*%
D20*
%TO.C,pwmB*%
X186878400Y-92407200D03*
D21*
X185578400Y-92407200D03*
%TD*%
D20*
%TO.C,pwmB*%
X154853400Y-117482200D03*
D21*
X153553400Y-117482200D03*
%TD*%
D20*
%TO.C,pwmB*%
X135432800Y-38811200D03*
D21*
X134132800Y-38811200D03*
%TD*%
D20*
%TO.C,pwmA*%
X145879200Y-84801400D03*
D21*
X144579200Y-84801400D03*
%TD*%
D20*
%TO.C,pwmA*%
X216975600Y-88775600D03*
D21*
X215675600Y-88775600D03*
%TD*%
D20*
%TO.C,STBY*%
X154993000Y-127966400D03*
D21*
X153693000Y-127966400D03*
%TD*%
D20*
%TO.C,pwmA*%
X176775600Y-49075600D03*
D21*
X175475600Y-49075600D03*
%TD*%
D20*
%TO.C,pwmA*%
X135875600Y-98550600D03*
D21*
X134575600Y-98550600D03*
%TD*%
D20*
%TO.C,pwmA*%
X136350600Y-71850600D03*
D21*
X135050600Y-71850600D03*
%TD*%
D20*
%TO.C,pwmA*%
X217450600Y-36825600D03*
D21*
X216150600Y-36825600D03*
%TD*%
D20*
%TO.C,pwmB*%
X216782800Y-94211200D03*
D21*
X215482800Y-94211200D03*
%TD*%
D20*
%TO.C,pwmA*%
X197329200Y-113276400D03*
D21*
X196029200Y-113276400D03*
%TD*%
D20*
%TO.C,pwmB*%
X226828400Y-68232200D03*
D21*
X225528400Y-68232200D03*
%TD*%
D20*
%TO.C,pwmA*%
X135625600Y-33375600D03*
D21*
X134325600Y-33375600D03*
%TD*%
D20*
%TO.C,STBY*%
X227068000Y-104591400D03*
D21*
X225768000Y-104591400D03*
%TD*%
D20*
%TO.C,pwmB*%
X176982800Y-92661200D03*
D21*
X175682800Y-92661200D03*
%TD*%
D20*
%TO.C,pwmA*%
X227204200Y-36876400D03*
D21*
X225904200Y-36876400D03*
%TD*%
D20*
%TO.C,STBY*%
X136198200Y-74695400D03*
D21*
X134898200Y-74695400D03*
%TD*%
D20*
%TO.C,STBY*%
X186318000Y-64341400D03*
D21*
X185018000Y-64341400D03*
%TD*%
D20*
%TO.C,STBY*%
X187423200Y-116070400D03*
D21*
X186123200Y-116070400D03*
%TD*%
D20*
%TO.C,pwmA*%
X186779200Y-100076400D03*
D21*
X185479200Y-100076400D03*
%TD*%
D20*
%TO.C,pwmB*%
X217057800Y-81411200D03*
D21*
X215757800Y-81411200D03*
%TD*%
D20*
%TO.C,pwmB*%
X145328400Y-38557200D03*
D21*
X144028400Y-38557200D03*
%TD*%
D20*
%TO.C,STBY*%
X197793000Y-143291400D03*
D21*
X196493000Y-143291400D03*
%TD*%
D22*
%TO.C,pwmA*%
X222599400Y-128300600D03*
D23*
X222599400Y-127000600D03*
%TD*%
D20*
%TO.C,pwmA*%
X155179200Y-139426400D03*
D21*
X153879200Y-139426400D03*
%TD*%
D20*
%TO.C,pwmA*%
X197579200Y-126751400D03*
D21*
X196279200Y-126751400D03*
%TD*%
D20*
%TO.C,STBY*%
X186718000Y-77016400D03*
D21*
X185418000Y-77016400D03*
%TD*%
D20*
%TO.C,pwmB*%
X186728400Y-105207200D03*
D21*
X185428400Y-105207200D03*
%TD*%
D20*
%TO.C,pwmA*%
X145783600Y-58845400D03*
D21*
X144483600Y-58845400D03*
%TD*%
D20*
%TO.C,pwmA*%
X217250600Y-75975600D03*
D21*
X215950600Y-75975600D03*
%TD*%
D20*
%TO.C,pwmB*%
X187907800Y-146136200D03*
D21*
X186607800Y-146136200D03*
%TD*%
D22*
%TO.C,pwmA*%
X222548600Y-138054200D03*
D23*
X222548600Y-136754200D03*
%TD*%
D20*
%TO.C,STBY*%
X226943000Y-78566400D03*
D21*
X225643000Y-78566400D03*
%TD*%
D20*
%TO.C,STBY*%
X145273200Y-142220400D03*
D21*
X143973200Y-142220400D03*
%TD*%
D20*
%TO.C,pwmB*%
X187382800Y-118661200D03*
D21*
X186082800Y-118661200D03*
%TD*%
D20*
%TO.C,pwmA*%
X136030000Y-58794600D03*
D21*
X134730000Y-58794600D03*
%TD*%
D20*
%TO.C,pwmB*%
X145828400Y-89932200D03*
D21*
X144528400Y-89932200D03*
%TD*%
D20*
%TO.C,pwmA*%
X145629200Y-46176400D03*
D21*
X144329200Y-46176400D03*
%TD*%
D20*
%TO.C,pwmB*%
X145578400Y-51307200D03*
D21*
X144278400Y-51307200D03*
%TD*%
D20*
%TO.C,pwmA*%
X135875600Y-46125600D03*
D21*
X134575600Y-46125600D03*
%TD*%
D20*
%TO.C,pwmB*%
X197803400Y-145882200D03*
D21*
X196503400Y-145882200D03*
%TD*%
D20*
%TO.C,STBY*%
X144998200Y-115145400D03*
D21*
X143698200Y-115145400D03*
%TD*%
D20*
%TO.C,pwmB*%
X135682800Y-103986200D03*
D21*
X134382800Y-103986200D03*
%TD*%
D20*
%TO.C,pwmA*%
X145150600Y-112300600D03*
D21*
X143850600Y-112300600D03*
%TD*%
D20*
%TO.C,STBY*%
X226818000Y-65641400D03*
D21*
X225518000Y-65641400D03*
%TD*%
D20*
%TO.C,STBY*%
X226668000Y-91366400D03*
D21*
X225368000Y-91366400D03*
%TD*%
D20*
%TO.C,pwmB*%
X186478400Y-54257200D03*
D21*
X185178400Y-54257200D03*
%TD*%
D20*
%TO.C,pwmB*%
X145732800Y-63976200D03*
D21*
X144432800Y-63976200D03*
%TD*%
D20*
%TO.C,STBY*%
X217098200Y-78820400D03*
D21*
X215798200Y-78820400D03*
%TD*%
D20*
%TO.C,pwmB*%
X144957800Y-117736200D03*
D21*
X143657800Y-117736200D03*
%TD*%
D20*
%TO.C,pwmA*%
X186929200Y-87276400D03*
D21*
X185629200Y-87276400D03*
%TD*%
D20*
%TO.C,STBY*%
X186468000Y-38616400D03*
D21*
X185168000Y-38616400D03*
%TD*%
D20*
%TO.C,pwmB*%
X135682800Y-51561200D03*
D21*
X134382800Y-51561200D03*
%TD*%
D20*
%TO.C,pwmB*%
X217257800Y-42261200D03*
D21*
X215957800Y-42261200D03*
%TD*%
D20*
%TO.C,STBY*%
X227143000Y-39416400D03*
D21*
X225843000Y-39416400D03*
%TD*%
D20*
%TO.C,pwmB*%
X145232800Y-144811200D03*
D21*
X143932800Y-144811200D03*
%TD*%
D20*
%TO.C,pwmB*%
X187632800Y-132136200D03*
D21*
X186332800Y-132136200D03*
%TD*%
D20*
%TO.C,STBY*%
X197518000Y-129291400D03*
D21*
X196218000Y-129291400D03*
%TD*%
D20*
%TO.C,STBY*%
X145568000Y-48716400D03*
D21*
X144268000Y-48716400D03*
%TD*%
D20*
%TO.C,STBY*%
X226993000Y-53266400D03*
D21*
X225693000Y-53266400D03*
%TD*%
D20*
%TO.C,pwmA*%
X188100600Y-140700600D03*
D21*
X186800600Y-140700600D03*
%TD*%
D20*
%TO.C,STBY*%
X146043000Y-74441400D03*
D21*
X144743000Y-74441400D03*
%TD*%
D20*
%TO.C,STBY*%
X186718000Y-102616400D03*
D21*
X185418000Y-102616400D03*
%TD*%
D20*
%TO.C,STBY*%
X176873200Y-77270400D03*
D21*
X175573200Y-77270400D03*
%TD*%
D20*
%TO.C,STBY*%
X154843000Y-114891400D03*
D21*
X153543000Y-114891400D03*
%TD*%
D20*
%TO.C,pwmA*%
X145379200Y-33426400D03*
D21*
X144079200Y-33426400D03*
%TD*%
D20*
%TO.C,pwmA*%
X186379200Y-61801400D03*
D21*
X185079200Y-61801400D03*
%TD*%
D20*
%TO.C,STBY*%
X176473200Y-64595400D03*
D21*
X175173200Y-64595400D03*
%TD*%
D20*
%TO.C,STBY*%
X217298200Y-39670400D03*
D21*
X215998200Y-39670400D03*
%TD*%
D20*
%TO.C,pwmA*%
X186529200Y-49126400D03*
D21*
X185229200Y-49126400D03*
%TD*%
D20*
%TO.C,pwmA*%
X217375600Y-102000600D03*
D21*
X216075600Y-102000600D03*
%TD*%
D20*
%TO.C,STBY*%
X217223200Y-104845400D03*
D21*
X215923200Y-104845400D03*
%TD*%
D20*
%TO.C,STBY*%
X186468000Y-51666400D03*
D21*
X185168000Y-51666400D03*
%TD*%
D20*
%TO.C,pwmA*%
X145629200Y-98601400D03*
D21*
X144329200Y-98601400D03*
%TD*%
D20*
%TO.C,pwmB*%
X227003400Y-55857200D03*
D21*
X225703400Y-55857200D03*
%TD*%
D20*
%TO.C,STBY*%
X145568000Y-101141400D03*
D21*
X144268000Y-101141400D03*
%TD*%
D20*
%TO.C,pwmB*%
X217107800Y-56111200D03*
D21*
X215807800Y-56111200D03*
%TD*%
D20*
%TO.C,pwmB*%
X186328400Y-66932200D03*
D21*
X185028400Y-66932200D03*
%TD*%
D20*
%TO.C,STBY*%
X187673200Y-129545400D03*
D21*
X186373200Y-129545400D03*
%TD*%
D20*
%TO.C,STBY*%
X187948200Y-143545400D03*
D21*
X186648200Y-143545400D03*
%TD*%
D20*
%TO.C,pwmA*%
X177025600Y-74425600D03*
D21*
X175725600Y-74425600D03*
%TD*%
D20*
%TO.C,pwmB*%
X227078400Y-107182200D03*
D21*
X225778400Y-107182200D03*
%TD*%
D20*
%TO.C,pwmA*%
X146104200Y-71901400D03*
D21*
X144804200Y-71901400D03*
%TD*%
D20*
%TO.C,STBY*%
X186868000Y-89816400D03*
D21*
X185568000Y-89816400D03*
%TD*%
D20*
%TO.C,STBY*%
X216973200Y-65895400D03*
D21*
X215673200Y-65895400D03*
%TD*%
D20*
%TO.C,pwmB*%
X146053400Y-77032200D03*
D21*
X144753400Y-77032200D03*
%TD*%
D20*
%TO.C,pwmA*%
X145300600Y-125375600D03*
D21*
X144000600Y-125375600D03*
%TD*%
D20*
%TO.C,STBY*%
X176623200Y-51920400D03*
D21*
X175323200Y-51920400D03*
%TD*%
D20*
%TO.C,pwmB*%
X197528400Y-131882200D03*
D21*
X196228400Y-131882200D03*
%TD*%
D20*
%TO.C,pwmA*%
X187575600Y-113225600D03*
D21*
X186275600Y-113225600D03*
%TD*%
D20*
%TO.C,pwmA*%
X176625600Y-61750600D03*
D21*
X175325600Y-61750600D03*
%TD*%
D22*
%TO.C,STBY*%
X219754600Y-128148200D03*
D23*
X219754600Y-126848200D03*
%TD*%
D22*
%TO.C,pwmB*%
X217417800Y-138003400D03*
D23*
X217417800Y-136703400D03*
%TD*%
D20*
%TO.C,pwmA*%
X177175600Y-87225600D03*
D21*
X175875600Y-87225600D03*
%TD*%
D20*
%TO.C,pwmA*%
X227054200Y-50726400D03*
D21*
X225754200Y-50726400D03*
%TD*%
D20*
%TO.C,STBY*%
X135473200Y-36220400D03*
D21*
X134173200Y-36220400D03*
%TD*%
D20*
%TO.C,STBY*%
X145818000Y-87341400D03*
D21*
X144518000Y-87341400D03*
%TD*%
D20*
%TO.C,pwmA*%
X176775600Y-36025600D03*
D21*
X175475600Y-36025600D03*
%TD*%
D20*
%TO.C,pwmA*%
X217300600Y-50675600D03*
D21*
X216000600Y-50675600D03*
%TD*%
D20*
%TO.C,pwmB*%
X155003400Y-130557200D03*
D21*
X153703400Y-130557200D03*
%TD*%
D20*
%TO.C,STBY*%
X177023200Y-90070400D03*
D21*
X175723200Y-90070400D03*
%TD*%
D20*
%TO.C,STBY*%
X216823200Y-91620400D03*
D21*
X215523200Y-91620400D03*
%TD*%
M02*
